%TF.GenerationSoftware,KiCad,Pcbnew,5.1.10-88a1d61d58~90~ubuntu20.04.1*%
%TF.CreationDate,2021-10-13T19:14:15+02:00*%
%TF.ProjectId,AO_V2,414f5f56-322e-46b6-9963-61645f706362,rev?*%
%TF.SameCoordinates,Original*%
%TF.FileFunction,Soldermask,Bot*%
%TF.FilePolarity,Negative*%
%FSLAX46Y46*%
G04 Gerber Fmt 4.6, Leading zero omitted, Abs format (unit mm)*
G04 Created by KiCad (PCBNEW 5.1.10-88a1d61d58~90~ubuntu20.04.1) date 2021-10-13 19:14:15*
%MOMM*%
%LPD*%
G01*
G04 APERTURE LIST*
%ADD10O,1.400000X1.400000*%
%ADD11C,1.400000*%
%ADD12O,1.700000X1.700000*%
%ADD13R,1.700000X1.700000*%
%ADD14C,1.950000*%
%ADD15C,1.800000*%
%ADD16R,1.800000X1.800000*%
%ADD17O,1.600000X1.600000*%
%ADD18R,1.600000X1.600000*%
G04 APERTURE END LIST*
D10*
%TO.C,F1*%
X96266000Y-73660000D03*
D11*
X101346000Y-73660000D03*
%TD*%
D12*
%TO.C,J11*%
X122682000Y-134620000D03*
D13*
X122682000Y-137160000D03*
%TD*%
D12*
%TO.C,J10*%
X122682000Y-127000000D03*
D13*
X122682000Y-129540000D03*
%TD*%
D14*
%TO.C,J9*%
X159432000Y-75772000D03*
X159432000Y-80772000D03*
X154432000Y-75772000D03*
X154432000Y-80772000D03*
%TD*%
%TO.C,J8*%
X148256000Y-75772000D03*
X148256000Y-80772000D03*
X143256000Y-75772000D03*
X143256000Y-80772000D03*
%TD*%
%TO.C,J7*%
X136826000Y-75772000D03*
X136826000Y-80772000D03*
X131826000Y-75772000D03*
X131826000Y-80772000D03*
%TD*%
%TO.C,J6*%
X125650000Y-75772000D03*
X125650000Y-80772000D03*
X120650000Y-75772000D03*
X120650000Y-80772000D03*
%TD*%
%TO.C,J5*%
X114220000Y-75772000D03*
X114220000Y-80772000D03*
X109220000Y-75772000D03*
X109220000Y-80772000D03*
%TD*%
D15*
%TO.C,D4*%
X187960000Y-88900000D03*
D16*
X187960000Y-86360000D03*
%TD*%
D15*
%TO.C,D3*%
X187960000Y-96520000D03*
D16*
X187960000Y-93980000D03*
%TD*%
D15*
%TO.C,D2*%
X187960000Y-104140000D03*
D16*
X187960000Y-101600000D03*
%TD*%
D15*
%TO.C,D1*%
X187960000Y-111760000D03*
D16*
X187960000Y-109220000D03*
%TD*%
D17*
%TO.C,SW1*%
X169418000Y-138684000D03*
X179578000Y-146304000D03*
X171958000Y-138684000D03*
X177038000Y-146304000D03*
X174498000Y-138684000D03*
X174498000Y-146304000D03*
X177038000Y-138684000D03*
X171958000Y-146304000D03*
X179578000Y-138684000D03*
D18*
X169418000Y-146304000D03*
%TD*%
D12*
%TO.C,J4*%
X112522000Y-144272000D03*
X112522000Y-141732000D03*
X115062000Y-144272000D03*
X115062000Y-141732000D03*
X117602000Y-144272000D03*
X117602000Y-141732000D03*
X120142000Y-144272000D03*
X120142000Y-141732000D03*
X122682000Y-144272000D03*
D13*
X122682000Y-141732000D03*
%TD*%
D12*
%TO.C,J3*%
X130048000Y-144018000D03*
X130048000Y-141478000D03*
X132588000Y-144018000D03*
X132588000Y-141478000D03*
X135128000Y-144018000D03*
X135128000Y-141478000D03*
X137668000Y-144018000D03*
X137668000Y-141478000D03*
X140208000Y-144018000D03*
D13*
X140208000Y-141478000D03*
%TD*%
D12*
%TO.C,J2*%
X109982000Y-137160000D03*
X109982000Y-134620000D03*
X112522000Y-137160000D03*
X112522000Y-134620000D03*
X115062000Y-137160000D03*
D13*
X115062000Y-134620000D03*
%TD*%
D12*
%TO.C,J1*%
X181356000Y-130556000D03*
X181356000Y-128016000D03*
X181356000Y-125476000D03*
D13*
X181356000Y-122936000D03*
%TD*%
M02*
