M48
; DRILL file {KiCad 5.1.10-88a1d61d58~90~ubuntu20.04.1} date Wed Oct 13 12:15:15 2021
; FORMAT={-:-/ absolute / inch / decimal}
; #@! TF.CreationDate,2021-10-13T12:15:15+02:00
; #@! TF.GenerationSoftware,Kicad,Pcbnew,5.1.10-88a1d61d58~90~ubuntu20.04.1
FMAT,2
INCH
T1C0.0157
T2C0.0276
T3C0.0315
T4C0.0354
T5C0.0394
T6C0.0512
%
G90
G05
T1
X3.64Y-4.93
X3.64Y-5.2
X3.64Y-5.43
X3.64Y-5.67
X3.64Y-5.8
X3.65Y-2.84
X3.65Y-2.98
X3.65Y-3.18
X3.65Y-3.44
X3.65Y-3.88
X3.65Y-4.28
X3.68Y-4.44
X3.68Y-4.64
X3.69Y-3.88
X3.73Y-3.66
X3.73Y-3.74
X3.73Y-4.02
X3.73Y-4.1
X3.73Y-4.7
X3.73Y-5.24
X3.74Y-4.37
X3.75Y-4.85
X3.78Y-5.67
X3.79Y-3.59
X3.79Y-3.8
X3.79Y-5.18
X3.86Y-5.24
X3.88Y-4.37
X3.9Y-3.24
X3.92Y-3.57
X3.92Y-4.06
X3.92Y-5.51
X3.92Y-5.59
X3.92Y-5.67
X3.93Y-3.88
X3.94Y-4.77
X3.96Y-3.57
X3.98Y-3.16
X3.98Y-3.33
X3.99Y-5.05
X4.0Y-3.57
X4.03Y-4.16
X4.03Y-4.37
X4.04Y-3.57
X4.04Y-4.7
X4.05Y-2.84
X4.06Y-3.24
X4.06Y-5.73
X4.0752Y-4.2052
X4.08Y-3.57
X4.08Y-4.44
X4.08Y-4.64
X4.12Y-3.57
X4.12Y-5.51
X4.12Y-5.59
X4.12Y-5.67
X4.14Y-4.07
X4.21Y-5.2
X4.21Y-5.28
X4.23Y-5.81
X4.26Y-4.59
X4.3Y-2.84
X4.32Y-3.97
X4.38Y-4.04
X4.48Y-4.12
X4.5Y-4.59
X4.52Y-4.1411
X4.56Y-4.16
X4.57Y-4.48
X4.58Y-3.86
X4.58Y-4.92
X4.62Y-4.34
X4.6202Y-4.1098
X4.63Y-5.5
X4.63Y-5.81
X4.64Y-3.71
X4.64Y-3.92
X4.68Y-4.44
X4.68Y-5.14
X4.68Y-5.2
X4.69Y-4.81
X4.73Y-3.84
X4.74Y-3.32
X4.75Y-2.84
X4.76Y-4.28
X4.78Y-5.2
X4.79Y-4.48
X4.8Y-3.42
X4.86Y-4.76
X4.87Y-3.85
X4.91Y-3.96
X4.94Y-3.7
X4.94Y-3.92
X4.96Y-3.32
X4.96Y-3.4
X4.97Y-4.03
X4.97Y-4.11
X4.97Y-4.91
X4.98Y-5.49
X4.98Y-5.58
X4.98Y-5.67
X4.98Y-5.81
X4.99Y-3.49
X5.01Y-4.48
X5.01Y-4.63
X5.02Y-3.86
X5.05Y-3.55
X5.05Y-5.2
X5.06Y-4.11
X5.06Y-4.34
X5.06Y-4.94
X5.08Y-3.71
X5.08Y-3.92
X5.1Y-4.19
X5.12Y-4.44
X5.13Y-4.81
X5.17Y-3.84
X5.18Y-3.32
X5.19Y-2.84
X5.2Y-4.28
X5.23Y-4.48
X5.23Y-5.37
X5.24Y-3.42
X5.3Y-4.76
X5.31Y-3.85
X5.32Y-5.81
X5.35Y-3.96
X5.38Y-3.71
X5.38Y-3.92
X5.38Y-4.97
X5.38Y-5.01
X5.38Y-5.09
X5.41Y-3.32
X5.41Y-3.4
X5.41Y-4.03
X5.41Y-4.11
X5.43Y-3.49
X5.45Y-4.48
X5.45Y-5.31
X5.45Y-5.39
X5.46Y-4.63
X5.47Y-3.86
X5.47Y-4.92
X5.48Y-5.12
X5.49Y-3.55
X5.51Y-4.11
X5.51Y-4.34
X5.53Y-3.71
X5.53Y-3.92
X5.56Y-4.19
X5.57Y-4.44
X5.58Y-4.81
X5.62Y-3.84
X5.62Y-4.93
X5.62Y-5.06
X5.62Y-5.2
X5.62Y-5.36
X5.63Y-3.32
X5.64Y-2.84
X5.65Y-4.28
X5.67Y-4.48
X5.69Y-3.42
X5.75Y-4.76
X5.76Y-3.85
X5.77Y-5.71
X5.8Y-3.96
X5.81Y-5.2
X5.83Y-3.71
X5.83Y-3.92
X5.83Y-5.09
X5.84Y-5.43
X5.85Y-5.26
X5.85Y-5.71
X5.86Y-3.32
X5.86Y-3.4
X5.86Y-4.03
X5.86Y-4.11
X5.87Y-5.22
X5.88Y-3.49
X5.88Y-5.03
X5.89Y-5.37
X5.89Y-5.49
X5.9Y-3.86
X5.9Y-4.48
X5.9Y-4.63
X5.9Y-5.57
X5.91Y-4.92
X5.94Y-3.55
X5.95Y-4.11
X5.95Y-4.34
X5.96Y-5.03
X5.97Y-3.71
X5.97Y-3.92
X5.97Y-5.49
X5.99Y-5.81
X6.0Y-4.19
X6.0Y-5.05
X6.01Y-4.44
X6.02Y-4.81
X6.05Y-5.25
X6.06Y-3.84
X6.0698Y-4.9598
X6.07Y-3.32
X6.08Y-2.84
X6.09Y-4.28
X6.1169Y-5.3599
X6.12Y-4.48
X6.13Y-3.42
X6.14Y-5.29
X6.1569Y-5.3593
X6.16Y-5.63
X6.1618Y-5.2572
X6.17Y-5.32
X6.189Y-5.191
X6.19Y-4.76
X6.1998Y-5.0302
X6.2Y-3.85
X6.2Y-5.24
X6.2102Y-5.3198
X6.24Y-3.96
X6.24Y-5.03
X6.2492Y-5.2108
X6.27Y-3.71
X6.27Y-3.92
X6.28Y-5.41
X6.3Y-3.32
X6.3Y-3.4
X6.31Y-4.03
X6.31Y-4.11
X6.31Y-4.84
X6.31Y-4.97
X6.31Y-5.03
X6.32Y-3.49
X6.32Y-5.45
X6.33Y-4.59
X6.33Y-5.81
X6.36Y-5.56
X6.37Y-5.38
X6.38Y-3.55
X6.39Y-5.03
X6.4Y-5.35
X6.41Y-5.5
X6.42Y-2.84
X6.42Y-3.86
X6.42Y-4.32
X6.44Y-5.09
X6.45Y-5.69
X6.49Y-4.84
X6.49Y-4.97
X6.49Y-5.39
X6.52Y-5.23
X6.54Y-2.83
X6.54Y-3.2
X6.54Y-3.51
X6.54Y-3.83
X6.54Y-4.11
X6.54Y-4.38
X6.57Y-5.47
X6.58Y-5.69
X6.62Y-5.66
X6.64Y-4.84
X6.69Y-5.01
X6.69Y-5.07
X6.72Y-5.63
X6.72Y-5.81
X6.82Y-5.24
X6.82Y-5.6
X6.89Y-2.83
X6.92Y-4.84
X6.92Y-5.57
X6.96Y-4.51
X7.02Y-5.54
X7.02Y-5.81
X7.06Y-4.62
X7.18Y-4.0
X7.18Y-4.3
X7.2Y-2.83
X7.23Y-3.7
X7.31Y-5.81
X7.52Y-2.83
X7.52Y-3.02
X7.52Y-3.26
X7.52Y-3.5
X7.52Y-3.8
X7.52Y-4.1
X7.52Y-4.4
X7.52Y-4.63
X7.52Y-4.84
X7.52Y-5.14
X7.52Y-5.37
X7.52Y-5.64
X7.52Y-5.81
T2
X3.79Y-2.9
X3.99Y-2.9
T3
X6.67Y-5.46
X6.67Y-5.76
X6.77Y-5.46
X6.77Y-5.76
X6.87Y-5.46
X6.87Y-5.76
X6.97Y-5.46
X6.97Y-5.76
X7.07Y-5.46
X7.07Y-5.76
T4
X7.4Y-3.4
X7.4Y-3.5
X7.4Y-3.7
X7.4Y-3.8
X7.4Y-4.0
X7.4Y-4.1
X7.4Y-4.3
X7.4Y-4.4
T5
X4.33Y-5.3
X4.33Y-5.4
X4.43Y-5.3
X4.43Y-5.4
X4.43Y-5.58
X4.43Y-5.68
X4.53Y-5.3
X4.53Y-5.4
X4.53Y-5.58
X4.53Y-5.68
X4.63Y-5.58
X4.63Y-5.68
X4.73Y-5.58
X4.73Y-5.68
X4.83Y-5.0
X4.83Y-5.1
X4.83Y-5.3
X4.83Y-5.4
X4.83Y-5.58
X4.83Y-5.68
X5.12Y-5.57
X5.12Y-5.67
X5.22Y-5.57
X5.22Y-5.67
X5.32Y-5.57
X5.32Y-5.67
X5.42Y-5.57
X5.42Y-5.67
X5.52Y-5.57
X5.52Y-5.67
X7.14Y-4.84
X7.14Y-4.94
X7.14Y-5.04
X7.14Y-5.14
T6
X4.3Y-2.9831
X4.3Y-3.18
X4.4969Y-2.9831
X4.4969Y-3.18
X4.75Y-2.9831
X4.75Y-3.18
X4.9469Y-2.9831
X4.9469Y-3.18
X5.19Y-2.9831
X5.19Y-3.18
X5.3869Y-2.9831
X5.3869Y-3.18
X5.64Y-2.9831
X5.64Y-3.18
X5.8369Y-2.9831
X5.8369Y-3.18
X6.08Y-2.9831
X6.08Y-3.18
X6.2769Y-2.9831
X6.2769Y-3.18
T0
M30
