%TF.GenerationSoftware,KiCad,Pcbnew,5.1.10-88a1d61d58~90~ubuntu20.04.1*%
%TF.CreationDate,2021-10-13T16:11:54+02:00*%
%TF.ProjectId,DI8_V1.1,4449385f-5631-42e3-912e-6b696361645f,rev?*%
%TF.SameCoordinates,Original*%
%TF.FileFunction,Soldermask,Bot*%
%TF.FilePolarity,Negative*%
%FSLAX46Y46*%
G04 Gerber Fmt 4.6, Leading zero omitted, Abs format (unit mm)*
G04 Created by KiCad (PCBNEW 5.1.10-88a1d61d58~90~ubuntu20.04.1) date 2021-10-13 16:11:54*
%MOMM*%
%LPD*%
G01*
G04 APERTURE LIST*
%ADD10O,1.700000X1.700000*%
%ADD11R,1.700000X1.700000*%
%ADD12O,1.600000X1.600000*%
%ADD13R,1.600000X1.600000*%
%ADD14C,1.950000*%
%ADD15C,1.800000*%
%ADD16R,1.800000X1.800000*%
G04 APERTURE END LIST*
D10*
%TO.C,J1*%
X124714000Y-117856000D03*
X124714000Y-115316000D03*
X124714000Y-112776000D03*
D11*
X124714000Y-110236000D03*
%TD*%
D12*
%TO.C,SW1*%
X119634000Y-125857000D03*
X129794000Y-133477000D03*
X122174000Y-125857000D03*
X127254000Y-133477000D03*
X124714000Y-125857000D03*
X124714000Y-133477000D03*
X127254000Y-125857000D03*
X122174000Y-133477000D03*
X129794000Y-125857000D03*
D13*
X119634000Y-133477000D03*
%TD*%
D14*
%TO.C,J11*%
X87042000Y-63961000D03*
X87042000Y-68961000D03*
X82042000Y-63961000D03*
X82042000Y-68961000D03*
%TD*%
%TO.C,J10*%
X109902000Y-63961000D03*
X109902000Y-68961000D03*
X104902000Y-63961000D03*
X104902000Y-68961000D03*
%TD*%
%TO.C,J9*%
X98472000Y-63961000D03*
X98472000Y-68961000D03*
X93472000Y-63961000D03*
X93472000Y-68961000D03*
%TD*%
%TO.C,J8*%
X75612000Y-63961000D03*
X75612000Y-68961000D03*
X70612000Y-63961000D03*
X70612000Y-68961000D03*
%TD*%
%TO.C,J7*%
X64182000Y-63961000D03*
X64182000Y-68961000D03*
X59182000Y-63961000D03*
X59182000Y-68961000D03*
%TD*%
D10*
%TO.C,J6*%
X88519000Y-132334000D03*
X88519000Y-129794000D03*
X91059000Y-132334000D03*
X91059000Y-129794000D03*
X93599000Y-132334000D03*
X93599000Y-129794000D03*
X96139000Y-132334000D03*
X96139000Y-129794000D03*
X98679000Y-132334000D03*
D11*
X98679000Y-129794000D03*
%TD*%
D10*
%TO.C,J5*%
X70739000Y-132334000D03*
X70739000Y-129794000D03*
X73279000Y-132334000D03*
X73279000Y-129794000D03*
X75819000Y-132334000D03*
X75819000Y-129794000D03*
X78359000Y-132334000D03*
X78359000Y-129794000D03*
X80899000Y-132334000D03*
D11*
X80899000Y-129794000D03*
%TD*%
D10*
%TO.C,J4*%
X68326000Y-124968000D03*
X68326000Y-122428000D03*
X70866000Y-124968000D03*
X70866000Y-122428000D03*
X73406000Y-124968000D03*
D11*
X73406000Y-122428000D03*
%TD*%
D10*
%TO.C,J3*%
X77216000Y-114554000D03*
D11*
X77216000Y-117094000D03*
%TD*%
D10*
%TO.C,J2*%
X77216000Y-122428000D03*
D11*
X77216000Y-124968000D03*
%TD*%
D15*
%TO.C,D8*%
X139446000Y-125730000D03*
D16*
X139446000Y-123190000D03*
%TD*%
D15*
%TO.C,D7*%
X139446000Y-118110000D03*
D16*
X139446000Y-115570000D03*
%TD*%
D15*
%TO.C,D6*%
X139446000Y-110490000D03*
D16*
X139446000Y-107950000D03*
%TD*%
D15*
%TO.C,D5*%
X139446000Y-102870000D03*
D16*
X139446000Y-100330000D03*
%TD*%
D15*
%TO.C,D4*%
X139446000Y-95250000D03*
D16*
X139446000Y-92710000D03*
%TD*%
D15*
%TO.C,D3*%
X139446000Y-87630000D03*
D16*
X139446000Y-85090000D03*
%TD*%
D15*
%TO.C,D2*%
X139446000Y-80010000D03*
D16*
X139446000Y-77470000D03*
%TD*%
D15*
%TO.C,D1*%
X139446000Y-72390000D03*
D16*
X139446000Y-69850000D03*
%TD*%
M02*
