M48
; DRILL file {KiCad 5.1.10-88a1d61d58~90~ubuntu20.04.1} date Wed Oct 13 12:10:54 2021
; FORMAT={-:-/ absolute / inch / decimal}
; #@! TF.CreationDate,2021-10-13T12:10:54+02:00
; #@! TF.GenerationSoftware,Kicad,Pcbnew,5.1.10-88a1d61d58~90~ubuntu20.04.1
FMAT,2
INCH
T1C0.0157
T2C0.0315
T3C0.0354
T4C0.0394
T5C0.0512
%
G90
G05
T1
X1.68Y-2.375
X1.68Y-3.045
X1.68Y-3.505
X1.68Y-3.9
X1.68Y-4.27
X1.69Y-4.39
X1.69Y-4.65
X1.69Y-5.01
X1.69Y-5.34
X1.835Y-2.95
X1.88Y-3.165
X1.91Y-5.29
X1.915Y-2.875
X1.915Y-3.025
X1.92Y-4.39
X2.0Y-2.95
X2.01Y-4.27
X2.1Y-4.1
X2.12Y-5.34
X2.17Y-2.95
X2.21Y-5.1
X2.21Y-5.18
X2.22Y-3.165
X2.25Y-5.1
X2.25Y-5.18
X2.255Y-2.875
X2.255Y-3.025
X2.34Y-2.95
X2.355Y-2.375
X2.36Y-4.27
X2.36Y-4.39
X2.37Y-4.54
X2.44Y-4.1
X2.47Y-4.54
X2.51Y-2.95
X2.56Y-3.165
X2.57Y-4.54
X2.595Y-2.875
X2.595Y-3.025
X2.61Y-4.79
X2.64Y-5.34
X2.66Y-4.67
X2.67Y-4.54
X2.68Y-2.95
X2.75Y-4.46
X2.77Y-4.39
X2.78Y-4.1
X2.825Y-4.27
X2.85Y-2.945
X2.895Y-2.375
X2.9Y-3.165
X2.935Y-2.875
X2.935Y-3.025
X3.02Y-2.95
X3.12Y-4.105
X3.19Y-5.34
X3.2Y-4.39
X3.265Y-2.375
X3.265Y-2.95
X3.265Y-3.335
X3.265Y-3.66
X3.265Y-4.27
X3.395Y-2.95
X3.395Y-3.335
X3.395Y-3.66
X3.395Y-4.27
X3.41Y-4.64
X3.43Y-4.48
X3.43Y-4.77
X3.43Y-4.85
X3.43Y-4.92
X3.47Y-3.165
X3.505Y-2.875
X3.505Y-3.025
X3.585Y-2.95
X3.61Y-4.49
X3.61Y-4.64
X3.63Y-4.39
X3.69Y-4.105
X3.7Y-4.85
X3.785Y-2.37
X3.81Y-3.165
X3.845Y-2.875
X3.845Y-3.025
X3.85Y-4.56
X3.86Y-4.77
X3.89Y-5.34
X3.895Y-4.27
X3.92Y-2.95
X3.96Y-4.39
X3.96Y-4.52
X3.97Y-4.915
X3.97Y-4.99
X3.98Y-4.65
X4.02Y-5.11
X4.03Y-4.105
X4.04Y-4.55
X4.05Y-4.73
X4.09Y-4.59
X4.11Y-5.05
X4.15Y-4.57
X4.16Y-3.165
X4.18Y-4.71
X4.18Y-4.92
X4.185Y-2.875
X4.185Y-3.025
X4.22Y-4.57
X4.22Y-4.73
X4.225Y-2.37
X4.26Y-4.56
X4.265Y-2.95
X4.29Y-4.52
X4.29Y-4.73
X4.31Y-4.92
X4.31Y-5.05
X4.32Y-4.55
X4.32Y-4.8557
X4.33Y-4.39
X4.33Y-4.79
X4.35Y-4.46
X4.35Y-4.92
X4.355Y-4.27
X4.36Y-4.84
X4.38Y-4.11
X4.38Y-4.79
X4.39Y-4.9
X4.41Y-4.61
X4.44Y-4.96
X4.44Y-5.0004
X4.45Y-4.4737
X4.45Y-4.59
X4.48Y-5.16
X4.5Y-3.165
X4.51Y-4.95
X4.52Y-4.76
X4.525Y-2.875
X4.525Y-3.025
X4.53Y-4.59
X4.53Y-5.34
X4.54Y-4.27
X4.55Y-5.17
X4.56Y-4.95
X4.57Y-4.39
X4.5989Y-4.8889
X4.6Y-2.95
X4.61Y-5.03
X4.63Y-4.86
X4.6452Y-4.82
X4.6629Y-4.4915
X4.695Y-4.095
X4.7022Y-4.4899
X4.7416Y-4.4915
X4.76Y-5.14
X4.8Y-2.37
X4.8Y-2.78
X4.8Y-3.02
X4.8Y-3.26
X4.8Y-3.565
X4.8Y-4.01
X4.81Y-4.49
X4.81Y-4.63
X4.81Y-4.76
X4.845Y-4.46
X4.86Y-5.11
X4.94Y-2.37
X4.94Y-2.78
X4.96Y-5.08
X5.06Y-5.05
X5.085Y-4.1
X5.085Y-4.16
X5.16Y-5.02
X5.22Y-4.8
X5.24Y-5.23
X5.25Y-5.31
X5.26Y-2.37
X5.31Y-3.53
X5.31Y-3.83
X5.31Y-4.13
X5.32Y-4.43
X5.32Y-4.73
X5.38Y-2.99
X5.38Y-3.29
X5.38Y-5.09
X5.45Y-5.31
X5.55Y-2.37
X5.55Y-2.85
X5.55Y-3.15
X5.55Y-3.45
X5.55Y-3.75
X5.55Y-4.05
X5.55Y-4.35
X5.55Y-4.65
X5.55Y-5.03
X5.55Y-5.34
T2
X4.71Y-4.955
X4.71Y-5.255
X4.81Y-4.955
X4.81Y-5.255
X4.91Y-4.955
X4.91Y-5.255
X5.01Y-4.955
X5.01Y-5.255
X5.11Y-4.955
X5.11Y-5.255
T3
X5.49Y-2.75
X5.49Y-2.85
X5.49Y-3.05
X5.49Y-3.15
X5.49Y-3.35
X5.49Y-3.45
X5.49Y-3.65
X5.49Y-3.75
X5.49Y-3.95
X5.49Y-4.05
X5.49Y-4.25
X5.49Y-4.35
X5.49Y-4.55
X5.49Y-4.65
X5.49Y-4.85
X5.49Y-4.95
T4
X2.69Y-4.82
X2.69Y-4.92
X2.785Y-5.11
X2.785Y-5.21
X2.79Y-4.82
X2.79Y-4.92
X2.885Y-5.11
X2.885Y-5.21
X2.89Y-4.82
X2.89Y-4.92
X2.985Y-5.11
X2.985Y-5.21
X3.04Y-4.51
X3.04Y-4.61
X3.04Y-4.82
X3.04Y-4.92
X3.085Y-5.11
X3.085Y-5.21
X3.185Y-5.11
X3.185Y-5.21
X3.485Y-5.11
X3.485Y-5.21
X3.585Y-5.11
X3.585Y-5.21
X3.685Y-5.11
X3.685Y-5.21
X3.785Y-5.11
X3.785Y-5.21
X3.885Y-5.11
X3.885Y-5.21
X4.91Y-4.34
X4.91Y-4.44
X4.91Y-4.54
X4.91Y-4.64
T5
X2.33Y-2.5181
X2.33Y-2.715
X2.5269Y-2.5181
X2.5269Y-2.715
X2.78Y-2.5181
X2.78Y-2.715
X2.9769Y-2.5181
X2.9769Y-2.715
X3.23Y-2.5181
X3.23Y-2.715
X3.4269Y-2.5181
X3.4269Y-2.715
X3.68Y-2.5181
X3.68Y-2.715
X3.8769Y-2.5181
X3.8769Y-2.715
X4.13Y-2.5181
X4.13Y-2.715
X4.3269Y-2.5181
X4.3269Y-2.715
T0
M30
