%TF.GenerationSoftware,KiCad,Pcbnew,5.1.10-88a1d61d58~90~ubuntu20.04.1*%
%TF.CreationDate,2021-10-13T16:19:26+02:00*%
%TF.ProjectId,XT_V1,58545f56-312e-46b6-9963-61645f706362,rev?*%
%TF.SameCoordinates,Original*%
%TF.FileFunction,Copper,L2,Inr*%
%TF.FilePolarity,Positive*%
%FSLAX46Y46*%
G04 Gerber Fmt 4.6, Leading zero omitted, Abs format (unit mm)*
G04 Created by KiCad (PCBNEW 5.1.10-88a1d61d58~90~ubuntu20.04.1) date 2021-10-13 16:19:26*
%MOMM*%
%LPD*%
G01*
G04 APERTURE LIST*
%TA.AperFunction,ComponentPad*%
%ADD10O,2.000000X1.905000*%
%TD*%
%TA.AperFunction,ComponentPad*%
%ADD11R,2.000000X1.905000*%
%TD*%
%TA.AperFunction,ComponentPad*%
%ADD12C,1.950000*%
%TD*%
%TA.AperFunction,ComponentPad*%
%ADD13O,1.600000X1.600000*%
%TD*%
%TA.AperFunction,ComponentPad*%
%ADD14R,1.600000X1.600000*%
%TD*%
%TA.AperFunction,ComponentPad*%
%ADD15O,1.700000X1.700000*%
%TD*%
%TA.AperFunction,ComponentPad*%
%ADD16R,1.700000X1.700000*%
%TD*%
%TA.AperFunction,ViaPad*%
%ADD17C,0.800000*%
%TD*%
%TA.AperFunction,Conductor*%
%ADD18C,0.250000*%
%TD*%
%TA.AperFunction,Conductor*%
%ADD19C,0.127000*%
%TD*%
%TA.AperFunction,Conductor*%
%ADD20C,0.100000*%
%TD*%
G04 APERTURE END LIST*
D10*
%TO.N,Net-(Q10-Pad3)*%
%TO.C,Q10*%
X154686000Y-82296000D03*
%TO.N,Net-(D2-Pad2)*%
X154686000Y-79756000D03*
D11*
%TO.N,Net-(C18-Pad2)*%
X154686000Y-77216000D03*
%TD*%
D10*
%TO.N,Net-(Q9-Pad3)*%
%TO.C,Q9*%
X144780000Y-82296000D03*
%TO.N,Net-(D2-Pad2)*%
X144780000Y-79756000D03*
D11*
%TO.N,Net-(C17-Pad2)*%
X144780000Y-77216000D03*
%TD*%
D10*
%TO.N,Net-(Q8-Pad3)*%
%TO.C,Q8*%
X126746000Y-82296000D03*
%TO.N,Net-(D1-Pad2)*%
X126746000Y-79756000D03*
D11*
%TO.N,Net-(C15-Pad2)*%
X126746000Y-77216000D03*
%TD*%
D10*
%TO.N,Net-(Q6-Pad3)*%
%TO.C,Q6*%
X115316000Y-82296000D03*
%TO.N,Net-(D1-Pad2)*%
X115316000Y-79756000D03*
D11*
%TO.N,Net-(C16-Pad2)*%
X115316000Y-77216000D03*
%TD*%
D12*
%TO.N,Net-(C18-Pad2)*%
%TO.C,J10*%
X154606000Y-63580000D03*
X154606000Y-68580000D03*
%TO.N,Net-(C17-Pad2)*%
X149606000Y-63580000D03*
X149606000Y-68580000D03*
%TD*%
%TO.N,Net-(J9-Pad3)*%
%TO.C,J9*%
X143176000Y-63580000D03*
X143176000Y-68580000D03*
%TO.N,Net-(D2-Pad2)*%
X138176000Y-63580000D03*
X138176000Y-68580000D03*
%TD*%
%TO.N,Net-(C15-Pad2)*%
%TO.C,J8*%
X120316000Y-63580000D03*
X120316000Y-68580000D03*
%TO.N,Net-(C16-Pad2)*%
X115316000Y-63580000D03*
X115316000Y-68580000D03*
%TD*%
%TO.N,Net-(J7-Pad3)*%
%TO.C,J7*%
X131746000Y-63580000D03*
X131746000Y-68580000D03*
%TO.N,Net-(D1-Pad2)*%
X126746000Y-63580000D03*
X126746000Y-68580000D03*
%TD*%
D13*
%TO.N,GND*%
%TO.C,SW1*%
X175768000Y-125984000D03*
%TO.N,Net-(R11-Pad1)*%
X185928000Y-133604000D03*
%TO.N,GND*%
X178308000Y-125984000D03*
%TO.N,Net-(R10-Pad1)*%
X183388000Y-133604000D03*
%TO.N,GND*%
X180848000Y-125984000D03*
%TO.N,Net-(R9-Pad1)*%
X180848000Y-133604000D03*
%TO.N,GND*%
X183388000Y-125984000D03*
%TO.N,Net-(R8-Pad1)*%
X178308000Y-133604000D03*
%TO.N,GND*%
X185928000Y-125984000D03*
D14*
%TO.N,Net-(R7-Pad1)*%
X175768000Y-133604000D03*
%TD*%
D15*
%TO.N,BUS-*%
%TO.C,J6*%
X136652000Y-131826000D03*
%TO.N,BUS+*%
X136652000Y-129286000D03*
%TO.N,GND*%
X139192000Y-131826000D03*
X139192000Y-129286000D03*
X141732000Y-131826000D03*
X141732000Y-129286000D03*
%TO.N,VCC*%
X144272000Y-131826000D03*
X144272000Y-129286000D03*
X146812000Y-131826000D03*
D16*
X146812000Y-129286000D03*
%TD*%
D15*
%TO.N,BUS-*%
%TO.C,J5*%
X118872000Y-131826000D03*
%TO.N,BUS+*%
X118872000Y-129286000D03*
%TO.N,GND*%
X121412000Y-131826000D03*
X121412000Y-129286000D03*
X123952000Y-131826000D03*
X123952000Y-129286000D03*
%TO.N,VCC*%
X126492000Y-131826000D03*
X126492000Y-129286000D03*
X129032000Y-131826000D03*
D16*
X129032000Y-129286000D03*
%TD*%
D15*
%TO.N,Net-(J4-Pad6)*%
%TO.C,J4*%
X116332000Y-124206000D03*
%TO.N,Net-(J3-Pad2)*%
X116332000Y-121666000D03*
%TO.N,BUS+*%
X118872000Y-124206000D03*
%TO.N,BUS-*%
X118872000Y-121666000D03*
%TO.N,Net-(J4-Pad2)*%
X121412000Y-124206000D03*
D16*
%TO.N,Net-(J2-Pad2)*%
X121412000Y-121666000D03*
%TD*%
D15*
%TO.N,Net-(J3-Pad2)*%
%TO.C,J3*%
X131064000Y-114300000D03*
D16*
%TO.N,Net-(J3-Pad1)*%
X131064000Y-116840000D03*
%TD*%
D15*
%TO.N,Net-(J2-Pad2)*%
%TO.C,J2*%
X131064000Y-122428000D03*
D16*
%TO.N,Net-(J2-Pad1)*%
X131064000Y-124968000D03*
%TD*%
D15*
%TO.N,GND*%
%TO.C,J1*%
X187706000Y-117856000D03*
%TO.N,SWCLK*%
X187706000Y-115316000D03*
%TO.N,SWIO*%
X187706000Y-112776000D03*
D16*
%TO.N,+3V3*%
X187706000Y-110236000D03*
%TD*%
D17*
%TO.N,GND*%
X142494000Y-119380000D03*
X148336000Y-124714000D03*
X142494000Y-124206000D03*
X140970000Y-113538000D03*
X168910000Y-115570000D03*
X171450000Y-120650000D03*
X171450000Y-117602000D03*
X167640000Y-114046000D03*
X167640000Y-117094000D03*
X169418000Y-127762000D03*
X168148000Y-129286000D03*
X159512000Y-130302000D03*
X161544000Y-130302000D03*
X148844000Y-127254000D03*
X150368000Y-125730000D03*
X101600000Y-125730000D03*
X100076000Y-127254000D03*
X101600000Y-129032000D03*
X107442000Y-124460000D03*
X112014000Y-124460000D03*
X152908000Y-115316000D03*
X154432000Y-114046000D03*
X153162000Y-124206000D03*
X154432000Y-125730000D03*
X181610000Y-110236000D03*
X182880000Y-108712000D03*
X182880000Y-111760000D03*
X99060000Y-135128000D03*
X107950000Y-135128000D03*
X116586000Y-135128000D03*
X129032000Y-135128000D03*
X136652000Y-135128000D03*
X146812000Y-135128000D03*
X156210000Y-135128000D03*
X164846000Y-135128000D03*
X175768000Y-135128000D03*
X185928000Y-135128000D03*
X196850000Y-135128000D03*
X196850000Y-127000000D03*
X196850000Y-119126000D03*
X196850000Y-112014000D03*
X196850000Y-104902000D03*
X196850000Y-99568000D03*
X185420000Y-99568000D03*
X176022000Y-99568000D03*
X164846000Y-99568000D03*
X99060000Y-99568000D03*
X99060000Y-105918000D03*
X99060000Y-113792000D03*
X99060000Y-120142000D03*
X112014000Y-112268000D03*
X109474000Y-112268000D03*
X128524000Y-114300000D03*
X128524000Y-116332000D03*
X128524000Y-122428000D03*
X128524000Y-124460000D03*
X132842000Y-127254000D03*
X132842000Y-129286000D03*
X132842000Y-131318000D03*
X167640000Y-111760000D03*
X182880000Y-113792000D03*
X161417000Y-121666000D03*
X158115000Y-111633000D03*
X148082000Y-110998000D03*
X120650000Y-99568000D03*
X111506000Y-99568000D03*
X135128000Y-99568000D03*
X149352000Y-99568000D03*
X159004000Y-99568000D03*
X150368000Y-120142000D03*
X161544000Y-108712000D03*
%TO.N,+3V3*%
X108712000Y-119634000D03*
X112268000Y-121158000D03*
X150114000Y-130810000D03*
X148336000Y-122682000D03*
X137668000Y-119380000D03*
X156464000Y-125730000D03*
X166116000Y-129286000D03*
X179578000Y-120396000D03*
X165608000Y-114046000D03*
X156464000Y-114046000D03*
X135890000Y-107442000D03*
X129540000Y-107442000D03*
%TO.N,Net-(C4-Pad1)*%
X154432000Y-127254000D03*
X160528000Y-122428000D03*
%TO.N,VCC*%
X110744000Y-130048000D03*
X149606000Y-105918000D03*
X140208000Y-105918000D03*
X134112000Y-105918000D03*
X121666000Y-105918000D03*
X111760000Y-105918000D03*
%TO.N,SWCLK*%
X158750000Y-117856000D03*
%TO.N,SWIO*%
X158750000Y-113792000D03*
%TO.N,Net-(R7-Pad1)*%
X167005000Y-124587000D03*
X174498000Y-128651000D03*
%TO.N,Net-(R8-Pad1)*%
X167005000Y-123444000D03*
X177038000Y-128651000D03*
%TO.N,Net-(R9-Pad1)*%
X167640000Y-122555000D03*
X179578000Y-128651000D03*
%TO.N,Net-(R10-Pad1)*%
X168275000Y-121666000D03*
X182118000Y-128651000D03*
%TO.N,Net-(R11-Pad1)*%
X167640000Y-120777000D03*
X184658000Y-128651000D03*
%TO.N,CH1*%
X161417000Y-110871000D03*
X117983000Y-108712000D03*
%TO.N,CH2*%
X159893000Y-110490000D03*
X128016000Y-109093000D03*
%TO.N,CH3*%
X161925000Y-120777000D03*
X146558000Y-108712000D03*
%TO.N,CH4*%
X163195000Y-120396000D03*
X156718000Y-108458000D03*
%TO.N,TXD*%
X162052000Y-117094000D03*
X147066000Y-113792000D03*
%TO.N,DIR*%
X163830000Y-114046000D03*
X147066000Y-115570000D03*
%TO.N,RXD*%
X149606000Y-117348000D03*
X163580653Y-117856008D03*
%TO.N,Net-(D1-Pad2)*%
X131826000Y-85852000D03*
X131826000Y-87122000D03*
%TO.N,Net-(D2-Pad2)*%
X138176000Y-86106000D03*
X138176000Y-87376000D03*
%TO.N,ZC1*%
X134112000Y-107442000D03*
X157480000Y-113030000D03*
%TO.N,ZC2*%
X140716000Y-107442000D03*
X154178000Y-117856000D03*
%TD*%
D18*
%TO.N,Net-(R7-Pad1)*%
X170434000Y-124587000D02*
X174498000Y-128651000D01*
X167005000Y-124587000D02*
X170434000Y-124587000D01*
%TO.N,Net-(R8-Pad1)*%
X167005000Y-123444000D02*
X175387000Y-123444000D01*
X175387000Y-123444000D02*
X177038000Y-125095000D01*
X177038000Y-125095000D02*
X177038000Y-128651000D01*
%TO.N,Net-(R9-Pad1)*%
X167640000Y-122555000D02*
X177038000Y-122555000D01*
X177038000Y-122555000D02*
X179578000Y-125095000D01*
X179578000Y-125095000D02*
X179578000Y-128651000D01*
%TO.N,Net-(R10-Pad1)*%
X168275000Y-121666000D02*
X168656000Y-122047000D01*
X168656000Y-122047000D02*
X179070000Y-122047000D01*
X179070000Y-122047000D02*
X182118000Y-125095000D01*
X182118000Y-125095000D02*
X182118000Y-128651000D01*
%TO.N,Net-(R11-Pad1)*%
X168459002Y-120777000D02*
X169221002Y-121539000D01*
X167640000Y-120777000D02*
X168459002Y-120777000D01*
X169221002Y-121539000D02*
X181102000Y-121539000D01*
X184658000Y-125095000D02*
X184658000Y-128651000D01*
X181102000Y-121539000D02*
X184658000Y-125095000D01*
%TO.N,CH1*%
X159600997Y-111270999D02*
X158438998Y-110109000D01*
X161417000Y-110871000D02*
X161017001Y-111270999D01*
X161017001Y-111270999D02*
X159600997Y-111270999D01*
X158438998Y-110109000D02*
X119380000Y-110109000D01*
X119380000Y-110109000D02*
X117983000Y-108712000D01*
%TO.N,CH2*%
X159893000Y-110490000D02*
X159004000Y-109601000D01*
X159004000Y-109601000D02*
X128524000Y-109601000D01*
X128524000Y-109601000D02*
X128016000Y-109093000D01*
%TD*%
D19*
%TO.N,GND*%
X197657501Y-135657500D02*
X98342500Y-135657500D01*
X98342500Y-131711011D01*
X117704500Y-131711011D01*
X117704500Y-131940989D01*
X117749366Y-132166547D01*
X117837375Y-132379019D01*
X117965144Y-132570238D01*
X118127762Y-132732856D01*
X118318981Y-132860625D01*
X118531453Y-132948634D01*
X118757011Y-132993500D01*
X118986989Y-132993500D01*
X119212547Y-132948634D01*
X119425019Y-132860625D01*
X119616238Y-132732856D01*
X119778856Y-132570238D01*
X119906625Y-132379019D01*
X119994634Y-132166547D01*
X120013622Y-132071086D01*
X120270511Y-132071086D01*
X120340258Y-132289070D01*
X120451192Y-132489259D01*
X120599049Y-132663959D01*
X120778147Y-132806457D01*
X120981604Y-132911276D01*
X121166915Y-132967486D01*
X121348500Y-132912271D01*
X121348500Y-131889500D01*
X121475500Y-131889500D01*
X121475500Y-132912271D01*
X121657085Y-132967486D01*
X121842396Y-132911276D01*
X122045853Y-132806457D01*
X122224951Y-132663959D01*
X122372808Y-132489259D01*
X122483742Y-132289070D01*
X122553489Y-132071086D01*
X122810511Y-132071086D01*
X122880258Y-132289070D01*
X122991192Y-132489259D01*
X123139049Y-132663959D01*
X123318147Y-132806457D01*
X123521604Y-132911276D01*
X123706915Y-132967486D01*
X123888500Y-132912271D01*
X123888500Y-131889500D01*
X124015500Y-131889500D01*
X124015500Y-132912271D01*
X124197085Y-132967486D01*
X124382396Y-132911276D01*
X124585853Y-132806457D01*
X124764951Y-132663959D01*
X124912808Y-132489259D01*
X125023742Y-132289070D01*
X125093489Y-132071086D01*
X125038400Y-131889500D01*
X124015500Y-131889500D01*
X123888500Y-131889500D01*
X122865600Y-131889500D01*
X122810511Y-132071086D01*
X122553489Y-132071086D01*
X122498400Y-131889500D01*
X121475500Y-131889500D01*
X121348500Y-131889500D01*
X120325600Y-131889500D01*
X120270511Y-132071086D01*
X120013622Y-132071086D01*
X120039500Y-131940989D01*
X120039500Y-131711011D01*
X120013623Y-131580914D01*
X120270511Y-131580914D01*
X120325600Y-131762500D01*
X121348500Y-131762500D01*
X121348500Y-130739729D01*
X121475500Y-130739729D01*
X121475500Y-131762500D01*
X122498400Y-131762500D01*
X122553489Y-131580914D01*
X122810511Y-131580914D01*
X122865600Y-131762500D01*
X123888500Y-131762500D01*
X123888500Y-130739729D01*
X124015500Y-130739729D01*
X124015500Y-131762500D01*
X125038400Y-131762500D01*
X125054020Y-131711011D01*
X125324500Y-131711011D01*
X125324500Y-131940989D01*
X125369366Y-132166547D01*
X125457375Y-132379019D01*
X125585144Y-132570238D01*
X125747762Y-132732856D01*
X125938981Y-132860625D01*
X126151453Y-132948634D01*
X126377011Y-132993500D01*
X126606989Y-132993500D01*
X126832547Y-132948634D01*
X127045019Y-132860625D01*
X127236238Y-132732856D01*
X127398856Y-132570238D01*
X127526625Y-132379019D01*
X127614634Y-132166547D01*
X127659500Y-131940989D01*
X127659500Y-131711011D01*
X127864500Y-131711011D01*
X127864500Y-131940989D01*
X127909366Y-132166547D01*
X127997375Y-132379019D01*
X128125144Y-132570238D01*
X128287762Y-132732856D01*
X128478981Y-132860625D01*
X128691453Y-132948634D01*
X128917011Y-132993500D01*
X129146989Y-132993500D01*
X129372547Y-132948634D01*
X129585019Y-132860625D01*
X129776238Y-132732856D01*
X129938856Y-132570238D01*
X130066625Y-132379019D01*
X130154634Y-132166547D01*
X130199500Y-131940989D01*
X130199500Y-131711011D01*
X135484500Y-131711011D01*
X135484500Y-131940989D01*
X135529366Y-132166547D01*
X135617375Y-132379019D01*
X135745144Y-132570238D01*
X135907762Y-132732856D01*
X136098981Y-132860625D01*
X136311453Y-132948634D01*
X136537011Y-132993500D01*
X136766989Y-132993500D01*
X136992547Y-132948634D01*
X137205019Y-132860625D01*
X137396238Y-132732856D01*
X137558856Y-132570238D01*
X137686625Y-132379019D01*
X137774634Y-132166547D01*
X137793622Y-132071086D01*
X138050511Y-132071086D01*
X138120258Y-132289070D01*
X138231192Y-132489259D01*
X138379049Y-132663959D01*
X138558147Y-132806457D01*
X138761604Y-132911276D01*
X138946915Y-132967486D01*
X139128500Y-132912271D01*
X139128500Y-131889500D01*
X139255500Y-131889500D01*
X139255500Y-132912271D01*
X139437085Y-132967486D01*
X139622396Y-132911276D01*
X139825853Y-132806457D01*
X140004951Y-132663959D01*
X140152808Y-132489259D01*
X140263742Y-132289070D01*
X140333489Y-132071086D01*
X140590511Y-132071086D01*
X140660258Y-132289070D01*
X140771192Y-132489259D01*
X140919049Y-132663959D01*
X141098147Y-132806457D01*
X141301604Y-132911276D01*
X141486915Y-132967486D01*
X141668500Y-132912271D01*
X141668500Y-131889500D01*
X141795500Y-131889500D01*
X141795500Y-132912271D01*
X141977085Y-132967486D01*
X142162396Y-132911276D01*
X142365853Y-132806457D01*
X142544951Y-132663959D01*
X142692808Y-132489259D01*
X142803742Y-132289070D01*
X142873489Y-132071086D01*
X142818400Y-131889500D01*
X141795500Y-131889500D01*
X141668500Y-131889500D01*
X140645600Y-131889500D01*
X140590511Y-132071086D01*
X140333489Y-132071086D01*
X140278400Y-131889500D01*
X139255500Y-131889500D01*
X139128500Y-131889500D01*
X138105600Y-131889500D01*
X138050511Y-132071086D01*
X137793622Y-132071086D01*
X137819500Y-131940989D01*
X137819500Y-131711011D01*
X137793623Y-131580914D01*
X138050511Y-131580914D01*
X138105600Y-131762500D01*
X139128500Y-131762500D01*
X139128500Y-130739729D01*
X139255500Y-130739729D01*
X139255500Y-131762500D01*
X140278400Y-131762500D01*
X140333489Y-131580914D01*
X140590511Y-131580914D01*
X140645600Y-131762500D01*
X141668500Y-131762500D01*
X141668500Y-130739729D01*
X141795500Y-130739729D01*
X141795500Y-131762500D01*
X142818400Y-131762500D01*
X142834020Y-131711011D01*
X143104500Y-131711011D01*
X143104500Y-131940989D01*
X143149366Y-132166547D01*
X143237375Y-132379019D01*
X143365144Y-132570238D01*
X143527762Y-132732856D01*
X143718981Y-132860625D01*
X143931453Y-132948634D01*
X144157011Y-132993500D01*
X144386989Y-132993500D01*
X144612547Y-132948634D01*
X144825019Y-132860625D01*
X145016238Y-132732856D01*
X145178856Y-132570238D01*
X145306625Y-132379019D01*
X145394634Y-132166547D01*
X145439500Y-131940989D01*
X145439500Y-131711011D01*
X145644500Y-131711011D01*
X145644500Y-131940989D01*
X145689366Y-132166547D01*
X145777375Y-132379019D01*
X145905144Y-132570238D01*
X146067762Y-132732856D01*
X146258981Y-132860625D01*
X146471453Y-132948634D01*
X146697011Y-132993500D01*
X146926989Y-132993500D01*
X147152547Y-132948634D01*
X147365019Y-132860625D01*
X147449763Y-132804000D01*
X174648964Y-132804000D01*
X174648964Y-134404000D01*
X174655094Y-134466241D01*
X174673249Y-134526090D01*
X174702731Y-134581247D01*
X174742407Y-134629593D01*
X174790753Y-134669269D01*
X174845910Y-134698751D01*
X174905759Y-134716906D01*
X174968000Y-134723036D01*
X176568000Y-134723036D01*
X176630241Y-134716906D01*
X176690090Y-134698751D01*
X176745247Y-134669269D01*
X176793593Y-134629593D01*
X176833269Y-134581247D01*
X176862751Y-134526090D01*
X176880906Y-134466241D01*
X176887036Y-134404000D01*
X176887036Y-133493936D01*
X177190500Y-133493936D01*
X177190500Y-133714064D01*
X177233445Y-133929963D01*
X177317684Y-134133335D01*
X177439981Y-134316365D01*
X177595635Y-134472019D01*
X177778665Y-134594316D01*
X177982037Y-134678555D01*
X178197936Y-134721500D01*
X178418064Y-134721500D01*
X178633963Y-134678555D01*
X178837335Y-134594316D01*
X179020365Y-134472019D01*
X179176019Y-134316365D01*
X179298316Y-134133335D01*
X179382555Y-133929963D01*
X179425500Y-133714064D01*
X179425500Y-133493936D01*
X179730500Y-133493936D01*
X179730500Y-133714064D01*
X179773445Y-133929963D01*
X179857684Y-134133335D01*
X179979981Y-134316365D01*
X180135635Y-134472019D01*
X180318665Y-134594316D01*
X180522037Y-134678555D01*
X180737936Y-134721500D01*
X180958064Y-134721500D01*
X181173963Y-134678555D01*
X181377335Y-134594316D01*
X181560365Y-134472019D01*
X181716019Y-134316365D01*
X181838316Y-134133335D01*
X181922555Y-133929963D01*
X181965500Y-133714064D01*
X181965500Y-133493936D01*
X182270500Y-133493936D01*
X182270500Y-133714064D01*
X182313445Y-133929963D01*
X182397684Y-134133335D01*
X182519981Y-134316365D01*
X182675635Y-134472019D01*
X182858665Y-134594316D01*
X183062037Y-134678555D01*
X183277936Y-134721500D01*
X183498064Y-134721500D01*
X183713963Y-134678555D01*
X183917335Y-134594316D01*
X184100365Y-134472019D01*
X184256019Y-134316365D01*
X184378316Y-134133335D01*
X184462555Y-133929963D01*
X184505500Y-133714064D01*
X184505500Y-133493936D01*
X184810500Y-133493936D01*
X184810500Y-133714064D01*
X184853445Y-133929963D01*
X184937684Y-134133335D01*
X185059981Y-134316365D01*
X185215635Y-134472019D01*
X185398665Y-134594316D01*
X185602037Y-134678555D01*
X185817936Y-134721500D01*
X186038064Y-134721500D01*
X186253963Y-134678555D01*
X186457335Y-134594316D01*
X186640365Y-134472019D01*
X186796019Y-134316365D01*
X186918316Y-134133335D01*
X187002555Y-133929963D01*
X187045500Y-133714064D01*
X187045500Y-133493936D01*
X187002555Y-133278037D01*
X186918316Y-133074665D01*
X186796019Y-132891635D01*
X186640365Y-132735981D01*
X186457335Y-132613684D01*
X186253963Y-132529445D01*
X186038064Y-132486500D01*
X185817936Y-132486500D01*
X185602037Y-132529445D01*
X185398665Y-132613684D01*
X185215635Y-132735981D01*
X185059981Y-132891635D01*
X184937684Y-133074665D01*
X184853445Y-133278037D01*
X184810500Y-133493936D01*
X184505500Y-133493936D01*
X184462555Y-133278037D01*
X184378316Y-133074665D01*
X184256019Y-132891635D01*
X184100365Y-132735981D01*
X183917335Y-132613684D01*
X183713963Y-132529445D01*
X183498064Y-132486500D01*
X183277936Y-132486500D01*
X183062037Y-132529445D01*
X182858665Y-132613684D01*
X182675635Y-132735981D01*
X182519981Y-132891635D01*
X182397684Y-133074665D01*
X182313445Y-133278037D01*
X182270500Y-133493936D01*
X181965500Y-133493936D01*
X181922555Y-133278037D01*
X181838316Y-133074665D01*
X181716019Y-132891635D01*
X181560365Y-132735981D01*
X181377335Y-132613684D01*
X181173963Y-132529445D01*
X180958064Y-132486500D01*
X180737936Y-132486500D01*
X180522037Y-132529445D01*
X180318665Y-132613684D01*
X180135635Y-132735981D01*
X179979981Y-132891635D01*
X179857684Y-133074665D01*
X179773445Y-133278037D01*
X179730500Y-133493936D01*
X179425500Y-133493936D01*
X179382555Y-133278037D01*
X179298316Y-133074665D01*
X179176019Y-132891635D01*
X179020365Y-132735981D01*
X178837335Y-132613684D01*
X178633963Y-132529445D01*
X178418064Y-132486500D01*
X178197936Y-132486500D01*
X177982037Y-132529445D01*
X177778665Y-132613684D01*
X177595635Y-132735981D01*
X177439981Y-132891635D01*
X177317684Y-133074665D01*
X177233445Y-133278037D01*
X177190500Y-133493936D01*
X176887036Y-133493936D01*
X176887036Y-132804000D01*
X176880906Y-132741759D01*
X176862751Y-132681910D01*
X176833269Y-132626753D01*
X176793593Y-132578407D01*
X176745247Y-132538731D01*
X176690090Y-132509249D01*
X176630241Y-132491094D01*
X176568000Y-132484964D01*
X174968000Y-132484964D01*
X174905759Y-132491094D01*
X174845910Y-132509249D01*
X174790753Y-132538731D01*
X174742407Y-132578407D01*
X174702731Y-132626753D01*
X174673249Y-132681910D01*
X174655094Y-132741759D01*
X174648964Y-132804000D01*
X147449763Y-132804000D01*
X147556238Y-132732856D01*
X147718856Y-132570238D01*
X147846625Y-132379019D01*
X147934634Y-132166547D01*
X147979500Y-131940989D01*
X147979500Y-131711011D01*
X147934634Y-131485453D01*
X147846625Y-131272981D01*
X147718856Y-131081762D01*
X147556238Y-130919144D01*
X147365019Y-130791375D01*
X147239377Y-130739332D01*
X149396500Y-130739332D01*
X149396500Y-130880668D01*
X149424073Y-131019287D01*
X149478159Y-131149864D01*
X149556681Y-131267380D01*
X149656620Y-131367319D01*
X149774136Y-131445841D01*
X149904713Y-131499927D01*
X150043332Y-131527500D01*
X150184668Y-131527500D01*
X150323287Y-131499927D01*
X150453864Y-131445841D01*
X150571380Y-131367319D01*
X150671319Y-131267380D01*
X150749841Y-131149864D01*
X150803927Y-131019287D01*
X150831500Y-130880668D01*
X150831500Y-130739332D01*
X150803927Y-130600713D01*
X150749841Y-130470136D01*
X150671319Y-130352620D01*
X150571380Y-130252681D01*
X150453864Y-130174159D01*
X150323287Y-130120073D01*
X150184668Y-130092500D01*
X150043332Y-130092500D01*
X149904713Y-130120073D01*
X149774136Y-130174159D01*
X149656620Y-130252681D01*
X149556681Y-130352620D01*
X149478159Y-130470136D01*
X149424073Y-130600713D01*
X149396500Y-130739332D01*
X147239377Y-130739332D01*
X147152547Y-130703366D01*
X146926989Y-130658500D01*
X146697011Y-130658500D01*
X146471453Y-130703366D01*
X146258981Y-130791375D01*
X146067762Y-130919144D01*
X145905144Y-131081762D01*
X145777375Y-131272981D01*
X145689366Y-131485453D01*
X145644500Y-131711011D01*
X145439500Y-131711011D01*
X145394634Y-131485453D01*
X145306625Y-131272981D01*
X145178856Y-131081762D01*
X145016238Y-130919144D01*
X144825019Y-130791375D01*
X144612547Y-130703366D01*
X144386989Y-130658500D01*
X144157011Y-130658500D01*
X143931453Y-130703366D01*
X143718981Y-130791375D01*
X143527762Y-130919144D01*
X143365144Y-131081762D01*
X143237375Y-131272981D01*
X143149366Y-131485453D01*
X143104500Y-131711011D01*
X142834020Y-131711011D01*
X142873489Y-131580914D01*
X142803742Y-131362930D01*
X142692808Y-131162741D01*
X142544951Y-130988041D01*
X142365853Y-130845543D01*
X142162396Y-130740724D01*
X141977085Y-130684514D01*
X141795500Y-130739729D01*
X141668500Y-130739729D01*
X141486915Y-130684514D01*
X141301604Y-130740724D01*
X141098147Y-130845543D01*
X140919049Y-130988041D01*
X140771192Y-131162741D01*
X140660258Y-131362930D01*
X140590511Y-131580914D01*
X140333489Y-131580914D01*
X140263742Y-131362930D01*
X140152808Y-131162741D01*
X140004951Y-130988041D01*
X139825853Y-130845543D01*
X139622396Y-130740724D01*
X139437085Y-130684514D01*
X139255500Y-130739729D01*
X139128500Y-130739729D01*
X138946915Y-130684514D01*
X138761604Y-130740724D01*
X138558147Y-130845543D01*
X138379049Y-130988041D01*
X138231192Y-131162741D01*
X138120258Y-131362930D01*
X138050511Y-131580914D01*
X137793623Y-131580914D01*
X137774634Y-131485453D01*
X137686625Y-131272981D01*
X137558856Y-131081762D01*
X137396238Y-130919144D01*
X137205019Y-130791375D01*
X136992547Y-130703366D01*
X136766989Y-130658500D01*
X136537011Y-130658500D01*
X136311453Y-130703366D01*
X136098981Y-130791375D01*
X135907762Y-130919144D01*
X135745144Y-131081762D01*
X135617375Y-131272981D01*
X135529366Y-131485453D01*
X135484500Y-131711011D01*
X130199500Y-131711011D01*
X130154634Y-131485453D01*
X130066625Y-131272981D01*
X129938856Y-131081762D01*
X129776238Y-130919144D01*
X129585019Y-130791375D01*
X129372547Y-130703366D01*
X129146989Y-130658500D01*
X128917011Y-130658500D01*
X128691453Y-130703366D01*
X128478981Y-130791375D01*
X128287762Y-130919144D01*
X128125144Y-131081762D01*
X127997375Y-131272981D01*
X127909366Y-131485453D01*
X127864500Y-131711011D01*
X127659500Y-131711011D01*
X127614634Y-131485453D01*
X127526625Y-131272981D01*
X127398856Y-131081762D01*
X127236238Y-130919144D01*
X127045019Y-130791375D01*
X126832547Y-130703366D01*
X126606989Y-130658500D01*
X126377011Y-130658500D01*
X126151453Y-130703366D01*
X125938981Y-130791375D01*
X125747762Y-130919144D01*
X125585144Y-131081762D01*
X125457375Y-131272981D01*
X125369366Y-131485453D01*
X125324500Y-131711011D01*
X125054020Y-131711011D01*
X125093489Y-131580914D01*
X125023742Y-131362930D01*
X124912808Y-131162741D01*
X124764951Y-130988041D01*
X124585853Y-130845543D01*
X124382396Y-130740724D01*
X124197085Y-130684514D01*
X124015500Y-130739729D01*
X123888500Y-130739729D01*
X123706915Y-130684514D01*
X123521604Y-130740724D01*
X123318147Y-130845543D01*
X123139049Y-130988041D01*
X122991192Y-131162741D01*
X122880258Y-131362930D01*
X122810511Y-131580914D01*
X122553489Y-131580914D01*
X122483742Y-131362930D01*
X122372808Y-131162741D01*
X122224951Y-130988041D01*
X122045853Y-130845543D01*
X121842396Y-130740724D01*
X121657085Y-130684514D01*
X121475500Y-130739729D01*
X121348500Y-130739729D01*
X121166915Y-130684514D01*
X120981604Y-130740724D01*
X120778147Y-130845543D01*
X120599049Y-130988041D01*
X120451192Y-131162741D01*
X120340258Y-131362930D01*
X120270511Y-131580914D01*
X120013623Y-131580914D01*
X119994634Y-131485453D01*
X119906625Y-131272981D01*
X119778856Y-131081762D01*
X119616238Y-130919144D01*
X119425019Y-130791375D01*
X119212547Y-130703366D01*
X118986989Y-130658500D01*
X118757011Y-130658500D01*
X118531453Y-130703366D01*
X118318981Y-130791375D01*
X118127762Y-130919144D01*
X117965144Y-131081762D01*
X117837375Y-131272981D01*
X117749366Y-131485453D01*
X117704500Y-131711011D01*
X98342500Y-131711011D01*
X98342500Y-129977332D01*
X110026500Y-129977332D01*
X110026500Y-130118668D01*
X110054073Y-130257287D01*
X110108159Y-130387864D01*
X110186681Y-130505380D01*
X110286620Y-130605319D01*
X110404136Y-130683841D01*
X110534713Y-130737927D01*
X110673332Y-130765500D01*
X110814668Y-130765500D01*
X110953287Y-130737927D01*
X111083864Y-130683841D01*
X111201380Y-130605319D01*
X111301319Y-130505380D01*
X111379841Y-130387864D01*
X111433927Y-130257287D01*
X111461500Y-130118668D01*
X111461500Y-129977332D01*
X111433927Y-129838713D01*
X111379841Y-129708136D01*
X111301319Y-129590620D01*
X111201380Y-129490681D01*
X111083864Y-129412159D01*
X110953287Y-129358073D01*
X110814668Y-129330500D01*
X110673332Y-129330500D01*
X110534713Y-129358073D01*
X110404136Y-129412159D01*
X110286620Y-129490681D01*
X110186681Y-129590620D01*
X110108159Y-129708136D01*
X110054073Y-129838713D01*
X110026500Y-129977332D01*
X98342500Y-129977332D01*
X98342500Y-129171011D01*
X117704500Y-129171011D01*
X117704500Y-129400989D01*
X117749366Y-129626547D01*
X117837375Y-129839019D01*
X117965144Y-130030238D01*
X118127762Y-130192856D01*
X118318981Y-130320625D01*
X118531453Y-130408634D01*
X118757011Y-130453500D01*
X118986989Y-130453500D01*
X119212547Y-130408634D01*
X119425019Y-130320625D01*
X119616238Y-130192856D01*
X119778856Y-130030238D01*
X119906625Y-129839019D01*
X119994634Y-129626547D01*
X120013622Y-129531086D01*
X120270511Y-129531086D01*
X120340258Y-129749070D01*
X120451192Y-129949259D01*
X120599049Y-130123959D01*
X120778147Y-130266457D01*
X120981604Y-130371276D01*
X121166915Y-130427486D01*
X121348500Y-130372271D01*
X121348500Y-129349500D01*
X121475500Y-129349500D01*
X121475500Y-130372271D01*
X121657085Y-130427486D01*
X121842396Y-130371276D01*
X122045853Y-130266457D01*
X122224951Y-130123959D01*
X122372808Y-129949259D01*
X122483742Y-129749070D01*
X122553489Y-129531086D01*
X122810511Y-129531086D01*
X122880258Y-129749070D01*
X122991192Y-129949259D01*
X123139049Y-130123959D01*
X123318147Y-130266457D01*
X123521604Y-130371276D01*
X123706915Y-130427486D01*
X123888500Y-130372271D01*
X123888500Y-129349500D01*
X124015500Y-129349500D01*
X124015500Y-130372271D01*
X124197085Y-130427486D01*
X124382396Y-130371276D01*
X124585853Y-130266457D01*
X124764951Y-130123959D01*
X124912808Y-129949259D01*
X125023742Y-129749070D01*
X125093489Y-129531086D01*
X125038400Y-129349500D01*
X124015500Y-129349500D01*
X123888500Y-129349500D01*
X122865600Y-129349500D01*
X122810511Y-129531086D01*
X122553489Y-129531086D01*
X122498400Y-129349500D01*
X121475500Y-129349500D01*
X121348500Y-129349500D01*
X120325600Y-129349500D01*
X120270511Y-129531086D01*
X120013622Y-129531086D01*
X120039500Y-129400989D01*
X120039500Y-129171011D01*
X120013623Y-129040914D01*
X120270511Y-129040914D01*
X120325600Y-129222500D01*
X121348500Y-129222500D01*
X121348500Y-128199729D01*
X121475500Y-128199729D01*
X121475500Y-129222500D01*
X122498400Y-129222500D01*
X122553489Y-129040914D01*
X122810511Y-129040914D01*
X122865600Y-129222500D01*
X123888500Y-129222500D01*
X123888500Y-128199729D01*
X124015500Y-128199729D01*
X124015500Y-129222500D01*
X125038400Y-129222500D01*
X125054020Y-129171011D01*
X125324500Y-129171011D01*
X125324500Y-129400989D01*
X125369366Y-129626547D01*
X125457375Y-129839019D01*
X125585144Y-130030238D01*
X125747762Y-130192856D01*
X125938981Y-130320625D01*
X126151453Y-130408634D01*
X126377011Y-130453500D01*
X126606989Y-130453500D01*
X126832547Y-130408634D01*
X127045019Y-130320625D01*
X127236238Y-130192856D01*
X127398856Y-130030238D01*
X127526625Y-129839019D01*
X127614634Y-129626547D01*
X127659500Y-129400989D01*
X127659500Y-129171011D01*
X127614634Y-128945453D01*
X127526625Y-128732981D01*
X127398856Y-128541762D01*
X127293094Y-128436000D01*
X127862964Y-128436000D01*
X127862964Y-130136000D01*
X127869094Y-130198241D01*
X127887249Y-130258090D01*
X127916731Y-130313247D01*
X127956407Y-130361593D01*
X128004753Y-130401269D01*
X128059910Y-130430751D01*
X128119759Y-130448906D01*
X128182000Y-130455036D01*
X129882000Y-130455036D01*
X129944241Y-130448906D01*
X130004090Y-130430751D01*
X130059247Y-130401269D01*
X130107593Y-130361593D01*
X130147269Y-130313247D01*
X130176751Y-130258090D01*
X130194906Y-130198241D01*
X130201036Y-130136000D01*
X130201036Y-129171011D01*
X135484500Y-129171011D01*
X135484500Y-129400989D01*
X135529366Y-129626547D01*
X135617375Y-129839019D01*
X135745144Y-130030238D01*
X135907762Y-130192856D01*
X136098981Y-130320625D01*
X136311453Y-130408634D01*
X136537011Y-130453500D01*
X136766989Y-130453500D01*
X136992547Y-130408634D01*
X137205019Y-130320625D01*
X137396238Y-130192856D01*
X137558856Y-130030238D01*
X137686625Y-129839019D01*
X137774634Y-129626547D01*
X137793622Y-129531086D01*
X138050511Y-129531086D01*
X138120258Y-129749070D01*
X138231192Y-129949259D01*
X138379049Y-130123959D01*
X138558147Y-130266457D01*
X138761604Y-130371276D01*
X138946915Y-130427486D01*
X139128500Y-130372271D01*
X139128500Y-129349500D01*
X139255500Y-129349500D01*
X139255500Y-130372271D01*
X139437085Y-130427486D01*
X139622396Y-130371276D01*
X139825853Y-130266457D01*
X140004951Y-130123959D01*
X140152808Y-129949259D01*
X140263742Y-129749070D01*
X140333489Y-129531086D01*
X140590511Y-129531086D01*
X140660258Y-129749070D01*
X140771192Y-129949259D01*
X140919049Y-130123959D01*
X141098147Y-130266457D01*
X141301604Y-130371276D01*
X141486915Y-130427486D01*
X141668500Y-130372271D01*
X141668500Y-129349500D01*
X141795500Y-129349500D01*
X141795500Y-130372271D01*
X141977085Y-130427486D01*
X142162396Y-130371276D01*
X142365853Y-130266457D01*
X142544951Y-130123959D01*
X142692808Y-129949259D01*
X142803742Y-129749070D01*
X142873489Y-129531086D01*
X142818400Y-129349500D01*
X141795500Y-129349500D01*
X141668500Y-129349500D01*
X140645600Y-129349500D01*
X140590511Y-129531086D01*
X140333489Y-129531086D01*
X140278400Y-129349500D01*
X139255500Y-129349500D01*
X139128500Y-129349500D01*
X138105600Y-129349500D01*
X138050511Y-129531086D01*
X137793622Y-129531086D01*
X137819500Y-129400989D01*
X137819500Y-129171011D01*
X137793623Y-129040914D01*
X138050511Y-129040914D01*
X138105600Y-129222500D01*
X139128500Y-129222500D01*
X139128500Y-128199729D01*
X139255500Y-128199729D01*
X139255500Y-129222500D01*
X140278400Y-129222500D01*
X140333489Y-129040914D01*
X140590511Y-129040914D01*
X140645600Y-129222500D01*
X141668500Y-129222500D01*
X141668500Y-128199729D01*
X141795500Y-128199729D01*
X141795500Y-129222500D01*
X142818400Y-129222500D01*
X142834020Y-129171011D01*
X143104500Y-129171011D01*
X143104500Y-129400989D01*
X143149366Y-129626547D01*
X143237375Y-129839019D01*
X143365144Y-130030238D01*
X143527762Y-130192856D01*
X143718981Y-130320625D01*
X143931453Y-130408634D01*
X144157011Y-130453500D01*
X144386989Y-130453500D01*
X144612547Y-130408634D01*
X144825019Y-130320625D01*
X145016238Y-130192856D01*
X145178856Y-130030238D01*
X145306625Y-129839019D01*
X145394634Y-129626547D01*
X145439500Y-129400989D01*
X145439500Y-129171011D01*
X145394634Y-128945453D01*
X145306625Y-128732981D01*
X145178856Y-128541762D01*
X145073094Y-128436000D01*
X145642964Y-128436000D01*
X145642964Y-130136000D01*
X145649094Y-130198241D01*
X145667249Y-130258090D01*
X145696731Y-130313247D01*
X145736407Y-130361593D01*
X145784753Y-130401269D01*
X145839910Y-130430751D01*
X145899759Y-130448906D01*
X145962000Y-130455036D01*
X147662000Y-130455036D01*
X147724241Y-130448906D01*
X147784090Y-130430751D01*
X147839247Y-130401269D01*
X147887593Y-130361593D01*
X147927269Y-130313247D01*
X147956751Y-130258090D01*
X147974906Y-130198241D01*
X147981036Y-130136000D01*
X147981036Y-129215332D01*
X165398500Y-129215332D01*
X165398500Y-129356668D01*
X165426073Y-129495287D01*
X165480159Y-129625864D01*
X165558681Y-129743380D01*
X165658620Y-129843319D01*
X165776136Y-129921841D01*
X165906713Y-129975927D01*
X166045332Y-130003500D01*
X166186668Y-130003500D01*
X166325287Y-129975927D01*
X166455864Y-129921841D01*
X166573380Y-129843319D01*
X166673319Y-129743380D01*
X166751841Y-129625864D01*
X166805927Y-129495287D01*
X166833500Y-129356668D01*
X166833500Y-129215332D01*
X166805927Y-129076713D01*
X166751841Y-128946136D01*
X166673319Y-128828620D01*
X166573380Y-128728681D01*
X166455864Y-128650159D01*
X166325287Y-128596073D01*
X166186668Y-128568500D01*
X166045332Y-128568500D01*
X165906713Y-128596073D01*
X165776136Y-128650159D01*
X165658620Y-128728681D01*
X165558681Y-128828620D01*
X165480159Y-128946136D01*
X165426073Y-129076713D01*
X165398500Y-129215332D01*
X147981036Y-129215332D01*
X147981036Y-128436000D01*
X147974906Y-128373759D01*
X147956751Y-128313910D01*
X147927269Y-128258753D01*
X147887593Y-128210407D01*
X147839247Y-128170731D01*
X147784090Y-128141249D01*
X147724241Y-128123094D01*
X147662000Y-128116964D01*
X145962000Y-128116964D01*
X145899759Y-128123094D01*
X145839910Y-128141249D01*
X145784753Y-128170731D01*
X145736407Y-128210407D01*
X145696731Y-128258753D01*
X145667249Y-128313910D01*
X145649094Y-128373759D01*
X145642964Y-128436000D01*
X145073094Y-128436000D01*
X145016238Y-128379144D01*
X144825019Y-128251375D01*
X144612547Y-128163366D01*
X144386989Y-128118500D01*
X144157011Y-128118500D01*
X143931453Y-128163366D01*
X143718981Y-128251375D01*
X143527762Y-128379144D01*
X143365144Y-128541762D01*
X143237375Y-128732981D01*
X143149366Y-128945453D01*
X143104500Y-129171011D01*
X142834020Y-129171011D01*
X142873489Y-129040914D01*
X142803742Y-128822930D01*
X142692808Y-128622741D01*
X142544951Y-128448041D01*
X142365853Y-128305543D01*
X142162396Y-128200724D01*
X141977085Y-128144514D01*
X141795500Y-128199729D01*
X141668500Y-128199729D01*
X141486915Y-128144514D01*
X141301604Y-128200724D01*
X141098147Y-128305543D01*
X140919049Y-128448041D01*
X140771192Y-128622741D01*
X140660258Y-128822930D01*
X140590511Y-129040914D01*
X140333489Y-129040914D01*
X140263742Y-128822930D01*
X140152808Y-128622741D01*
X140004951Y-128448041D01*
X139825853Y-128305543D01*
X139622396Y-128200724D01*
X139437085Y-128144514D01*
X139255500Y-128199729D01*
X139128500Y-128199729D01*
X138946915Y-128144514D01*
X138761604Y-128200724D01*
X138558147Y-128305543D01*
X138379049Y-128448041D01*
X138231192Y-128622741D01*
X138120258Y-128822930D01*
X138050511Y-129040914D01*
X137793623Y-129040914D01*
X137774634Y-128945453D01*
X137686625Y-128732981D01*
X137558856Y-128541762D01*
X137396238Y-128379144D01*
X137205019Y-128251375D01*
X136992547Y-128163366D01*
X136766989Y-128118500D01*
X136537011Y-128118500D01*
X136311453Y-128163366D01*
X136098981Y-128251375D01*
X135907762Y-128379144D01*
X135745144Y-128541762D01*
X135617375Y-128732981D01*
X135529366Y-128945453D01*
X135484500Y-129171011D01*
X130201036Y-129171011D01*
X130201036Y-128436000D01*
X130194906Y-128373759D01*
X130176751Y-128313910D01*
X130147269Y-128258753D01*
X130107593Y-128210407D01*
X130059247Y-128170731D01*
X130004090Y-128141249D01*
X129944241Y-128123094D01*
X129882000Y-128116964D01*
X128182000Y-128116964D01*
X128119759Y-128123094D01*
X128059910Y-128141249D01*
X128004753Y-128170731D01*
X127956407Y-128210407D01*
X127916731Y-128258753D01*
X127887249Y-128313910D01*
X127869094Y-128373759D01*
X127862964Y-128436000D01*
X127293094Y-128436000D01*
X127236238Y-128379144D01*
X127045019Y-128251375D01*
X126832547Y-128163366D01*
X126606989Y-128118500D01*
X126377011Y-128118500D01*
X126151453Y-128163366D01*
X125938981Y-128251375D01*
X125747762Y-128379144D01*
X125585144Y-128541762D01*
X125457375Y-128732981D01*
X125369366Y-128945453D01*
X125324500Y-129171011D01*
X125054020Y-129171011D01*
X125093489Y-129040914D01*
X125023742Y-128822930D01*
X124912808Y-128622741D01*
X124764951Y-128448041D01*
X124585853Y-128305543D01*
X124382396Y-128200724D01*
X124197085Y-128144514D01*
X124015500Y-128199729D01*
X123888500Y-128199729D01*
X123706915Y-128144514D01*
X123521604Y-128200724D01*
X123318147Y-128305543D01*
X123139049Y-128448041D01*
X122991192Y-128622741D01*
X122880258Y-128822930D01*
X122810511Y-129040914D01*
X122553489Y-129040914D01*
X122483742Y-128822930D01*
X122372808Y-128622741D01*
X122224951Y-128448041D01*
X122045853Y-128305543D01*
X121842396Y-128200724D01*
X121657085Y-128144514D01*
X121475500Y-128199729D01*
X121348500Y-128199729D01*
X121166915Y-128144514D01*
X120981604Y-128200724D01*
X120778147Y-128305543D01*
X120599049Y-128448041D01*
X120451192Y-128622741D01*
X120340258Y-128822930D01*
X120270511Y-129040914D01*
X120013623Y-129040914D01*
X119994634Y-128945453D01*
X119906625Y-128732981D01*
X119778856Y-128541762D01*
X119616238Y-128379144D01*
X119425019Y-128251375D01*
X119212547Y-128163366D01*
X118986989Y-128118500D01*
X118757011Y-128118500D01*
X118531453Y-128163366D01*
X118318981Y-128251375D01*
X118127762Y-128379144D01*
X117965144Y-128541762D01*
X117837375Y-128732981D01*
X117749366Y-128945453D01*
X117704500Y-129171011D01*
X98342500Y-129171011D01*
X98342500Y-127183332D01*
X153714500Y-127183332D01*
X153714500Y-127324668D01*
X153742073Y-127463287D01*
X153796159Y-127593864D01*
X153874681Y-127711380D01*
X153974620Y-127811319D01*
X154092136Y-127889841D01*
X154222713Y-127943927D01*
X154361332Y-127971500D01*
X154502668Y-127971500D01*
X154641287Y-127943927D01*
X154771864Y-127889841D01*
X154889380Y-127811319D01*
X154989319Y-127711380D01*
X155067841Y-127593864D01*
X155121927Y-127463287D01*
X155149500Y-127324668D01*
X155149500Y-127183332D01*
X155121927Y-127044713D01*
X155067841Y-126914136D01*
X154989319Y-126796620D01*
X154889380Y-126696681D01*
X154771864Y-126618159D01*
X154641287Y-126564073D01*
X154502668Y-126536500D01*
X154361332Y-126536500D01*
X154222713Y-126564073D01*
X154092136Y-126618159D01*
X153974620Y-126696681D01*
X153874681Y-126796620D01*
X153796159Y-126914136D01*
X153742073Y-127044713D01*
X153714500Y-127183332D01*
X98342500Y-127183332D01*
X98342500Y-124091011D01*
X115164500Y-124091011D01*
X115164500Y-124320989D01*
X115209366Y-124546547D01*
X115297375Y-124759019D01*
X115425144Y-124950238D01*
X115587762Y-125112856D01*
X115778981Y-125240625D01*
X115991453Y-125328634D01*
X116217011Y-125373500D01*
X116446989Y-125373500D01*
X116672547Y-125328634D01*
X116885019Y-125240625D01*
X117076238Y-125112856D01*
X117238856Y-124950238D01*
X117366625Y-124759019D01*
X117454634Y-124546547D01*
X117499500Y-124320989D01*
X117499500Y-124091011D01*
X117704500Y-124091011D01*
X117704500Y-124320989D01*
X117749366Y-124546547D01*
X117837375Y-124759019D01*
X117965144Y-124950238D01*
X118127762Y-125112856D01*
X118318981Y-125240625D01*
X118531453Y-125328634D01*
X118757011Y-125373500D01*
X118986989Y-125373500D01*
X119212547Y-125328634D01*
X119425019Y-125240625D01*
X119616238Y-125112856D01*
X119778856Y-124950238D01*
X119906625Y-124759019D01*
X119994634Y-124546547D01*
X120039500Y-124320989D01*
X120039500Y-124091011D01*
X120244500Y-124091011D01*
X120244500Y-124320989D01*
X120289366Y-124546547D01*
X120377375Y-124759019D01*
X120505144Y-124950238D01*
X120667762Y-125112856D01*
X120858981Y-125240625D01*
X121071453Y-125328634D01*
X121297011Y-125373500D01*
X121526989Y-125373500D01*
X121752547Y-125328634D01*
X121965019Y-125240625D01*
X122156238Y-125112856D01*
X122318856Y-124950238D01*
X122446625Y-124759019D01*
X122534634Y-124546547D01*
X122579500Y-124320989D01*
X122579500Y-124118000D01*
X129894964Y-124118000D01*
X129894964Y-125818000D01*
X129901094Y-125880241D01*
X129919249Y-125940090D01*
X129948731Y-125995247D01*
X129988407Y-126043593D01*
X130036753Y-126083269D01*
X130091910Y-126112751D01*
X130151759Y-126130906D01*
X130214000Y-126137036D01*
X131914000Y-126137036D01*
X131976241Y-126130906D01*
X132036090Y-126112751D01*
X132091247Y-126083269D01*
X132139593Y-126043593D01*
X132179269Y-125995247D01*
X132208751Y-125940090D01*
X132226906Y-125880241D01*
X132233036Y-125818000D01*
X132233036Y-125659332D01*
X155746500Y-125659332D01*
X155746500Y-125800668D01*
X155774073Y-125939287D01*
X155828159Y-126069864D01*
X155906681Y-126187380D01*
X156006620Y-126287319D01*
X156124136Y-126365841D01*
X156254713Y-126419927D01*
X156393332Y-126447500D01*
X156534668Y-126447500D01*
X156673287Y-126419927D01*
X156803864Y-126365841D01*
X156921380Y-126287319D01*
X157021319Y-126187380D01*
X157099841Y-126069864D01*
X157153927Y-125939287D01*
X157181500Y-125800668D01*
X157181500Y-125659332D01*
X157153927Y-125520713D01*
X157099841Y-125390136D01*
X157021319Y-125272620D01*
X156921380Y-125172681D01*
X156803864Y-125094159D01*
X156673287Y-125040073D01*
X156534668Y-125012500D01*
X156393332Y-125012500D01*
X156254713Y-125040073D01*
X156124136Y-125094159D01*
X156006620Y-125172681D01*
X155906681Y-125272620D01*
X155828159Y-125390136D01*
X155774073Y-125520713D01*
X155746500Y-125659332D01*
X132233036Y-125659332D01*
X132233036Y-124118000D01*
X132226906Y-124055759D01*
X132208751Y-123995910D01*
X132179269Y-123940753D01*
X132139593Y-123892407D01*
X132091247Y-123852731D01*
X132036090Y-123823249D01*
X131976241Y-123805094D01*
X131914000Y-123798964D01*
X130214000Y-123798964D01*
X130151759Y-123805094D01*
X130091910Y-123823249D01*
X130036753Y-123852731D01*
X129988407Y-123892407D01*
X129948731Y-123940753D01*
X129919249Y-123995910D01*
X129901094Y-124055759D01*
X129894964Y-124118000D01*
X122579500Y-124118000D01*
X122579500Y-124091011D01*
X122534634Y-123865453D01*
X122446625Y-123652981D01*
X122318856Y-123461762D01*
X122156238Y-123299144D01*
X121965019Y-123171375D01*
X121752547Y-123083366D01*
X121526989Y-123038500D01*
X121297011Y-123038500D01*
X121071453Y-123083366D01*
X120858981Y-123171375D01*
X120667762Y-123299144D01*
X120505144Y-123461762D01*
X120377375Y-123652981D01*
X120289366Y-123865453D01*
X120244500Y-124091011D01*
X120039500Y-124091011D01*
X119994634Y-123865453D01*
X119906625Y-123652981D01*
X119778856Y-123461762D01*
X119616238Y-123299144D01*
X119425019Y-123171375D01*
X119212547Y-123083366D01*
X118986989Y-123038500D01*
X118757011Y-123038500D01*
X118531453Y-123083366D01*
X118318981Y-123171375D01*
X118127762Y-123299144D01*
X117965144Y-123461762D01*
X117837375Y-123652981D01*
X117749366Y-123865453D01*
X117704500Y-124091011D01*
X117499500Y-124091011D01*
X117454634Y-123865453D01*
X117366625Y-123652981D01*
X117238856Y-123461762D01*
X117076238Y-123299144D01*
X116885019Y-123171375D01*
X116672547Y-123083366D01*
X116446989Y-123038500D01*
X116217011Y-123038500D01*
X115991453Y-123083366D01*
X115778981Y-123171375D01*
X115587762Y-123299144D01*
X115425144Y-123461762D01*
X115297375Y-123652981D01*
X115209366Y-123865453D01*
X115164500Y-124091011D01*
X98342500Y-124091011D01*
X98342500Y-121087332D01*
X111550500Y-121087332D01*
X111550500Y-121228668D01*
X111578073Y-121367287D01*
X111632159Y-121497864D01*
X111710681Y-121615380D01*
X111810620Y-121715319D01*
X111928136Y-121793841D01*
X112058713Y-121847927D01*
X112197332Y-121875500D01*
X112338668Y-121875500D01*
X112477287Y-121847927D01*
X112607864Y-121793841D01*
X112725380Y-121715319D01*
X112825319Y-121615380D01*
X112868329Y-121551011D01*
X115164500Y-121551011D01*
X115164500Y-121780989D01*
X115209366Y-122006547D01*
X115297375Y-122219019D01*
X115425144Y-122410238D01*
X115587762Y-122572856D01*
X115778981Y-122700625D01*
X115991453Y-122788634D01*
X116217011Y-122833500D01*
X116446989Y-122833500D01*
X116672547Y-122788634D01*
X116885019Y-122700625D01*
X117076238Y-122572856D01*
X117238856Y-122410238D01*
X117366625Y-122219019D01*
X117454634Y-122006547D01*
X117499500Y-121780989D01*
X117499500Y-121551011D01*
X117704500Y-121551011D01*
X117704500Y-121780989D01*
X117749366Y-122006547D01*
X117837375Y-122219019D01*
X117965144Y-122410238D01*
X118127762Y-122572856D01*
X118318981Y-122700625D01*
X118531453Y-122788634D01*
X118757011Y-122833500D01*
X118986989Y-122833500D01*
X119212547Y-122788634D01*
X119425019Y-122700625D01*
X119616238Y-122572856D01*
X119778856Y-122410238D01*
X119906625Y-122219019D01*
X119994634Y-122006547D01*
X120039500Y-121780989D01*
X120039500Y-121551011D01*
X119994634Y-121325453D01*
X119906625Y-121112981D01*
X119778856Y-120921762D01*
X119673094Y-120816000D01*
X120242964Y-120816000D01*
X120242964Y-122516000D01*
X120249094Y-122578241D01*
X120267249Y-122638090D01*
X120296731Y-122693247D01*
X120336407Y-122741593D01*
X120384753Y-122781269D01*
X120439910Y-122810751D01*
X120499759Y-122828906D01*
X120562000Y-122835036D01*
X122262000Y-122835036D01*
X122324241Y-122828906D01*
X122384090Y-122810751D01*
X122439247Y-122781269D01*
X122487593Y-122741593D01*
X122527269Y-122693247D01*
X122556751Y-122638090D01*
X122574906Y-122578241D01*
X122581036Y-122516000D01*
X122581036Y-122313011D01*
X129896500Y-122313011D01*
X129896500Y-122542989D01*
X129941366Y-122768547D01*
X130029375Y-122981019D01*
X130157144Y-123172238D01*
X130319762Y-123334856D01*
X130510981Y-123462625D01*
X130723453Y-123550634D01*
X130949011Y-123595500D01*
X131178989Y-123595500D01*
X131404547Y-123550634D01*
X131617019Y-123462625D01*
X131808238Y-123334856D01*
X131970856Y-123172238D01*
X132098625Y-122981019D01*
X132186634Y-122768547D01*
X132217905Y-122611332D01*
X147618500Y-122611332D01*
X147618500Y-122752668D01*
X147646073Y-122891287D01*
X147700159Y-123021864D01*
X147778681Y-123139380D01*
X147878620Y-123239319D01*
X147996136Y-123317841D01*
X148126713Y-123371927D01*
X148265332Y-123399500D01*
X148406668Y-123399500D01*
X148538223Y-123373332D01*
X166287500Y-123373332D01*
X166287500Y-123514668D01*
X166315073Y-123653287D01*
X166369159Y-123783864D01*
X166447681Y-123901380D01*
X166547620Y-124001319D01*
X166568843Y-124015500D01*
X166547620Y-124029681D01*
X166447681Y-124129620D01*
X166369159Y-124247136D01*
X166315073Y-124377713D01*
X166287500Y-124516332D01*
X166287500Y-124657668D01*
X166315073Y-124796287D01*
X166369159Y-124926864D01*
X166447681Y-125044380D01*
X166547620Y-125144319D01*
X166665136Y-125222841D01*
X166795713Y-125276927D01*
X166934332Y-125304500D01*
X167075668Y-125304500D01*
X167214287Y-125276927D01*
X167344864Y-125222841D01*
X167462380Y-125144319D01*
X167562319Y-125044380D01*
X167572262Y-125029500D01*
X170250711Y-125029500D01*
X173783991Y-128562781D01*
X173780500Y-128580332D01*
X173780500Y-128721668D01*
X173808073Y-128860287D01*
X173862159Y-128990864D01*
X173940681Y-129108380D01*
X174040620Y-129208319D01*
X174158136Y-129286841D01*
X174288713Y-129340927D01*
X174427332Y-129368500D01*
X174568668Y-129368500D01*
X174707287Y-129340927D01*
X174837864Y-129286841D01*
X174955380Y-129208319D01*
X175055319Y-129108380D01*
X175133841Y-128990864D01*
X175187927Y-128860287D01*
X175215500Y-128721668D01*
X175215500Y-128580332D01*
X175187927Y-128441713D01*
X175133841Y-128311136D01*
X175055319Y-128193620D01*
X174955380Y-128093681D01*
X174837864Y-128015159D01*
X174707287Y-127961073D01*
X174568668Y-127933500D01*
X174427332Y-127933500D01*
X174409781Y-127936991D01*
X172694042Y-126221252D01*
X174675972Y-126221252D01*
X174743241Y-126429737D01*
X174849890Y-126621093D01*
X174991822Y-126787966D01*
X175163582Y-126923943D01*
X175358570Y-127023798D01*
X175530749Y-127076024D01*
X175704500Y-127020181D01*
X175704500Y-126047500D01*
X174731677Y-126047500D01*
X174675972Y-126221252D01*
X172694042Y-126221252D01*
X172219538Y-125746748D01*
X174675972Y-125746748D01*
X174731677Y-125920500D01*
X175704500Y-125920500D01*
X175704500Y-124947819D01*
X175530749Y-124891976D01*
X175358570Y-124944202D01*
X175163582Y-125044057D01*
X174991822Y-125180034D01*
X174849890Y-125346907D01*
X174743241Y-125538263D01*
X174675972Y-125746748D01*
X172219538Y-125746748D01*
X170762270Y-124289481D01*
X170748409Y-124272591D01*
X170681029Y-124217295D01*
X170604157Y-124176205D01*
X170520745Y-124150903D01*
X170455737Y-124144500D01*
X170455734Y-124144500D01*
X170434000Y-124142359D01*
X170412266Y-124144500D01*
X167572262Y-124144500D01*
X167562319Y-124129620D01*
X167462380Y-124029681D01*
X167441157Y-124015500D01*
X167462380Y-124001319D01*
X167562319Y-123901380D01*
X167572262Y-123886500D01*
X175203711Y-123886500D01*
X176349563Y-125032353D01*
X176177430Y-124944202D01*
X176005251Y-124891976D01*
X175831500Y-124947819D01*
X175831500Y-125920500D01*
X175851500Y-125920500D01*
X175851500Y-126047500D01*
X175831500Y-126047500D01*
X175831500Y-127020181D01*
X176005251Y-127076024D01*
X176177430Y-127023798D01*
X176372418Y-126923943D01*
X176544178Y-126787966D01*
X176595500Y-126727625D01*
X176595501Y-128083738D01*
X176580620Y-128093681D01*
X176480681Y-128193620D01*
X176402159Y-128311136D01*
X176348073Y-128441713D01*
X176320500Y-128580332D01*
X176320500Y-128721668D01*
X176348073Y-128860287D01*
X176402159Y-128990864D01*
X176480681Y-129108380D01*
X176580620Y-129208319D01*
X176698136Y-129286841D01*
X176828713Y-129340927D01*
X176967332Y-129368500D01*
X177108668Y-129368500D01*
X177247287Y-129340927D01*
X177377864Y-129286841D01*
X177495380Y-129208319D01*
X177595319Y-129108380D01*
X177673841Y-128990864D01*
X177727927Y-128860287D01*
X177755500Y-128721668D01*
X177755500Y-128580332D01*
X177727927Y-128441713D01*
X177673841Y-128311136D01*
X177595319Y-128193620D01*
X177495380Y-128093681D01*
X177480500Y-128083738D01*
X177480500Y-126727625D01*
X177531822Y-126787966D01*
X177703582Y-126923943D01*
X177898570Y-127023798D01*
X178070749Y-127076024D01*
X178244500Y-127020181D01*
X178244500Y-126047500D01*
X178224500Y-126047500D01*
X178224500Y-125920500D01*
X178244500Y-125920500D01*
X178244500Y-124947819D01*
X178070749Y-124891976D01*
X177898570Y-124944202D01*
X177703582Y-125044057D01*
X177531822Y-125180034D01*
X177480500Y-125240375D01*
X177480500Y-125116737D01*
X177482641Y-125095000D01*
X177474097Y-125008255D01*
X177448795Y-124924843D01*
X177407705Y-124847971D01*
X177366265Y-124797475D01*
X177352409Y-124780591D01*
X177335526Y-124766736D01*
X175715270Y-123146481D01*
X175701409Y-123129591D01*
X175634029Y-123074295D01*
X175557157Y-123033205D01*
X175473745Y-123007903D01*
X175408737Y-123001500D01*
X175408734Y-123001500D01*
X175387000Y-122999359D01*
X175365266Y-123001500D01*
X168204589Y-123001500D01*
X168207262Y-122997500D01*
X176854711Y-122997500D01*
X178889565Y-125032354D01*
X178717430Y-124944202D01*
X178545251Y-124891976D01*
X178371500Y-124947819D01*
X178371500Y-125920500D01*
X178391500Y-125920500D01*
X178391500Y-126047500D01*
X178371500Y-126047500D01*
X178371500Y-127020181D01*
X178545251Y-127076024D01*
X178717430Y-127023798D01*
X178912418Y-126923943D01*
X179084178Y-126787966D01*
X179135500Y-126727625D01*
X179135501Y-128083738D01*
X179120620Y-128093681D01*
X179020681Y-128193620D01*
X178942159Y-128311136D01*
X178888073Y-128441713D01*
X178860500Y-128580332D01*
X178860500Y-128721668D01*
X178888073Y-128860287D01*
X178942159Y-128990864D01*
X179020681Y-129108380D01*
X179120620Y-129208319D01*
X179238136Y-129286841D01*
X179368713Y-129340927D01*
X179507332Y-129368500D01*
X179648668Y-129368500D01*
X179787287Y-129340927D01*
X179917864Y-129286841D01*
X180035380Y-129208319D01*
X180135319Y-129108380D01*
X180213841Y-128990864D01*
X180267927Y-128860287D01*
X180295500Y-128721668D01*
X180295500Y-128580332D01*
X180267927Y-128441713D01*
X180213841Y-128311136D01*
X180135319Y-128193620D01*
X180035380Y-128093681D01*
X180020500Y-128083738D01*
X180020500Y-126727625D01*
X180071822Y-126787966D01*
X180243582Y-126923943D01*
X180438570Y-127023798D01*
X180610749Y-127076024D01*
X180784500Y-127020181D01*
X180784500Y-126047500D01*
X180764500Y-126047500D01*
X180764500Y-125920500D01*
X180784500Y-125920500D01*
X180784500Y-124947819D01*
X180610749Y-124891976D01*
X180438570Y-124944202D01*
X180243582Y-125044057D01*
X180071822Y-125180034D01*
X180020500Y-125240375D01*
X180020500Y-125116733D01*
X180022641Y-125094999D01*
X180017623Y-125044057D01*
X180014097Y-125008255D01*
X179988795Y-124924843D01*
X179947705Y-124847971D01*
X179892409Y-124780591D01*
X179875521Y-124766732D01*
X177598289Y-122489500D01*
X178886711Y-122489500D01*
X181429563Y-125032353D01*
X181257430Y-124944202D01*
X181085251Y-124891976D01*
X180911500Y-124947819D01*
X180911500Y-125920500D01*
X180931500Y-125920500D01*
X180931500Y-126047500D01*
X180911500Y-126047500D01*
X180911500Y-127020181D01*
X181085251Y-127076024D01*
X181257430Y-127023798D01*
X181452418Y-126923943D01*
X181624178Y-126787966D01*
X181675500Y-126727625D01*
X181675501Y-128083738D01*
X181660620Y-128093681D01*
X181560681Y-128193620D01*
X181482159Y-128311136D01*
X181428073Y-128441713D01*
X181400500Y-128580332D01*
X181400500Y-128721668D01*
X181428073Y-128860287D01*
X181482159Y-128990864D01*
X181560681Y-129108380D01*
X181660620Y-129208319D01*
X181778136Y-129286841D01*
X181908713Y-129340927D01*
X182047332Y-129368500D01*
X182188668Y-129368500D01*
X182327287Y-129340927D01*
X182457864Y-129286841D01*
X182575380Y-129208319D01*
X182675319Y-129108380D01*
X182753841Y-128990864D01*
X182807927Y-128860287D01*
X182835500Y-128721668D01*
X182835500Y-128580332D01*
X182807927Y-128441713D01*
X182753841Y-128311136D01*
X182675319Y-128193620D01*
X182575380Y-128093681D01*
X182560500Y-128083738D01*
X182560500Y-126727625D01*
X182611822Y-126787966D01*
X182783582Y-126923943D01*
X182978570Y-127023798D01*
X183150749Y-127076024D01*
X183324500Y-127020181D01*
X183324500Y-126047500D01*
X183304500Y-126047500D01*
X183304500Y-125920500D01*
X183324500Y-125920500D01*
X183324500Y-124947819D01*
X183150749Y-124891976D01*
X182978570Y-124944202D01*
X182783582Y-125044057D01*
X182611822Y-125180034D01*
X182560500Y-125240375D01*
X182560500Y-125116734D01*
X182562641Y-125095000D01*
X182557623Y-125044057D01*
X182554097Y-125008255D01*
X182528795Y-124924843D01*
X182511227Y-124891976D01*
X182487705Y-124847970D01*
X182446265Y-124797475D01*
X182432409Y-124780591D01*
X182415526Y-124766736D01*
X179630289Y-121981500D01*
X180918711Y-121981500D01*
X183969565Y-125032354D01*
X183797430Y-124944202D01*
X183625251Y-124891976D01*
X183451500Y-124947819D01*
X183451500Y-125920500D01*
X183471500Y-125920500D01*
X183471500Y-126047500D01*
X183451500Y-126047500D01*
X183451500Y-127020181D01*
X183625251Y-127076024D01*
X183797430Y-127023798D01*
X183992418Y-126923943D01*
X184164178Y-126787966D01*
X184215500Y-126727625D01*
X184215501Y-128083738D01*
X184200620Y-128093681D01*
X184100681Y-128193620D01*
X184022159Y-128311136D01*
X183968073Y-128441713D01*
X183940500Y-128580332D01*
X183940500Y-128721668D01*
X183968073Y-128860287D01*
X184022159Y-128990864D01*
X184100681Y-129108380D01*
X184200620Y-129208319D01*
X184318136Y-129286841D01*
X184448713Y-129340927D01*
X184587332Y-129368500D01*
X184728668Y-129368500D01*
X184867287Y-129340927D01*
X184997864Y-129286841D01*
X185115380Y-129208319D01*
X185215319Y-129108380D01*
X185293841Y-128990864D01*
X185347927Y-128860287D01*
X185375500Y-128721668D01*
X185375500Y-128580332D01*
X185347927Y-128441713D01*
X185293841Y-128311136D01*
X185215319Y-128193620D01*
X185115380Y-128093681D01*
X185100500Y-128083738D01*
X185100500Y-126727625D01*
X185151822Y-126787966D01*
X185323582Y-126923943D01*
X185518570Y-127023798D01*
X185690749Y-127076024D01*
X185864500Y-127020181D01*
X185864500Y-126047500D01*
X185991500Y-126047500D01*
X185991500Y-127020181D01*
X186165251Y-127076024D01*
X186337430Y-127023798D01*
X186532418Y-126923943D01*
X186704178Y-126787966D01*
X186846110Y-126621093D01*
X186952759Y-126429737D01*
X187020028Y-126221252D01*
X186964323Y-126047500D01*
X185991500Y-126047500D01*
X185864500Y-126047500D01*
X185844500Y-126047500D01*
X185844500Y-125920500D01*
X185864500Y-125920500D01*
X185864500Y-124947819D01*
X185991500Y-124947819D01*
X185991500Y-125920500D01*
X186964323Y-125920500D01*
X187020028Y-125746748D01*
X186952759Y-125538263D01*
X186846110Y-125346907D01*
X186704178Y-125180034D01*
X186532418Y-125044057D01*
X186337430Y-124944202D01*
X186165251Y-124891976D01*
X185991500Y-124947819D01*
X185864500Y-124947819D01*
X185690749Y-124891976D01*
X185518570Y-124944202D01*
X185323582Y-125044057D01*
X185151822Y-125180034D01*
X185100500Y-125240375D01*
X185100500Y-125116733D01*
X185102641Y-125094999D01*
X185097623Y-125044057D01*
X185094097Y-125008255D01*
X185068795Y-124924843D01*
X185027705Y-124847971D01*
X184972409Y-124780591D01*
X184955521Y-124766732D01*
X181430270Y-121241481D01*
X181416409Y-121224591D01*
X181349029Y-121169295D01*
X181272157Y-121128205D01*
X181188745Y-121102903D01*
X181123737Y-121096500D01*
X181123734Y-121096500D01*
X181102000Y-121094359D01*
X181080266Y-121096500D01*
X179734133Y-121096500D01*
X179787287Y-121085927D01*
X179917864Y-121031841D01*
X180035380Y-120953319D01*
X180135319Y-120853380D01*
X180213841Y-120735864D01*
X180267927Y-120605287D01*
X180295500Y-120466668D01*
X180295500Y-120325332D01*
X180267927Y-120186713D01*
X180213841Y-120056136D01*
X180135319Y-119938620D01*
X180035380Y-119838681D01*
X179917864Y-119760159D01*
X179787287Y-119706073D01*
X179648668Y-119678500D01*
X179507332Y-119678500D01*
X179368713Y-119706073D01*
X179238136Y-119760159D01*
X179120620Y-119838681D01*
X179020681Y-119938620D01*
X178942159Y-120056136D01*
X178888073Y-120186713D01*
X178860500Y-120325332D01*
X178860500Y-120466668D01*
X178888073Y-120605287D01*
X178942159Y-120735864D01*
X179020681Y-120853380D01*
X179120620Y-120953319D01*
X179238136Y-121031841D01*
X179368713Y-121085927D01*
X179421867Y-121096500D01*
X169404292Y-121096500D01*
X168787271Y-120479480D01*
X168773411Y-120462591D01*
X168706031Y-120407295D01*
X168629159Y-120366205D01*
X168545747Y-120340903D01*
X168480739Y-120334500D01*
X168480736Y-120334500D01*
X168459002Y-120332359D01*
X168437268Y-120334500D01*
X168207262Y-120334500D01*
X168197319Y-120319620D01*
X168097380Y-120219681D01*
X167979864Y-120141159D01*
X167849287Y-120087073D01*
X167710668Y-120059500D01*
X167569332Y-120059500D01*
X167430713Y-120087073D01*
X167300136Y-120141159D01*
X167182620Y-120219681D01*
X167082681Y-120319620D01*
X167004159Y-120437136D01*
X166950073Y-120567713D01*
X166922500Y-120706332D01*
X166922500Y-120847668D01*
X166950073Y-120986287D01*
X167004159Y-121116864D01*
X167082681Y-121234380D01*
X167182620Y-121334319D01*
X167300136Y-121412841D01*
X167430713Y-121466927D01*
X167569332Y-121494500D01*
X167577557Y-121494500D01*
X167557500Y-121595332D01*
X167557500Y-121736668D01*
X167577557Y-121837500D01*
X167569332Y-121837500D01*
X167430713Y-121865073D01*
X167300136Y-121919159D01*
X167182620Y-121997681D01*
X167082681Y-122097620D01*
X167004159Y-122215136D01*
X166950073Y-122345713D01*
X166922500Y-122484332D01*
X166922500Y-122625668D01*
X166942557Y-122726500D01*
X166934332Y-122726500D01*
X166795713Y-122754073D01*
X166665136Y-122808159D01*
X166547620Y-122886681D01*
X166447681Y-122986620D01*
X166369159Y-123104136D01*
X166315073Y-123234713D01*
X166287500Y-123373332D01*
X148538223Y-123373332D01*
X148545287Y-123371927D01*
X148675864Y-123317841D01*
X148793380Y-123239319D01*
X148893319Y-123139380D01*
X148971841Y-123021864D01*
X149025927Y-122891287D01*
X149053500Y-122752668D01*
X149053500Y-122611332D01*
X149025927Y-122472713D01*
X148978136Y-122357332D01*
X159810500Y-122357332D01*
X159810500Y-122498668D01*
X159838073Y-122637287D01*
X159892159Y-122767864D01*
X159970681Y-122885380D01*
X160070620Y-122985319D01*
X160188136Y-123063841D01*
X160318713Y-123117927D01*
X160457332Y-123145500D01*
X160598668Y-123145500D01*
X160737287Y-123117927D01*
X160867864Y-123063841D01*
X160985380Y-122985319D01*
X161085319Y-122885380D01*
X161163841Y-122767864D01*
X161217927Y-122637287D01*
X161245500Y-122498668D01*
X161245500Y-122357332D01*
X161217927Y-122218713D01*
X161163841Y-122088136D01*
X161085319Y-121970620D01*
X160985380Y-121870681D01*
X160867864Y-121792159D01*
X160737287Y-121738073D01*
X160598668Y-121710500D01*
X160457332Y-121710500D01*
X160318713Y-121738073D01*
X160188136Y-121792159D01*
X160070620Y-121870681D01*
X159970681Y-121970620D01*
X159892159Y-122088136D01*
X159838073Y-122218713D01*
X159810500Y-122357332D01*
X148978136Y-122357332D01*
X148971841Y-122342136D01*
X148893319Y-122224620D01*
X148793380Y-122124681D01*
X148675864Y-122046159D01*
X148545287Y-121992073D01*
X148406668Y-121964500D01*
X148265332Y-121964500D01*
X148126713Y-121992073D01*
X147996136Y-122046159D01*
X147878620Y-122124681D01*
X147778681Y-122224620D01*
X147700159Y-122342136D01*
X147646073Y-122472713D01*
X147618500Y-122611332D01*
X132217905Y-122611332D01*
X132231500Y-122542989D01*
X132231500Y-122313011D01*
X132186634Y-122087453D01*
X132098625Y-121874981D01*
X131970856Y-121683762D01*
X131808238Y-121521144D01*
X131617019Y-121393375D01*
X131404547Y-121305366D01*
X131178989Y-121260500D01*
X130949011Y-121260500D01*
X130723453Y-121305366D01*
X130510981Y-121393375D01*
X130319762Y-121521144D01*
X130157144Y-121683762D01*
X130029375Y-121874981D01*
X129941366Y-122087453D01*
X129896500Y-122313011D01*
X122581036Y-122313011D01*
X122581036Y-120816000D01*
X122574906Y-120753759D01*
X122560520Y-120706332D01*
X161207500Y-120706332D01*
X161207500Y-120847668D01*
X161235073Y-120986287D01*
X161289159Y-121116864D01*
X161367681Y-121234380D01*
X161467620Y-121334319D01*
X161585136Y-121412841D01*
X161715713Y-121466927D01*
X161854332Y-121494500D01*
X161995668Y-121494500D01*
X162134287Y-121466927D01*
X162264864Y-121412841D01*
X162382380Y-121334319D01*
X162482319Y-121234380D01*
X162560841Y-121116864D01*
X162614927Y-120986287D01*
X162640753Y-120856452D01*
X162737620Y-120953319D01*
X162855136Y-121031841D01*
X162985713Y-121085927D01*
X163124332Y-121113500D01*
X163265668Y-121113500D01*
X163404287Y-121085927D01*
X163534864Y-121031841D01*
X163652380Y-120953319D01*
X163752319Y-120853380D01*
X163830841Y-120735864D01*
X163884927Y-120605287D01*
X163912500Y-120466668D01*
X163912500Y-120325332D01*
X163884927Y-120186713D01*
X163830841Y-120056136D01*
X163752319Y-119938620D01*
X163652380Y-119838681D01*
X163534864Y-119760159D01*
X163404287Y-119706073D01*
X163265668Y-119678500D01*
X163124332Y-119678500D01*
X162985713Y-119706073D01*
X162855136Y-119760159D01*
X162737620Y-119838681D01*
X162637681Y-119938620D01*
X162559159Y-120056136D01*
X162505073Y-120186713D01*
X162479247Y-120316548D01*
X162382380Y-120219681D01*
X162264864Y-120141159D01*
X162134287Y-120087073D01*
X161995668Y-120059500D01*
X161854332Y-120059500D01*
X161715713Y-120087073D01*
X161585136Y-120141159D01*
X161467620Y-120219681D01*
X161367681Y-120319620D01*
X161289159Y-120437136D01*
X161235073Y-120567713D01*
X161207500Y-120706332D01*
X122560520Y-120706332D01*
X122556751Y-120693910D01*
X122527269Y-120638753D01*
X122487593Y-120590407D01*
X122439247Y-120550731D01*
X122384090Y-120521249D01*
X122324241Y-120503094D01*
X122262000Y-120496964D01*
X120562000Y-120496964D01*
X120499759Y-120503094D01*
X120439910Y-120521249D01*
X120384753Y-120550731D01*
X120336407Y-120590407D01*
X120296731Y-120638753D01*
X120267249Y-120693910D01*
X120249094Y-120753759D01*
X120242964Y-120816000D01*
X119673094Y-120816000D01*
X119616238Y-120759144D01*
X119425019Y-120631375D01*
X119212547Y-120543366D01*
X118986989Y-120498500D01*
X118757011Y-120498500D01*
X118531453Y-120543366D01*
X118318981Y-120631375D01*
X118127762Y-120759144D01*
X117965144Y-120921762D01*
X117837375Y-121112981D01*
X117749366Y-121325453D01*
X117704500Y-121551011D01*
X117499500Y-121551011D01*
X117454634Y-121325453D01*
X117366625Y-121112981D01*
X117238856Y-120921762D01*
X117076238Y-120759144D01*
X116885019Y-120631375D01*
X116672547Y-120543366D01*
X116446989Y-120498500D01*
X116217011Y-120498500D01*
X115991453Y-120543366D01*
X115778981Y-120631375D01*
X115587762Y-120759144D01*
X115425144Y-120921762D01*
X115297375Y-121112981D01*
X115209366Y-121325453D01*
X115164500Y-121551011D01*
X112868329Y-121551011D01*
X112903841Y-121497864D01*
X112957927Y-121367287D01*
X112985500Y-121228668D01*
X112985500Y-121087332D01*
X112957927Y-120948713D01*
X112903841Y-120818136D01*
X112825319Y-120700620D01*
X112725380Y-120600681D01*
X112607864Y-120522159D01*
X112477287Y-120468073D01*
X112338668Y-120440500D01*
X112197332Y-120440500D01*
X112058713Y-120468073D01*
X111928136Y-120522159D01*
X111810620Y-120600681D01*
X111710681Y-120700620D01*
X111632159Y-120818136D01*
X111578073Y-120948713D01*
X111550500Y-121087332D01*
X98342500Y-121087332D01*
X98342500Y-119563332D01*
X107994500Y-119563332D01*
X107994500Y-119704668D01*
X108022073Y-119843287D01*
X108076159Y-119973864D01*
X108154681Y-120091380D01*
X108254620Y-120191319D01*
X108372136Y-120269841D01*
X108502713Y-120323927D01*
X108641332Y-120351500D01*
X108782668Y-120351500D01*
X108921287Y-120323927D01*
X109051864Y-120269841D01*
X109169380Y-120191319D01*
X109269319Y-120091380D01*
X109347841Y-119973864D01*
X109401927Y-119843287D01*
X109429500Y-119704668D01*
X109429500Y-119563332D01*
X109401927Y-119424713D01*
X109354136Y-119309332D01*
X136950500Y-119309332D01*
X136950500Y-119450668D01*
X136978073Y-119589287D01*
X137032159Y-119719864D01*
X137110681Y-119837380D01*
X137210620Y-119937319D01*
X137328136Y-120015841D01*
X137458713Y-120069927D01*
X137597332Y-120097500D01*
X137738668Y-120097500D01*
X137877287Y-120069927D01*
X138007864Y-120015841D01*
X138125380Y-119937319D01*
X138225319Y-119837380D01*
X138303841Y-119719864D01*
X138357927Y-119589287D01*
X138385500Y-119450668D01*
X138385500Y-119309332D01*
X138357927Y-119170713D01*
X138303841Y-119040136D01*
X138225319Y-118922620D01*
X138125380Y-118822681D01*
X138007864Y-118744159D01*
X137877287Y-118690073D01*
X137738668Y-118662500D01*
X137597332Y-118662500D01*
X137458713Y-118690073D01*
X137328136Y-118744159D01*
X137210620Y-118822681D01*
X137110681Y-118922620D01*
X137032159Y-119040136D01*
X136978073Y-119170713D01*
X136950500Y-119309332D01*
X109354136Y-119309332D01*
X109347841Y-119294136D01*
X109269319Y-119176620D01*
X109169380Y-119076681D01*
X109051864Y-118998159D01*
X108921287Y-118944073D01*
X108782668Y-118916500D01*
X108641332Y-118916500D01*
X108502713Y-118944073D01*
X108372136Y-118998159D01*
X108254620Y-119076681D01*
X108154681Y-119176620D01*
X108076159Y-119294136D01*
X108022073Y-119424713D01*
X107994500Y-119563332D01*
X98342500Y-119563332D01*
X98342500Y-115990000D01*
X129894964Y-115990000D01*
X129894964Y-117690000D01*
X129901094Y-117752241D01*
X129919249Y-117812090D01*
X129948731Y-117867247D01*
X129988407Y-117915593D01*
X130036753Y-117955269D01*
X130091910Y-117984751D01*
X130151759Y-118002906D01*
X130214000Y-118009036D01*
X131914000Y-118009036D01*
X131976241Y-118002906D01*
X132036090Y-117984751D01*
X132091247Y-117955269D01*
X132139593Y-117915593D01*
X132179269Y-117867247D01*
X132208751Y-117812090D01*
X132226906Y-117752241D01*
X132233036Y-117690000D01*
X132233036Y-117277332D01*
X148888500Y-117277332D01*
X148888500Y-117418668D01*
X148916073Y-117557287D01*
X148970159Y-117687864D01*
X149048681Y-117805380D01*
X149148620Y-117905319D01*
X149266136Y-117983841D01*
X149396713Y-118037927D01*
X149535332Y-118065500D01*
X149676668Y-118065500D01*
X149815287Y-118037927D01*
X149945864Y-117983841D01*
X150063380Y-117905319D01*
X150163319Y-117805380D01*
X150176714Y-117785332D01*
X153460500Y-117785332D01*
X153460500Y-117926668D01*
X153488073Y-118065287D01*
X153542159Y-118195864D01*
X153620681Y-118313380D01*
X153720620Y-118413319D01*
X153838136Y-118491841D01*
X153968713Y-118545927D01*
X154107332Y-118573500D01*
X154248668Y-118573500D01*
X154387287Y-118545927D01*
X154517864Y-118491841D01*
X154635380Y-118413319D01*
X154735319Y-118313380D01*
X154813841Y-118195864D01*
X154867927Y-118065287D01*
X154895500Y-117926668D01*
X154895500Y-117785332D01*
X158032500Y-117785332D01*
X158032500Y-117926668D01*
X158060073Y-118065287D01*
X158114159Y-118195864D01*
X158192681Y-118313380D01*
X158292620Y-118413319D01*
X158410136Y-118491841D01*
X158540713Y-118545927D01*
X158679332Y-118573500D01*
X158820668Y-118573500D01*
X158959287Y-118545927D01*
X159089864Y-118491841D01*
X159207380Y-118413319D01*
X159307319Y-118313380D01*
X159385841Y-118195864D01*
X159439927Y-118065287D01*
X159467500Y-117926668D01*
X159467500Y-117785332D01*
X159439927Y-117646713D01*
X159385841Y-117516136D01*
X159307319Y-117398620D01*
X159207380Y-117298681D01*
X159089864Y-117220159D01*
X158959287Y-117166073D01*
X158820668Y-117138500D01*
X158679332Y-117138500D01*
X158540713Y-117166073D01*
X158410136Y-117220159D01*
X158292620Y-117298681D01*
X158192681Y-117398620D01*
X158114159Y-117516136D01*
X158060073Y-117646713D01*
X158032500Y-117785332D01*
X154895500Y-117785332D01*
X154867927Y-117646713D01*
X154813841Y-117516136D01*
X154735319Y-117398620D01*
X154635380Y-117298681D01*
X154517864Y-117220159D01*
X154387287Y-117166073D01*
X154248668Y-117138500D01*
X154107332Y-117138500D01*
X153968713Y-117166073D01*
X153838136Y-117220159D01*
X153720620Y-117298681D01*
X153620681Y-117398620D01*
X153542159Y-117516136D01*
X153488073Y-117646713D01*
X153460500Y-117785332D01*
X150176714Y-117785332D01*
X150241841Y-117687864D01*
X150295927Y-117557287D01*
X150323500Y-117418668D01*
X150323500Y-117277332D01*
X150295927Y-117138713D01*
X150248136Y-117023332D01*
X161334500Y-117023332D01*
X161334500Y-117164668D01*
X161362073Y-117303287D01*
X161416159Y-117433864D01*
X161494681Y-117551380D01*
X161594620Y-117651319D01*
X161712136Y-117729841D01*
X161842713Y-117783927D01*
X161981332Y-117811500D01*
X162122668Y-117811500D01*
X162254183Y-117785340D01*
X162863153Y-117785340D01*
X162863153Y-117926676D01*
X162890726Y-118065295D01*
X162944812Y-118195872D01*
X163023334Y-118313388D01*
X163123273Y-118413327D01*
X163240789Y-118491849D01*
X163371366Y-118545935D01*
X163509985Y-118573508D01*
X163651321Y-118573508D01*
X163789940Y-118545935D01*
X163920517Y-118491849D01*
X164038033Y-118413327D01*
X164137972Y-118313388D01*
X164216494Y-118195872D01*
X164255755Y-118101085D01*
X186564514Y-118101085D01*
X186620724Y-118286396D01*
X186725543Y-118489853D01*
X186868041Y-118668951D01*
X187042741Y-118816808D01*
X187242930Y-118927742D01*
X187460914Y-118997489D01*
X187642500Y-118942400D01*
X187642500Y-117919500D01*
X187769500Y-117919500D01*
X187769500Y-118942400D01*
X187951086Y-118997489D01*
X188169070Y-118927742D01*
X188369259Y-118816808D01*
X188543959Y-118668951D01*
X188686457Y-118489853D01*
X188791276Y-118286396D01*
X188847486Y-118101085D01*
X188792271Y-117919500D01*
X187769500Y-117919500D01*
X187642500Y-117919500D01*
X186619729Y-117919500D01*
X186564514Y-118101085D01*
X164255755Y-118101085D01*
X164270580Y-118065295D01*
X164298153Y-117926676D01*
X164298153Y-117785340D01*
X164270580Y-117646721D01*
X164255749Y-117610915D01*
X186564514Y-117610915D01*
X186619729Y-117792500D01*
X187642500Y-117792500D01*
X187642500Y-116769600D01*
X187769500Y-116769600D01*
X187769500Y-117792500D01*
X188792271Y-117792500D01*
X188847486Y-117610915D01*
X188791276Y-117425604D01*
X188686457Y-117222147D01*
X188543959Y-117043049D01*
X188369259Y-116895192D01*
X188169070Y-116784258D01*
X187951086Y-116714511D01*
X187769500Y-116769600D01*
X187642500Y-116769600D01*
X187460914Y-116714511D01*
X187242930Y-116784258D01*
X187042741Y-116895192D01*
X186868041Y-117043049D01*
X186725543Y-117222147D01*
X186620724Y-117425604D01*
X186564514Y-117610915D01*
X164255749Y-117610915D01*
X164216494Y-117516144D01*
X164137972Y-117398628D01*
X164038033Y-117298689D01*
X163920517Y-117220167D01*
X163789940Y-117166081D01*
X163651321Y-117138508D01*
X163509985Y-117138508D01*
X163371366Y-117166081D01*
X163240789Y-117220167D01*
X163123273Y-117298689D01*
X163023334Y-117398628D01*
X162944812Y-117516144D01*
X162890726Y-117646721D01*
X162863153Y-117785340D01*
X162254183Y-117785340D01*
X162261287Y-117783927D01*
X162391864Y-117729841D01*
X162509380Y-117651319D01*
X162609319Y-117551380D01*
X162687841Y-117433864D01*
X162741927Y-117303287D01*
X162769500Y-117164668D01*
X162769500Y-117023332D01*
X162741927Y-116884713D01*
X162687841Y-116754136D01*
X162609319Y-116636620D01*
X162509380Y-116536681D01*
X162391864Y-116458159D01*
X162261287Y-116404073D01*
X162122668Y-116376500D01*
X161981332Y-116376500D01*
X161842713Y-116404073D01*
X161712136Y-116458159D01*
X161594620Y-116536681D01*
X161494681Y-116636620D01*
X161416159Y-116754136D01*
X161362073Y-116884713D01*
X161334500Y-117023332D01*
X150248136Y-117023332D01*
X150241841Y-117008136D01*
X150163319Y-116890620D01*
X150063380Y-116790681D01*
X149945864Y-116712159D01*
X149815287Y-116658073D01*
X149676668Y-116630500D01*
X149535332Y-116630500D01*
X149396713Y-116658073D01*
X149266136Y-116712159D01*
X149148620Y-116790681D01*
X149048681Y-116890620D01*
X148970159Y-117008136D01*
X148916073Y-117138713D01*
X148888500Y-117277332D01*
X132233036Y-117277332D01*
X132233036Y-115990000D01*
X132226906Y-115927759D01*
X132208751Y-115867910D01*
X132179269Y-115812753D01*
X132139593Y-115764407D01*
X132091247Y-115724731D01*
X132036090Y-115695249D01*
X131976241Y-115677094D01*
X131914000Y-115670964D01*
X130214000Y-115670964D01*
X130151759Y-115677094D01*
X130091910Y-115695249D01*
X130036753Y-115724731D01*
X129988407Y-115764407D01*
X129948731Y-115812753D01*
X129919249Y-115867910D01*
X129901094Y-115927759D01*
X129894964Y-115990000D01*
X98342500Y-115990000D01*
X98342500Y-115499332D01*
X146348500Y-115499332D01*
X146348500Y-115640668D01*
X146376073Y-115779287D01*
X146430159Y-115909864D01*
X146508681Y-116027380D01*
X146608620Y-116127319D01*
X146726136Y-116205841D01*
X146856713Y-116259927D01*
X146995332Y-116287500D01*
X147136668Y-116287500D01*
X147275287Y-116259927D01*
X147405864Y-116205841D01*
X147523380Y-116127319D01*
X147623319Y-116027380D01*
X147701841Y-115909864D01*
X147755927Y-115779287D01*
X147783500Y-115640668D01*
X147783500Y-115499332D01*
X147755927Y-115360713D01*
X147701841Y-115230136D01*
X147682381Y-115201011D01*
X186538500Y-115201011D01*
X186538500Y-115430989D01*
X186583366Y-115656547D01*
X186671375Y-115869019D01*
X186799144Y-116060238D01*
X186961762Y-116222856D01*
X187152981Y-116350625D01*
X187365453Y-116438634D01*
X187591011Y-116483500D01*
X187820989Y-116483500D01*
X188046547Y-116438634D01*
X188259019Y-116350625D01*
X188450238Y-116222856D01*
X188612856Y-116060238D01*
X188740625Y-115869019D01*
X188828634Y-115656547D01*
X188873500Y-115430989D01*
X188873500Y-115201011D01*
X188828634Y-114975453D01*
X188740625Y-114762981D01*
X188612856Y-114571762D01*
X188450238Y-114409144D01*
X188259019Y-114281375D01*
X188046547Y-114193366D01*
X187820989Y-114148500D01*
X187591011Y-114148500D01*
X187365453Y-114193366D01*
X187152981Y-114281375D01*
X186961762Y-114409144D01*
X186799144Y-114571762D01*
X186671375Y-114762981D01*
X186583366Y-114975453D01*
X186538500Y-115201011D01*
X147682381Y-115201011D01*
X147623319Y-115112620D01*
X147523380Y-115012681D01*
X147405864Y-114934159D01*
X147275287Y-114880073D01*
X147136668Y-114852500D01*
X146995332Y-114852500D01*
X146856713Y-114880073D01*
X146726136Y-114934159D01*
X146608620Y-115012681D01*
X146508681Y-115112620D01*
X146430159Y-115230136D01*
X146376073Y-115360713D01*
X146348500Y-115499332D01*
X98342500Y-115499332D01*
X98342500Y-114185011D01*
X129896500Y-114185011D01*
X129896500Y-114414989D01*
X129941366Y-114640547D01*
X130029375Y-114853019D01*
X130157144Y-115044238D01*
X130319762Y-115206856D01*
X130510981Y-115334625D01*
X130723453Y-115422634D01*
X130949011Y-115467500D01*
X131178989Y-115467500D01*
X131404547Y-115422634D01*
X131617019Y-115334625D01*
X131808238Y-115206856D01*
X131970856Y-115044238D01*
X132098625Y-114853019D01*
X132186634Y-114640547D01*
X132231500Y-114414989D01*
X132231500Y-114185011D01*
X132186634Y-113959453D01*
X132098625Y-113746981D01*
X132081487Y-113721332D01*
X146348500Y-113721332D01*
X146348500Y-113862668D01*
X146376073Y-114001287D01*
X146430159Y-114131864D01*
X146508681Y-114249380D01*
X146608620Y-114349319D01*
X146726136Y-114427841D01*
X146856713Y-114481927D01*
X146995332Y-114509500D01*
X147136668Y-114509500D01*
X147275287Y-114481927D01*
X147405864Y-114427841D01*
X147523380Y-114349319D01*
X147623319Y-114249380D01*
X147701841Y-114131864D01*
X147755927Y-114001287D01*
X147761089Y-113975332D01*
X155746500Y-113975332D01*
X155746500Y-114116668D01*
X155774073Y-114255287D01*
X155828159Y-114385864D01*
X155906681Y-114503380D01*
X156006620Y-114603319D01*
X156124136Y-114681841D01*
X156254713Y-114735927D01*
X156393332Y-114763500D01*
X156534668Y-114763500D01*
X156673287Y-114735927D01*
X156803864Y-114681841D01*
X156921380Y-114603319D01*
X157021319Y-114503380D01*
X157099841Y-114385864D01*
X157153927Y-114255287D01*
X157181500Y-114116668D01*
X157181500Y-113975332D01*
X157153927Y-113836713D01*
X157099841Y-113706136D01*
X157021319Y-113588620D01*
X156921380Y-113488681D01*
X156803864Y-113410159D01*
X156673287Y-113356073D01*
X156534668Y-113328500D01*
X156393332Y-113328500D01*
X156254713Y-113356073D01*
X156124136Y-113410159D01*
X156006620Y-113488681D01*
X155906681Y-113588620D01*
X155828159Y-113706136D01*
X155774073Y-113836713D01*
X155746500Y-113975332D01*
X147761089Y-113975332D01*
X147783500Y-113862668D01*
X147783500Y-113721332D01*
X147755927Y-113582713D01*
X147701841Y-113452136D01*
X147623319Y-113334620D01*
X147523380Y-113234681D01*
X147405864Y-113156159D01*
X147275287Y-113102073D01*
X147136668Y-113074500D01*
X146995332Y-113074500D01*
X146856713Y-113102073D01*
X146726136Y-113156159D01*
X146608620Y-113234681D01*
X146508681Y-113334620D01*
X146430159Y-113452136D01*
X146376073Y-113582713D01*
X146348500Y-113721332D01*
X132081487Y-113721332D01*
X131970856Y-113555762D01*
X131808238Y-113393144D01*
X131617019Y-113265375D01*
X131404547Y-113177366D01*
X131178989Y-113132500D01*
X130949011Y-113132500D01*
X130723453Y-113177366D01*
X130510981Y-113265375D01*
X130319762Y-113393144D01*
X130157144Y-113555762D01*
X130029375Y-113746981D01*
X129941366Y-113959453D01*
X129896500Y-114185011D01*
X98342500Y-114185011D01*
X98342500Y-112959332D01*
X156762500Y-112959332D01*
X156762500Y-113100668D01*
X156790073Y-113239287D01*
X156844159Y-113369864D01*
X156922681Y-113487380D01*
X157022620Y-113587319D01*
X157140136Y-113665841D01*
X157270713Y-113719927D01*
X157409332Y-113747500D01*
X157550668Y-113747500D01*
X157682223Y-113721332D01*
X158032500Y-113721332D01*
X158032500Y-113862668D01*
X158060073Y-114001287D01*
X158114159Y-114131864D01*
X158192681Y-114249380D01*
X158292620Y-114349319D01*
X158410136Y-114427841D01*
X158540713Y-114481927D01*
X158679332Y-114509500D01*
X158820668Y-114509500D01*
X158959287Y-114481927D01*
X159089864Y-114427841D01*
X159207380Y-114349319D01*
X159307319Y-114249380D01*
X159385841Y-114131864D01*
X159439927Y-114001287D01*
X159445089Y-113975332D01*
X163112500Y-113975332D01*
X163112500Y-114116668D01*
X163140073Y-114255287D01*
X163194159Y-114385864D01*
X163272681Y-114503380D01*
X163372620Y-114603319D01*
X163490136Y-114681841D01*
X163620713Y-114735927D01*
X163759332Y-114763500D01*
X163900668Y-114763500D01*
X164039287Y-114735927D01*
X164169864Y-114681841D01*
X164287380Y-114603319D01*
X164387319Y-114503380D01*
X164465841Y-114385864D01*
X164519927Y-114255287D01*
X164547500Y-114116668D01*
X164547500Y-113975332D01*
X164890500Y-113975332D01*
X164890500Y-114116668D01*
X164918073Y-114255287D01*
X164972159Y-114385864D01*
X165050681Y-114503380D01*
X165150620Y-114603319D01*
X165268136Y-114681841D01*
X165398713Y-114735927D01*
X165537332Y-114763500D01*
X165678668Y-114763500D01*
X165817287Y-114735927D01*
X165947864Y-114681841D01*
X166065380Y-114603319D01*
X166165319Y-114503380D01*
X166243841Y-114385864D01*
X166297927Y-114255287D01*
X166325500Y-114116668D01*
X166325500Y-113975332D01*
X166297927Y-113836713D01*
X166243841Y-113706136D01*
X166165319Y-113588620D01*
X166065380Y-113488681D01*
X165947864Y-113410159D01*
X165817287Y-113356073D01*
X165678668Y-113328500D01*
X165537332Y-113328500D01*
X165398713Y-113356073D01*
X165268136Y-113410159D01*
X165150620Y-113488681D01*
X165050681Y-113588620D01*
X164972159Y-113706136D01*
X164918073Y-113836713D01*
X164890500Y-113975332D01*
X164547500Y-113975332D01*
X164519927Y-113836713D01*
X164465841Y-113706136D01*
X164387319Y-113588620D01*
X164287380Y-113488681D01*
X164169864Y-113410159D01*
X164039287Y-113356073D01*
X163900668Y-113328500D01*
X163759332Y-113328500D01*
X163620713Y-113356073D01*
X163490136Y-113410159D01*
X163372620Y-113488681D01*
X163272681Y-113588620D01*
X163194159Y-113706136D01*
X163140073Y-113836713D01*
X163112500Y-113975332D01*
X159445089Y-113975332D01*
X159467500Y-113862668D01*
X159467500Y-113721332D01*
X159439927Y-113582713D01*
X159385841Y-113452136D01*
X159307319Y-113334620D01*
X159207380Y-113234681D01*
X159089864Y-113156159D01*
X158959287Y-113102073D01*
X158820668Y-113074500D01*
X158679332Y-113074500D01*
X158540713Y-113102073D01*
X158410136Y-113156159D01*
X158292620Y-113234681D01*
X158192681Y-113334620D01*
X158114159Y-113452136D01*
X158060073Y-113582713D01*
X158032500Y-113721332D01*
X157682223Y-113721332D01*
X157689287Y-113719927D01*
X157819864Y-113665841D01*
X157937380Y-113587319D01*
X158037319Y-113487380D01*
X158115841Y-113369864D01*
X158169927Y-113239287D01*
X158197500Y-113100668D01*
X158197500Y-112959332D01*
X158169927Y-112820713D01*
X158115841Y-112690136D01*
X158096381Y-112661011D01*
X186538500Y-112661011D01*
X186538500Y-112890989D01*
X186583366Y-113116547D01*
X186671375Y-113329019D01*
X186799144Y-113520238D01*
X186961762Y-113682856D01*
X187152981Y-113810625D01*
X187365453Y-113898634D01*
X187591011Y-113943500D01*
X187820989Y-113943500D01*
X188046547Y-113898634D01*
X188259019Y-113810625D01*
X188450238Y-113682856D01*
X188612856Y-113520238D01*
X188740625Y-113329019D01*
X188828634Y-113116547D01*
X188873500Y-112890989D01*
X188873500Y-112661011D01*
X188828634Y-112435453D01*
X188740625Y-112222981D01*
X188612856Y-112031762D01*
X188450238Y-111869144D01*
X188259019Y-111741375D01*
X188046547Y-111653366D01*
X187820989Y-111608500D01*
X187591011Y-111608500D01*
X187365453Y-111653366D01*
X187152981Y-111741375D01*
X186961762Y-111869144D01*
X186799144Y-112031762D01*
X186671375Y-112222981D01*
X186583366Y-112435453D01*
X186538500Y-112661011D01*
X158096381Y-112661011D01*
X158037319Y-112572620D01*
X157937380Y-112472681D01*
X157819864Y-112394159D01*
X157689287Y-112340073D01*
X157550668Y-112312500D01*
X157409332Y-112312500D01*
X157270713Y-112340073D01*
X157140136Y-112394159D01*
X157022620Y-112472681D01*
X156922681Y-112572620D01*
X156844159Y-112690136D01*
X156790073Y-112820713D01*
X156762500Y-112959332D01*
X98342500Y-112959332D01*
X98342500Y-108641332D01*
X117265500Y-108641332D01*
X117265500Y-108782668D01*
X117293073Y-108921287D01*
X117347159Y-109051864D01*
X117425681Y-109169380D01*
X117525620Y-109269319D01*
X117643136Y-109347841D01*
X117773713Y-109401927D01*
X117912332Y-109429500D01*
X118053668Y-109429500D01*
X118071220Y-109426009D01*
X119051730Y-110406519D01*
X119065591Y-110423409D01*
X119132971Y-110478705D01*
X119209843Y-110519795D01*
X119293255Y-110545097D01*
X119358263Y-110551500D01*
X119358265Y-110551500D01*
X119379999Y-110553641D01*
X119401733Y-110551500D01*
X158255709Y-110551500D01*
X159272732Y-111568524D01*
X159286588Y-111585408D01*
X159353968Y-111640704D01*
X159430840Y-111681794D01*
X159514252Y-111707096D01*
X159579260Y-111713499D01*
X159579263Y-111713499D01*
X159600997Y-111715640D01*
X159622731Y-111713499D01*
X160995267Y-111713499D01*
X161017001Y-111715640D01*
X161038735Y-111713499D01*
X161038738Y-111713499D01*
X161103746Y-111707096D01*
X161187158Y-111681794D01*
X161264030Y-111640704D01*
X161331289Y-111585508D01*
X161346332Y-111588500D01*
X161487668Y-111588500D01*
X161626287Y-111560927D01*
X161756864Y-111506841D01*
X161874380Y-111428319D01*
X161974319Y-111328380D01*
X162052841Y-111210864D01*
X162106927Y-111080287D01*
X162134500Y-110941668D01*
X162134500Y-110800332D01*
X162106927Y-110661713D01*
X162052841Y-110531136D01*
X161974319Y-110413620D01*
X161874380Y-110313681D01*
X161756864Y-110235159D01*
X161626287Y-110181073D01*
X161487668Y-110153500D01*
X161346332Y-110153500D01*
X161207713Y-110181073D01*
X161077136Y-110235159D01*
X160959620Y-110313681D01*
X160859681Y-110413620D01*
X160781159Y-110531136D01*
X160727073Y-110661713D01*
X160699500Y-110800332D01*
X160699500Y-110828499D01*
X160529406Y-110828499D01*
X160582927Y-110699287D01*
X160610500Y-110560668D01*
X160610500Y-110419332D01*
X160582927Y-110280713D01*
X160528841Y-110150136D01*
X160450319Y-110032620D01*
X160350380Y-109932681D01*
X160232864Y-109854159D01*
X160102287Y-109800073D01*
X159963668Y-109772500D01*
X159822332Y-109772500D01*
X159804781Y-109775991D01*
X159414790Y-109386000D01*
X186536964Y-109386000D01*
X186536964Y-111086000D01*
X186543094Y-111148241D01*
X186561249Y-111208090D01*
X186590731Y-111263247D01*
X186630407Y-111311593D01*
X186678753Y-111351269D01*
X186733910Y-111380751D01*
X186793759Y-111398906D01*
X186856000Y-111405036D01*
X188556000Y-111405036D01*
X188618241Y-111398906D01*
X188678090Y-111380751D01*
X188733247Y-111351269D01*
X188781593Y-111311593D01*
X188821269Y-111263247D01*
X188850751Y-111208090D01*
X188868906Y-111148241D01*
X188875036Y-111086000D01*
X188875036Y-109386000D01*
X188868906Y-109323759D01*
X188850751Y-109263910D01*
X188821269Y-109208753D01*
X188781593Y-109160407D01*
X188733247Y-109120731D01*
X188678090Y-109091249D01*
X188618241Y-109073094D01*
X188556000Y-109066964D01*
X186856000Y-109066964D01*
X186793759Y-109073094D01*
X186733910Y-109091249D01*
X186678753Y-109120731D01*
X186630407Y-109160407D01*
X186590731Y-109208753D01*
X186561249Y-109263910D01*
X186543094Y-109323759D01*
X186536964Y-109386000D01*
X159414790Y-109386000D01*
X159332269Y-109303480D01*
X159318409Y-109286591D01*
X159251029Y-109231295D01*
X159174157Y-109190205D01*
X159090745Y-109164903D01*
X159025737Y-109158500D01*
X159025734Y-109158500D01*
X159004000Y-109156359D01*
X158982266Y-109158500D01*
X156874133Y-109158500D01*
X156927287Y-109147927D01*
X157057864Y-109093841D01*
X157175380Y-109015319D01*
X157275319Y-108915380D01*
X157353841Y-108797864D01*
X157407927Y-108667287D01*
X157435500Y-108528668D01*
X157435500Y-108387332D01*
X157407927Y-108248713D01*
X157353841Y-108118136D01*
X157275319Y-108000620D01*
X157175380Y-107900681D01*
X157057864Y-107822159D01*
X156927287Y-107768073D01*
X156788668Y-107740500D01*
X156647332Y-107740500D01*
X156508713Y-107768073D01*
X156378136Y-107822159D01*
X156260620Y-107900681D01*
X156160681Y-108000620D01*
X156082159Y-108118136D01*
X156028073Y-108248713D01*
X156000500Y-108387332D01*
X156000500Y-108528668D01*
X156028073Y-108667287D01*
X156082159Y-108797864D01*
X156160681Y-108915380D01*
X156260620Y-109015319D01*
X156378136Y-109093841D01*
X156508713Y-109147927D01*
X156561867Y-109158500D01*
X147122589Y-109158500D01*
X147193841Y-109051864D01*
X147247927Y-108921287D01*
X147275500Y-108782668D01*
X147275500Y-108641332D01*
X147247927Y-108502713D01*
X147193841Y-108372136D01*
X147115319Y-108254620D01*
X147015380Y-108154681D01*
X146897864Y-108076159D01*
X146767287Y-108022073D01*
X146628668Y-107994500D01*
X146487332Y-107994500D01*
X146348713Y-108022073D01*
X146218136Y-108076159D01*
X146100620Y-108154681D01*
X146000681Y-108254620D01*
X145922159Y-108372136D01*
X145868073Y-108502713D01*
X145840500Y-108641332D01*
X145840500Y-108782668D01*
X145868073Y-108921287D01*
X145922159Y-109051864D01*
X145993411Y-109158500D01*
X128733500Y-109158500D01*
X128733500Y-109022332D01*
X128705927Y-108883713D01*
X128651841Y-108753136D01*
X128573319Y-108635620D01*
X128473380Y-108535681D01*
X128355864Y-108457159D01*
X128225287Y-108403073D01*
X128086668Y-108375500D01*
X127945332Y-108375500D01*
X127806713Y-108403073D01*
X127676136Y-108457159D01*
X127558620Y-108535681D01*
X127458681Y-108635620D01*
X127380159Y-108753136D01*
X127326073Y-108883713D01*
X127298500Y-109022332D01*
X127298500Y-109163668D01*
X127326073Y-109302287D01*
X127380159Y-109432864D01*
X127458681Y-109550380D01*
X127558620Y-109650319D01*
X127582836Y-109666500D01*
X119563289Y-109666500D01*
X118697009Y-108800220D01*
X118700500Y-108782668D01*
X118700500Y-108641332D01*
X118672927Y-108502713D01*
X118618841Y-108372136D01*
X118540319Y-108254620D01*
X118440380Y-108154681D01*
X118322864Y-108076159D01*
X118192287Y-108022073D01*
X118053668Y-107994500D01*
X117912332Y-107994500D01*
X117773713Y-108022073D01*
X117643136Y-108076159D01*
X117525620Y-108154681D01*
X117425681Y-108254620D01*
X117347159Y-108372136D01*
X117293073Y-108502713D01*
X117265500Y-108641332D01*
X98342500Y-108641332D01*
X98342500Y-107371332D01*
X128822500Y-107371332D01*
X128822500Y-107512668D01*
X128850073Y-107651287D01*
X128904159Y-107781864D01*
X128982681Y-107899380D01*
X129082620Y-107999319D01*
X129200136Y-108077841D01*
X129330713Y-108131927D01*
X129469332Y-108159500D01*
X129610668Y-108159500D01*
X129749287Y-108131927D01*
X129879864Y-108077841D01*
X129997380Y-107999319D01*
X130097319Y-107899380D01*
X130175841Y-107781864D01*
X130229927Y-107651287D01*
X130257500Y-107512668D01*
X130257500Y-107371332D01*
X133394500Y-107371332D01*
X133394500Y-107512668D01*
X133422073Y-107651287D01*
X133476159Y-107781864D01*
X133554681Y-107899380D01*
X133654620Y-107999319D01*
X133772136Y-108077841D01*
X133902713Y-108131927D01*
X134041332Y-108159500D01*
X134182668Y-108159500D01*
X134321287Y-108131927D01*
X134451864Y-108077841D01*
X134569380Y-107999319D01*
X134669319Y-107899380D01*
X134747841Y-107781864D01*
X134801927Y-107651287D01*
X134829500Y-107512668D01*
X134829500Y-107371332D01*
X135172500Y-107371332D01*
X135172500Y-107512668D01*
X135200073Y-107651287D01*
X135254159Y-107781864D01*
X135332681Y-107899380D01*
X135432620Y-107999319D01*
X135550136Y-108077841D01*
X135680713Y-108131927D01*
X135819332Y-108159500D01*
X135960668Y-108159500D01*
X136099287Y-108131927D01*
X136229864Y-108077841D01*
X136347380Y-107999319D01*
X136447319Y-107899380D01*
X136525841Y-107781864D01*
X136579927Y-107651287D01*
X136607500Y-107512668D01*
X136607500Y-107371332D01*
X139998500Y-107371332D01*
X139998500Y-107512668D01*
X140026073Y-107651287D01*
X140080159Y-107781864D01*
X140158681Y-107899380D01*
X140258620Y-107999319D01*
X140376136Y-108077841D01*
X140506713Y-108131927D01*
X140645332Y-108159500D01*
X140786668Y-108159500D01*
X140925287Y-108131927D01*
X141055864Y-108077841D01*
X141173380Y-107999319D01*
X141273319Y-107899380D01*
X141351841Y-107781864D01*
X141405927Y-107651287D01*
X141433500Y-107512668D01*
X141433500Y-107371332D01*
X141405927Y-107232713D01*
X141351841Y-107102136D01*
X141273319Y-106984620D01*
X141173380Y-106884681D01*
X141055864Y-106806159D01*
X140925287Y-106752073D01*
X140786668Y-106724500D01*
X140645332Y-106724500D01*
X140506713Y-106752073D01*
X140376136Y-106806159D01*
X140258620Y-106884681D01*
X140158681Y-106984620D01*
X140080159Y-107102136D01*
X140026073Y-107232713D01*
X139998500Y-107371332D01*
X136607500Y-107371332D01*
X136579927Y-107232713D01*
X136525841Y-107102136D01*
X136447319Y-106984620D01*
X136347380Y-106884681D01*
X136229864Y-106806159D01*
X136099287Y-106752073D01*
X135960668Y-106724500D01*
X135819332Y-106724500D01*
X135680713Y-106752073D01*
X135550136Y-106806159D01*
X135432620Y-106884681D01*
X135332681Y-106984620D01*
X135254159Y-107102136D01*
X135200073Y-107232713D01*
X135172500Y-107371332D01*
X134829500Y-107371332D01*
X134801927Y-107232713D01*
X134747841Y-107102136D01*
X134669319Y-106984620D01*
X134569380Y-106884681D01*
X134451864Y-106806159D01*
X134321287Y-106752073D01*
X134182668Y-106724500D01*
X134041332Y-106724500D01*
X133902713Y-106752073D01*
X133772136Y-106806159D01*
X133654620Y-106884681D01*
X133554681Y-106984620D01*
X133476159Y-107102136D01*
X133422073Y-107232713D01*
X133394500Y-107371332D01*
X130257500Y-107371332D01*
X130229927Y-107232713D01*
X130175841Y-107102136D01*
X130097319Y-106984620D01*
X129997380Y-106884681D01*
X129879864Y-106806159D01*
X129749287Y-106752073D01*
X129610668Y-106724500D01*
X129469332Y-106724500D01*
X129330713Y-106752073D01*
X129200136Y-106806159D01*
X129082620Y-106884681D01*
X128982681Y-106984620D01*
X128904159Y-107102136D01*
X128850073Y-107232713D01*
X128822500Y-107371332D01*
X98342500Y-107371332D01*
X98342500Y-105847332D01*
X111042500Y-105847332D01*
X111042500Y-105988668D01*
X111070073Y-106127287D01*
X111124159Y-106257864D01*
X111202681Y-106375380D01*
X111302620Y-106475319D01*
X111420136Y-106553841D01*
X111550713Y-106607927D01*
X111689332Y-106635500D01*
X111830668Y-106635500D01*
X111969287Y-106607927D01*
X112099864Y-106553841D01*
X112217380Y-106475319D01*
X112317319Y-106375380D01*
X112395841Y-106257864D01*
X112449927Y-106127287D01*
X112477500Y-105988668D01*
X112477500Y-105847332D01*
X120948500Y-105847332D01*
X120948500Y-105988668D01*
X120976073Y-106127287D01*
X121030159Y-106257864D01*
X121108681Y-106375380D01*
X121208620Y-106475319D01*
X121326136Y-106553841D01*
X121456713Y-106607927D01*
X121595332Y-106635500D01*
X121736668Y-106635500D01*
X121875287Y-106607927D01*
X122005864Y-106553841D01*
X122123380Y-106475319D01*
X122223319Y-106375380D01*
X122301841Y-106257864D01*
X122355927Y-106127287D01*
X122383500Y-105988668D01*
X122383500Y-105847332D01*
X133394500Y-105847332D01*
X133394500Y-105988668D01*
X133422073Y-106127287D01*
X133476159Y-106257864D01*
X133554681Y-106375380D01*
X133654620Y-106475319D01*
X133772136Y-106553841D01*
X133902713Y-106607927D01*
X134041332Y-106635500D01*
X134182668Y-106635500D01*
X134321287Y-106607927D01*
X134451864Y-106553841D01*
X134569380Y-106475319D01*
X134669319Y-106375380D01*
X134747841Y-106257864D01*
X134801927Y-106127287D01*
X134829500Y-105988668D01*
X134829500Y-105847332D01*
X139490500Y-105847332D01*
X139490500Y-105988668D01*
X139518073Y-106127287D01*
X139572159Y-106257864D01*
X139650681Y-106375380D01*
X139750620Y-106475319D01*
X139868136Y-106553841D01*
X139998713Y-106607927D01*
X140137332Y-106635500D01*
X140278668Y-106635500D01*
X140417287Y-106607927D01*
X140547864Y-106553841D01*
X140665380Y-106475319D01*
X140765319Y-106375380D01*
X140843841Y-106257864D01*
X140897927Y-106127287D01*
X140925500Y-105988668D01*
X140925500Y-105847332D01*
X148888500Y-105847332D01*
X148888500Y-105988668D01*
X148916073Y-106127287D01*
X148970159Y-106257864D01*
X149048681Y-106375380D01*
X149148620Y-106475319D01*
X149266136Y-106553841D01*
X149396713Y-106607927D01*
X149535332Y-106635500D01*
X149676668Y-106635500D01*
X149815287Y-106607927D01*
X149945864Y-106553841D01*
X150063380Y-106475319D01*
X150163319Y-106375380D01*
X150241841Y-106257864D01*
X150295927Y-106127287D01*
X150323500Y-105988668D01*
X150323500Y-105847332D01*
X150295927Y-105708713D01*
X150241841Y-105578136D01*
X150163319Y-105460620D01*
X150063380Y-105360681D01*
X149945864Y-105282159D01*
X149815287Y-105228073D01*
X149676668Y-105200500D01*
X149535332Y-105200500D01*
X149396713Y-105228073D01*
X149266136Y-105282159D01*
X149148620Y-105360681D01*
X149048681Y-105460620D01*
X148970159Y-105578136D01*
X148916073Y-105708713D01*
X148888500Y-105847332D01*
X140925500Y-105847332D01*
X140897927Y-105708713D01*
X140843841Y-105578136D01*
X140765319Y-105460620D01*
X140665380Y-105360681D01*
X140547864Y-105282159D01*
X140417287Y-105228073D01*
X140278668Y-105200500D01*
X140137332Y-105200500D01*
X139998713Y-105228073D01*
X139868136Y-105282159D01*
X139750620Y-105360681D01*
X139650681Y-105460620D01*
X139572159Y-105578136D01*
X139518073Y-105708713D01*
X139490500Y-105847332D01*
X134829500Y-105847332D01*
X134801927Y-105708713D01*
X134747841Y-105578136D01*
X134669319Y-105460620D01*
X134569380Y-105360681D01*
X134451864Y-105282159D01*
X134321287Y-105228073D01*
X134182668Y-105200500D01*
X134041332Y-105200500D01*
X133902713Y-105228073D01*
X133772136Y-105282159D01*
X133654620Y-105360681D01*
X133554681Y-105460620D01*
X133476159Y-105578136D01*
X133422073Y-105708713D01*
X133394500Y-105847332D01*
X122383500Y-105847332D01*
X122355927Y-105708713D01*
X122301841Y-105578136D01*
X122223319Y-105460620D01*
X122123380Y-105360681D01*
X122005864Y-105282159D01*
X121875287Y-105228073D01*
X121736668Y-105200500D01*
X121595332Y-105200500D01*
X121456713Y-105228073D01*
X121326136Y-105282159D01*
X121208620Y-105360681D01*
X121108681Y-105460620D01*
X121030159Y-105578136D01*
X120976073Y-105708713D01*
X120948500Y-105847332D01*
X112477500Y-105847332D01*
X112449927Y-105708713D01*
X112395841Y-105578136D01*
X112317319Y-105460620D01*
X112217380Y-105360681D01*
X112099864Y-105282159D01*
X111969287Y-105228073D01*
X111830668Y-105200500D01*
X111689332Y-105200500D01*
X111550713Y-105228073D01*
X111420136Y-105282159D01*
X111302620Y-105360681D01*
X111202681Y-105460620D01*
X111124159Y-105578136D01*
X111070073Y-105708713D01*
X111042500Y-105847332D01*
X98342500Y-105847332D01*
X98342500Y-98869500D01*
X197657501Y-98869500D01*
X197657501Y-135657500D01*
%TA.AperFunction,Conductor*%
D20*
G36*
X197657501Y-135657500D02*
G01*
X98342500Y-135657500D01*
X98342500Y-131711011D01*
X117704500Y-131711011D01*
X117704500Y-131940989D01*
X117749366Y-132166547D01*
X117837375Y-132379019D01*
X117965144Y-132570238D01*
X118127762Y-132732856D01*
X118318981Y-132860625D01*
X118531453Y-132948634D01*
X118757011Y-132993500D01*
X118986989Y-132993500D01*
X119212547Y-132948634D01*
X119425019Y-132860625D01*
X119616238Y-132732856D01*
X119778856Y-132570238D01*
X119906625Y-132379019D01*
X119994634Y-132166547D01*
X120013622Y-132071086D01*
X120270511Y-132071086D01*
X120340258Y-132289070D01*
X120451192Y-132489259D01*
X120599049Y-132663959D01*
X120778147Y-132806457D01*
X120981604Y-132911276D01*
X121166915Y-132967486D01*
X121348500Y-132912271D01*
X121348500Y-131889500D01*
X121475500Y-131889500D01*
X121475500Y-132912271D01*
X121657085Y-132967486D01*
X121842396Y-132911276D01*
X122045853Y-132806457D01*
X122224951Y-132663959D01*
X122372808Y-132489259D01*
X122483742Y-132289070D01*
X122553489Y-132071086D01*
X122810511Y-132071086D01*
X122880258Y-132289070D01*
X122991192Y-132489259D01*
X123139049Y-132663959D01*
X123318147Y-132806457D01*
X123521604Y-132911276D01*
X123706915Y-132967486D01*
X123888500Y-132912271D01*
X123888500Y-131889500D01*
X124015500Y-131889500D01*
X124015500Y-132912271D01*
X124197085Y-132967486D01*
X124382396Y-132911276D01*
X124585853Y-132806457D01*
X124764951Y-132663959D01*
X124912808Y-132489259D01*
X125023742Y-132289070D01*
X125093489Y-132071086D01*
X125038400Y-131889500D01*
X124015500Y-131889500D01*
X123888500Y-131889500D01*
X122865600Y-131889500D01*
X122810511Y-132071086D01*
X122553489Y-132071086D01*
X122498400Y-131889500D01*
X121475500Y-131889500D01*
X121348500Y-131889500D01*
X120325600Y-131889500D01*
X120270511Y-132071086D01*
X120013622Y-132071086D01*
X120039500Y-131940989D01*
X120039500Y-131711011D01*
X120013623Y-131580914D01*
X120270511Y-131580914D01*
X120325600Y-131762500D01*
X121348500Y-131762500D01*
X121348500Y-130739729D01*
X121475500Y-130739729D01*
X121475500Y-131762500D01*
X122498400Y-131762500D01*
X122553489Y-131580914D01*
X122810511Y-131580914D01*
X122865600Y-131762500D01*
X123888500Y-131762500D01*
X123888500Y-130739729D01*
X124015500Y-130739729D01*
X124015500Y-131762500D01*
X125038400Y-131762500D01*
X125054020Y-131711011D01*
X125324500Y-131711011D01*
X125324500Y-131940989D01*
X125369366Y-132166547D01*
X125457375Y-132379019D01*
X125585144Y-132570238D01*
X125747762Y-132732856D01*
X125938981Y-132860625D01*
X126151453Y-132948634D01*
X126377011Y-132993500D01*
X126606989Y-132993500D01*
X126832547Y-132948634D01*
X127045019Y-132860625D01*
X127236238Y-132732856D01*
X127398856Y-132570238D01*
X127526625Y-132379019D01*
X127614634Y-132166547D01*
X127659500Y-131940989D01*
X127659500Y-131711011D01*
X127864500Y-131711011D01*
X127864500Y-131940989D01*
X127909366Y-132166547D01*
X127997375Y-132379019D01*
X128125144Y-132570238D01*
X128287762Y-132732856D01*
X128478981Y-132860625D01*
X128691453Y-132948634D01*
X128917011Y-132993500D01*
X129146989Y-132993500D01*
X129372547Y-132948634D01*
X129585019Y-132860625D01*
X129776238Y-132732856D01*
X129938856Y-132570238D01*
X130066625Y-132379019D01*
X130154634Y-132166547D01*
X130199500Y-131940989D01*
X130199500Y-131711011D01*
X135484500Y-131711011D01*
X135484500Y-131940989D01*
X135529366Y-132166547D01*
X135617375Y-132379019D01*
X135745144Y-132570238D01*
X135907762Y-132732856D01*
X136098981Y-132860625D01*
X136311453Y-132948634D01*
X136537011Y-132993500D01*
X136766989Y-132993500D01*
X136992547Y-132948634D01*
X137205019Y-132860625D01*
X137396238Y-132732856D01*
X137558856Y-132570238D01*
X137686625Y-132379019D01*
X137774634Y-132166547D01*
X137793622Y-132071086D01*
X138050511Y-132071086D01*
X138120258Y-132289070D01*
X138231192Y-132489259D01*
X138379049Y-132663959D01*
X138558147Y-132806457D01*
X138761604Y-132911276D01*
X138946915Y-132967486D01*
X139128500Y-132912271D01*
X139128500Y-131889500D01*
X139255500Y-131889500D01*
X139255500Y-132912271D01*
X139437085Y-132967486D01*
X139622396Y-132911276D01*
X139825853Y-132806457D01*
X140004951Y-132663959D01*
X140152808Y-132489259D01*
X140263742Y-132289070D01*
X140333489Y-132071086D01*
X140590511Y-132071086D01*
X140660258Y-132289070D01*
X140771192Y-132489259D01*
X140919049Y-132663959D01*
X141098147Y-132806457D01*
X141301604Y-132911276D01*
X141486915Y-132967486D01*
X141668500Y-132912271D01*
X141668500Y-131889500D01*
X141795500Y-131889500D01*
X141795500Y-132912271D01*
X141977085Y-132967486D01*
X142162396Y-132911276D01*
X142365853Y-132806457D01*
X142544951Y-132663959D01*
X142692808Y-132489259D01*
X142803742Y-132289070D01*
X142873489Y-132071086D01*
X142818400Y-131889500D01*
X141795500Y-131889500D01*
X141668500Y-131889500D01*
X140645600Y-131889500D01*
X140590511Y-132071086D01*
X140333489Y-132071086D01*
X140278400Y-131889500D01*
X139255500Y-131889500D01*
X139128500Y-131889500D01*
X138105600Y-131889500D01*
X138050511Y-132071086D01*
X137793622Y-132071086D01*
X137819500Y-131940989D01*
X137819500Y-131711011D01*
X137793623Y-131580914D01*
X138050511Y-131580914D01*
X138105600Y-131762500D01*
X139128500Y-131762500D01*
X139128500Y-130739729D01*
X139255500Y-130739729D01*
X139255500Y-131762500D01*
X140278400Y-131762500D01*
X140333489Y-131580914D01*
X140590511Y-131580914D01*
X140645600Y-131762500D01*
X141668500Y-131762500D01*
X141668500Y-130739729D01*
X141795500Y-130739729D01*
X141795500Y-131762500D01*
X142818400Y-131762500D01*
X142834020Y-131711011D01*
X143104500Y-131711011D01*
X143104500Y-131940989D01*
X143149366Y-132166547D01*
X143237375Y-132379019D01*
X143365144Y-132570238D01*
X143527762Y-132732856D01*
X143718981Y-132860625D01*
X143931453Y-132948634D01*
X144157011Y-132993500D01*
X144386989Y-132993500D01*
X144612547Y-132948634D01*
X144825019Y-132860625D01*
X145016238Y-132732856D01*
X145178856Y-132570238D01*
X145306625Y-132379019D01*
X145394634Y-132166547D01*
X145439500Y-131940989D01*
X145439500Y-131711011D01*
X145644500Y-131711011D01*
X145644500Y-131940989D01*
X145689366Y-132166547D01*
X145777375Y-132379019D01*
X145905144Y-132570238D01*
X146067762Y-132732856D01*
X146258981Y-132860625D01*
X146471453Y-132948634D01*
X146697011Y-132993500D01*
X146926989Y-132993500D01*
X147152547Y-132948634D01*
X147365019Y-132860625D01*
X147449763Y-132804000D01*
X174648964Y-132804000D01*
X174648964Y-134404000D01*
X174655094Y-134466241D01*
X174673249Y-134526090D01*
X174702731Y-134581247D01*
X174742407Y-134629593D01*
X174790753Y-134669269D01*
X174845910Y-134698751D01*
X174905759Y-134716906D01*
X174968000Y-134723036D01*
X176568000Y-134723036D01*
X176630241Y-134716906D01*
X176690090Y-134698751D01*
X176745247Y-134669269D01*
X176793593Y-134629593D01*
X176833269Y-134581247D01*
X176862751Y-134526090D01*
X176880906Y-134466241D01*
X176887036Y-134404000D01*
X176887036Y-133493936D01*
X177190500Y-133493936D01*
X177190500Y-133714064D01*
X177233445Y-133929963D01*
X177317684Y-134133335D01*
X177439981Y-134316365D01*
X177595635Y-134472019D01*
X177778665Y-134594316D01*
X177982037Y-134678555D01*
X178197936Y-134721500D01*
X178418064Y-134721500D01*
X178633963Y-134678555D01*
X178837335Y-134594316D01*
X179020365Y-134472019D01*
X179176019Y-134316365D01*
X179298316Y-134133335D01*
X179382555Y-133929963D01*
X179425500Y-133714064D01*
X179425500Y-133493936D01*
X179730500Y-133493936D01*
X179730500Y-133714064D01*
X179773445Y-133929963D01*
X179857684Y-134133335D01*
X179979981Y-134316365D01*
X180135635Y-134472019D01*
X180318665Y-134594316D01*
X180522037Y-134678555D01*
X180737936Y-134721500D01*
X180958064Y-134721500D01*
X181173963Y-134678555D01*
X181377335Y-134594316D01*
X181560365Y-134472019D01*
X181716019Y-134316365D01*
X181838316Y-134133335D01*
X181922555Y-133929963D01*
X181965500Y-133714064D01*
X181965500Y-133493936D01*
X182270500Y-133493936D01*
X182270500Y-133714064D01*
X182313445Y-133929963D01*
X182397684Y-134133335D01*
X182519981Y-134316365D01*
X182675635Y-134472019D01*
X182858665Y-134594316D01*
X183062037Y-134678555D01*
X183277936Y-134721500D01*
X183498064Y-134721500D01*
X183713963Y-134678555D01*
X183917335Y-134594316D01*
X184100365Y-134472019D01*
X184256019Y-134316365D01*
X184378316Y-134133335D01*
X184462555Y-133929963D01*
X184505500Y-133714064D01*
X184505500Y-133493936D01*
X184810500Y-133493936D01*
X184810500Y-133714064D01*
X184853445Y-133929963D01*
X184937684Y-134133335D01*
X185059981Y-134316365D01*
X185215635Y-134472019D01*
X185398665Y-134594316D01*
X185602037Y-134678555D01*
X185817936Y-134721500D01*
X186038064Y-134721500D01*
X186253963Y-134678555D01*
X186457335Y-134594316D01*
X186640365Y-134472019D01*
X186796019Y-134316365D01*
X186918316Y-134133335D01*
X187002555Y-133929963D01*
X187045500Y-133714064D01*
X187045500Y-133493936D01*
X187002555Y-133278037D01*
X186918316Y-133074665D01*
X186796019Y-132891635D01*
X186640365Y-132735981D01*
X186457335Y-132613684D01*
X186253963Y-132529445D01*
X186038064Y-132486500D01*
X185817936Y-132486500D01*
X185602037Y-132529445D01*
X185398665Y-132613684D01*
X185215635Y-132735981D01*
X185059981Y-132891635D01*
X184937684Y-133074665D01*
X184853445Y-133278037D01*
X184810500Y-133493936D01*
X184505500Y-133493936D01*
X184462555Y-133278037D01*
X184378316Y-133074665D01*
X184256019Y-132891635D01*
X184100365Y-132735981D01*
X183917335Y-132613684D01*
X183713963Y-132529445D01*
X183498064Y-132486500D01*
X183277936Y-132486500D01*
X183062037Y-132529445D01*
X182858665Y-132613684D01*
X182675635Y-132735981D01*
X182519981Y-132891635D01*
X182397684Y-133074665D01*
X182313445Y-133278037D01*
X182270500Y-133493936D01*
X181965500Y-133493936D01*
X181922555Y-133278037D01*
X181838316Y-133074665D01*
X181716019Y-132891635D01*
X181560365Y-132735981D01*
X181377335Y-132613684D01*
X181173963Y-132529445D01*
X180958064Y-132486500D01*
X180737936Y-132486500D01*
X180522037Y-132529445D01*
X180318665Y-132613684D01*
X180135635Y-132735981D01*
X179979981Y-132891635D01*
X179857684Y-133074665D01*
X179773445Y-133278037D01*
X179730500Y-133493936D01*
X179425500Y-133493936D01*
X179382555Y-133278037D01*
X179298316Y-133074665D01*
X179176019Y-132891635D01*
X179020365Y-132735981D01*
X178837335Y-132613684D01*
X178633963Y-132529445D01*
X178418064Y-132486500D01*
X178197936Y-132486500D01*
X177982037Y-132529445D01*
X177778665Y-132613684D01*
X177595635Y-132735981D01*
X177439981Y-132891635D01*
X177317684Y-133074665D01*
X177233445Y-133278037D01*
X177190500Y-133493936D01*
X176887036Y-133493936D01*
X176887036Y-132804000D01*
X176880906Y-132741759D01*
X176862751Y-132681910D01*
X176833269Y-132626753D01*
X176793593Y-132578407D01*
X176745247Y-132538731D01*
X176690090Y-132509249D01*
X176630241Y-132491094D01*
X176568000Y-132484964D01*
X174968000Y-132484964D01*
X174905759Y-132491094D01*
X174845910Y-132509249D01*
X174790753Y-132538731D01*
X174742407Y-132578407D01*
X174702731Y-132626753D01*
X174673249Y-132681910D01*
X174655094Y-132741759D01*
X174648964Y-132804000D01*
X147449763Y-132804000D01*
X147556238Y-132732856D01*
X147718856Y-132570238D01*
X147846625Y-132379019D01*
X147934634Y-132166547D01*
X147979500Y-131940989D01*
X147979500Y-131711011D01*
X147934634Y-131485453D01*
X147846625Y-131272981D01*
X147718856Y-131081762D01*
X147556238Y-130919144D01*
X147365019Y-130791375D01*
X147239377Y-130739332D01*
X149396500Y-130739332D01*
X149396500Y-130880668D01*
X149424073Y-131019287D01*
X149478159Y-131149864D01*
X149556681Y-131267380D01*
X149656620Y-131367319D01*
X149774136Y-131445841D01*
X149904713Y-131499927D01*
X150043332Y-131527500D01*
X150184668Y-131527500D01*
X150323287Y-131499927D01*
X150453864Y-131445841D01*
X150571380Y-131367319D01*
X150671319Y-131267380D01*
X150749841Y-131149864D01*
X150803927Y-131019287D01*
X150831500Y-130880668D01*
X150831500Y-130739332D01*
X150803927Y-130600713D01*
X150749841Y-130470136D01*
X150671319Y-130352620D01*
X150571380Y-130252681D01*
X150453864Y-130174159D01*
X150323287Y-130120073D01*
X150184668Y-130092500D01*
X150043332Y-130092500D01*
X149904713Y-130120073D01*
X149774136Y-130174159D01*
X149656620Y-130252681D01*
X149556681Y-130352620D01*
X149478159Y-130470136D01*
X149424073Y-130600713D01*
X149396500Y-130739332D01*
X147239377Y-130739332D01*
X147152547Y-130703366D01*
X146926989Y-130658500D01*
X146697011Y-130658500D01*
X146471453Y-130703366D01*
X146258981Y-130791375D01*
X146067762Y-130919144D01*
X145905144Y-131081762D01*
X145777375Y-131272981D01*
X145689366Y-131485453D01*
X145644500Y-131711011D01*
X145439500Y-131711011D01*
X145394634Y-131485453D01*
X145306625Y-131272981D01*
X145178856Y-131081762D01*
X145016238Y-130919144D01*
X144825019Y-130791375D01*
X144612547Y-130703366D01*
X144386989Y-130658500D01*
X144157011Y-130658500D01*
X143931453Y-130703366D01*
X143718981Y-130791375D01*
X143527762Y-130919144D01*
X143365144Y-131081762D01*
X143237375Y-131272981D01*
X143149366Y-131485453D01*
X143104500Y-131711011D01*
X142834020Y-131711011D01*
X142873489Y-131580914D01*
X142803742Y-131362930D01*
X142692808Y-131162741D01*
X142544951Y-130988041D01*
X142365853Y-130845543D01*
X142162396Y-130740724D01*
X141977085Y-130684514D01*
X141795500Y-130739729D01*
X141668500Y-130739729D01*
X141486915Y-130684514D01*
X141301604Y-130740724D01*
X141098147Y-130845543D01*
X140919049Y-130988041D01*
X140771192Y-131162741D01*
X140660258Y-131362930D01*
X140590511Y-131580914D01*
X140333489Y-131580914D01*
X140263742Y-131362930D01*
X140152808Y-131162741D01*
X140004951Y-130988041D01*
X139825853Y-130845543D01*
X139622396Y-130740724D01*
X139437085Y-130684514D01*
X139255500Y-130739729D01*
X139128500Y-130739729D01*
X138946915Y-130684514D01*
X138761604Y-130740724D01*
X138558147Y-130845543D01*
X138379049Y-130988041D01*
X138231192Y-131162741D01*
X138120258Y-131362930D01*
X138050511Y-131580914D01*
X137793623Y-131580914D01*
X137774634Y-131485453D01*
X137686625Y-131272981D01*
X137558856Y-131081762D01*
X137396238Y-130919144D01*
X137205019Y-130791375D01*
X136992547Y-130703366D01*
X136766989Y-130658500D01*
X136537011Y-130658500D01*
X136311453Y-130703366D01*
X136098981Y-130791375D01*
X135907762Y-130919144D01*
X135745144Y-131081762D01*
X135617375Y-131272981D01*
X135529366Y-131485453D01*
X135484500Y-131711011D01*
X130199500Y-131711011D01*
X130154634Y-131485453D01*
X130066625Y-131272981D01*
X129938856Y-131081762D01*
X129776238Y-130919144D01*
X129585019Y-130791375D01*
X129372547Y-130703366D01*
X129146989Y-130658500D01*
X128917011Y-130658500D01*
X128691453Y-130703366D01*
X128478981Y-130791375D01*
X128287762Y-130919144D01*
X128125144Y-131081762D01*
X127997375Y-131272981D01*
X127909366Y-131485453D01*
X127864500Y-131711011D01*
X127659500Y-131711011D01*
X127614634Y-131485453D01*
X127526625Y-131272981D01*
X127398856Y-131081762D01*
X127236238Y-130919144D01*
X127045019Y-130791375D01*
X126832547Y-130703366D01*
X126606989Y-130658500D01*
X126377011Y-130658500D01*
X126151453Y-130703366D01*
X125938981Y-130791375D01*
X125747762Y-130919144D01*
X125585144Y-131081762D01*
X125457375Y-131272981D01*
X125369366Y-131485453D01*
X125324500Y-131711011D01*
X125054020Y-131711011D01*
X125093489Y-131580914D01*
X125023742Y-131362930D01*
X124912808Y-131162741D01*
X124764951Y-130988041D01*
X124585853Y-130845543D01*
X124382396Y-130740724D01*
X124197085Y-130684514D01*
X124015500Y-130739729D01*
X123888500Y-130739729D01*
X123706915Y-130684514D01*
X123521604Y-130740724D01*
X123318147Y-130845543D01*
X123139049Y-130988041D01*
X122991192Y-131162741D01*
X122880258Y-131362930D01*
X122810511Y-131580914D01*
X122553489Y-131580914D01*
X122483742Y-131362930D01*
X122372808Y-131162741D01*
X122224951Y-130988041D01*
X122045853Y-130845543D01*
X121842396Y-130740724D01*
X121657085Y-130684514D01*
X121475500Y-130739729D01*
X121348500Y-130739729D01*
X121166915Y-130684514D01*
X120981604Y-130740724D01*
X120778147Y-130845543D01*
X120599049Y-130988041D01*
X120451192Y-131162741D01*
X120340258Y-131362930D01*
X120270511Y-131580914D01*
X120013623Y-131580914D01*
X119994634Y-131485453D01*
X119906625Y-131272981D01*
X119778856Y-131081762D01*
X119616238Y-130919144D01*
X119425019Y-130791375D01*
X119212547Y-130703366D01*
X118986989Y-130658500D01*
X118757011Y-130658500D01*
X118531453Y-130703366D01*
X118318981Y-130791375D01*
X118127762Y-130919144D01*
X117965144Y-131081762D01*
X117837375Y-131272981D01*
X117749366Y-131485453D01*
X117704500Y-131711011D01*
X98342500Y-131711011D01*
X98342500Y-129977332D01*
X110026500Y-129977332D01*
X110026500Y-130118668D01*
X110054073Y-130257287D01*
X110108159Y-130387864D01*
X110186681Y-130505380D01*
X110286620Y-130605319D01*
X110404136Y-130683841D01*
X110534713Y-130737927D01*
X110673332Y-130765500D01*
X110814668Y-130765500D01*
X110953287Y-130737927D01*
X111083864Y-130683841D01*
X111201380Y-130605319D01*
X111301319Y-130505380D01*
X111379841Y-130387864D01*
X111433927Y-130257287D01*
X111461500Y-130118668D01*
X111461500Y-129977332D01*
X111433927Y-129838713D01*
X111379841Y-129708136D01*
X111301319Y-129590620D01*
X111201380Y-129490681D01*
X111083864Y-129412159D01*
X110953287Y-129358073D01*
X110814668Y-129330500D01*
X110673332Y-129330500D01*
X110534713Y-129358073D01*
X110404136Y-129412159D01*
X110286620Y-129490681D01*
X110186681Y-129590620D01*
X110108159Y-129708136D01*
X110054073Y-129838713D01*
X110026500Y-129977332D01*
X98342500Y-129977332D01*
X98342500Y-129171011D01*
X117704500Y-129171011D01*
X117704500Y-129400989D01*
X117749366Y-129626547D01*
X117837375Y-129839019D01*
X117965144Y-130030238D01*
X118127762Y-130192856D01*
X118318981Y-130320625D01*
X118531453Y-130408634D01*
X118757011Y-130453500D01*
X118986989Y-130453500D01*
X119212547Y-130408634D01*
X119425019Y-130320625D01*
X119616238Y-130192856D01*
X119778856Y-130030238D01*
X119906625Y-129839019D01*
X119994634Y-129626547D01*
X120013622Y-129531086D01*
X120270511Y-129531086D01*
X120340258Y-129749070D01*
X120451192Y-129949259D01*
X120599049Y-130123959D01*
X120778147Y-130266457D01*
X120981604Y-130371276D01*
X121166915Y-130427486D01*
X121348500Y-130372271D01*
X121348500Y-129349500D01*
X121475500Y-129349500D01*
X121475500Y-130372271D01*
X121657085Y-130427486D01*
X121842396Y-130371276D01*
X122045853Y-130266457D01*
X122224951Y-130123959D01*
X122372808Y-129949259D01*
X122483742Y-129749070D01*
X122553489Y-129531086D01*
X122810511Y-129531086D01*
X122880258Y-129749070D01*
X122991192Y-129949259D01*
X123139049Y-130123959D01*
X123318147Y-130266457D01*
X123521604Y-130371276D01*
X123706915Y-130427486D01*
X123888500Y-130372271D01*
X123888500Y-129349500D01*
X124015500Y-129349500D01*
X124015500Y-130372271D01*
X124197085Y-130427486D01*
X124382396Y-130371276D01*
X124585853Y-130266457D01*
X124764951Y-130123959D01*
X124912808Y-129949259D01*
X125023742Y-129749070D01*
X125093489Y-129531086D01*
X125038400Y-129349500D01*
X124015500Y-129349500D01*
X123888500Y-129349500D01*
X122865600Y-129349500D01*
X122810511Y-129531086D01*
X122553489Y-129531086D01*
X122498400Y-129349500D01*
X121475500Y-129349500D01*
X121348500Y-129349500D01*
X120325600Y-129349500D01*
X120270511Y-129531086D01*
X120013622Y-129531086D01*
X120039500Y-129400989D01*
X120039500Y-129171011D01*
X120013623Y-129040914D01*
X120270511Y-129040914D01*
X120325600Y-129222500D01*
X121348500Y-129222500D01*
X121348500Y-128199729D01*
X121475500Y-128199729D01*
X121475500Y-129222500D01*
X122498400Y-129222500D01*
X122553489Y-129040914D01*
X122810511Y-129040914D01*
X122865600Y-129222500D01*
X123888500Y-129222500D01*
X123888500Y-128199729D01*
X124015500Y-128199729D01*
X124015500Y-129222500D01*
X125038400Y-129222500D01*
X125054020Y-129171011D01*
X125324500Y-129171011D01*
X125324500Y-129400989D01*
X125369366Y-129626547D01*
X125457375Y-129839019D01*
X125585144Y-130030238D01*
X125747762Y-130192856D01*
X125938981Y-130320625D01*
X126151453Y-130408634D01*
X126377011Y-130453500D01*
X126606989Y-130453500D01*
X126832547Y-130408634D01*
X127045019Y-130320625D01*
X127236238Y-130192856D01*
X127398856Y-130030238D01*
X127526625Y-129839019D01*
X127614634Y-129626547D01*
X127659500Y-129400989D01*
X127659500Y-129171011D01*
X127614634Y-128945453D01*
X127526625Y-128732981D01*
X127398856Y-128541762D01*
X127293094Y-128436000D01*
X127862964Y-128436000D01*
X127862964Y-130136000D01*
X127869094Y-130198241D01*
X127887249Y-130258090D01*
X127916731Y-130313247D01*
X127956407Y-130361593D01*
X128004753Y-130401269D01*
X128059910Y-130430751D01*
X128119759Y-130448906D01*
X128182000Y-130455036D01*
X129882000Y-130455036D01*
X129944241Y-130448906D01*
X130004090Y-130430751D01*
X130059247Y-130401269D01*
X130107593Y-130361593D01*
X130147269Y-130313247D01*
X130176751Y-130258090D01*
X130194906Y-130198241D01*
X130201036Y-130136000D01*
X130201036Y-129171011D01*
X135484500Y-129171011D01*
X135484500Y-129400989D01*
X135529366Y-129626547D01*
X135617375Y-129839019D01*
X135745144Y-130030238D01*
X135907762Y-130192856D01*
X136098981Y-130320625D01*
X136311453Y-130408634D01*
X136537011Y-130453500D01*
X136766989Y-130453500D01*
X136992547Y-130408634D01*
X137205019Y-130320625D01*
X137396238Y-130192856D01*
X137558856Y-130030238D01*
X137686625Y-129839019D01*
X137774634Y-129626547D01*
X137793622Y-129531086D01*
X138050511Y-129531086D01*
X138120258Y-129749070D01*
X138231192Y-129949259D01*
X138379049Y-130123959D01*
X138558147Y-130266457D01*
X138761604Y-130371276D01*
X138946915Y-130427486D01*
X139128500Y-130372271D01*
X139128500Y-129349500D01*
X139255500Y-129349500D01*
X139255500Y-130372271D01*
X139437085Y-130427486D01*
X139622396Y-130371276D01*
X139825853Y-130266457D01*
X140004951Y-130123959D01*
X140152808Y-129949259D01*
X140263742Y-129749070D01*
X140333489Y-129531086D01*
X140590511Y-129531086D01*
X140660258Y-129749070D01*
X140771192Y-129949259D01*
X140919049Y-130123959D01*
X141098147Y-130266457D01*
X141301604Y-130371276D01*
X141486915Y-130427486D01*
X141668500Y-130372271D01*
X141668500Y-129349500D01*
X141795500Y-129349500D01*
X141795500Y-130372271D01*
X141977085Y-130427486D01*
X142162396Y-130371276D01*
X142365853Y-130266457D01*
X142544951Y-130123959D01*
X142692808Y-129949259D01*
X142803742Y-129749070D01*
X142873489Y-129531086D01*
X142818400Y-129349500D01*
X141795500Y-129349500D01*
X141668500Y-129349500D01*
X140645600Y-129349500D01*
X140590511Y-129531086D01*
X140333489Y-129531086D01*
X140278400Y-129349500D01*
X139255500Y-129349500D01*
X139128500Y-129349500D01*
X138105600Y-129349500D01*
X138050511Y-129531086D01*
X137793622Y-129531086D01*
X137819500Y-129400989D01*
X137819500Y-129171011D01*
X137793623Y-129040914D01*
X138050511Y-129040914D01*
X138105600Y-129222500D01*
X139128500Y-129222500D01*
X139128500Y-128199729D01*
X139255500Y-128199729D01*
X139255500Y-129222500D01*
X140278400Y-129222500D01*
X140333489Y-129040914D01*
X140590511Y-129040914D01*
X140645600Y-129222500D01*
X141668500Y-129222500D01*
X141668500Y-128199729D01*
X141795500Y-128199729D01*
X141795500Y-129222500D01*
X142818400Y-129222500D01*
X142834020Y-129171011D01*
X143104500Y-129171011D01*
X143104500Y-129400989D01*
X143149366Y-129626547D01*
X143237375Y-129839019D01*
X143365144Y-130030238D01*
X143527762Y-130192856D01*
X143718981Y-130320625D01*
X143931453Y-130408634D01*
X144157011Y-130453500D01*
X144386989Y-130453500D01*
X144612547Y-130408634D01*
X144825019Y-130320625D01*
X145016238Y-130192856D01*
X145178856Y-130030238D01*
X145306625Y-129839019D01*
X145394634Y-129626547D01*
X145439500Y-129400989D01*
X145439500Y-129171011D01*
X145394634Y-128945453D01*
X145306625Y-128732981D01*
X145178856Y-128541762D01*
X145073094Y-128436000D01*
X145642964Y-128436000D01*
X145642964Y-130136000D01*
X145649094Y-130198241D01*
X145667249Y-130258090D01*
X145696731Y-130313247D01*
X145736407Y-130361593D01*
X145784753Y-130401269D01*
X145839910Y-130430751D01*
X145899759Y-130448906D01*
X145962000Y-130455036D01*
X147662000Y-130455036D01*
X147724241Y-130448906D01*
X147784090Y-130430751D01*
X147839247Y-130401269D01*
X147887593Y-130361593D01*
X147927269Y-130313247D01*
X147956751Y-130258090D01*
X147974906Y-130198241D01*
X147981036Y-130136000D01*
X147981036Y-129215332D01*
X165398500Y-129215332D01*
X165398500Y-129356668D01*
X165426073Y-129495287D01*
X165480159Y-129625864D01*
X165558681Y-129743380D01*
X165658620Y-129843319D01*
X165776136Y-129921841D01*
X165906713Y-129975927D01*
X166045332Y-130003500D01*
X166186668Y-130003500D01*
X166325287Y-129975927D01*
X166455864Y-129921841D01*
X166573380Y-129843319D01*
X166673319Y-129743380D01*
X166751841Y-129625864D01*
X166805927Y-129495287D01*
X166833500Y-129356668D01*
X166833500Y-129215332D01*
X166805927Y-129076713D01*
X166751841Y-128946136D01*
X166673319Y-128828620D01*
X166573380Y-128728681D01*
X166455864Y-128650159D01*
X166325287Y-128596073D01*
X166186668Y-128568500D01*
X166045332Y-128568500D01*
X165906713Y-128596073D01*
X165776136Y-128650159D01*
X165658620Y-128728681D01*
X165558681Y-128828620D01*
X165480159Y-128946136D01*
X165426073Y-129076713D01*
X165398500Y-129215332D01*
X147981036Y-129215332D01*
X147981036Y-128436000D01*
X147974906Y-128373759D01*
X147956751Y-128313910D01*
X147927269Y-128258753D01*
X147887593Y-128210407D01*
X147839247Y-128170731D01*
X147784090Y-128141249D01*
X147724241Y-128123094D01*
X147662000Y-128116964D01*
X145962000Y-128116964D01*
X145899759Y-128123094D01*
X145839910Y-128141249D01*
X145784753Y-128170731D01*
X145736407Y-128210407D01*
X145696731Y-128258753D01*
X145667249Y-128313910D01*
X145649094Y-128373759D01*
X145642964Y-128436000D01*
X145073094Y-128436000D01*
X145016238Y-128379144D01*
X144825019Y-128251375D01*
X144612547Y-128163366D01*
X144386989Y-128118500D01*
X144157011Y-128118500D01*
X143931453Y-128163366D01*
X143718981Y-128251375D01*
X143527762Y-128379144D01*
X143365144Y-128541762D01*
X143237375Y-128732981D01*
X143149366Y-128945453D01*
X143104500Y-129171011D01*
X142834020Y-129171011D01*
X142873489Y-129040914D01*
X142803742Y-128822930D01*
X142692808Y-128622741D01*
X142544951Y-128448041D01*
X142365853Y-128305543D01*
X142162396Y-128200724D01*
X141977085Y-128144514D01*
X141795500Y-128199729D01*
X141668500Y-128199729D01*
X141486915Y-128144514D01*
X141301604Y-128200724D01*
X141098147Y-128305543D01*
X140919049Y-128448041D01*
X140771192Y-128622741D01*
X140660258Y-128822930D01*
X140590511Y-129040914D01*
X140333489Y-129040914D01*
X140263742Y-128822930D01*
X140152808Y-128622741D01*
X140004951Y-128448041D01*
X139825853Y-128305543D01*
X139622396Y-128200724D01*
X139437085Y-128144514D01*
X139255500Y-128199729D01*
X139128500Y-128199729D01*
X138946915Y-128144514D01*
X138761604Y-128200724D01*
X138558147Y-128305543D01*
X138379049Y-128448041D01*
X138231192Y-128622741D01*
X138120258Y-128822930D01*
X138050511Y-129040914D01*
X137793623Y-129040914D01*
X137774634Y-128945453D01*
X137686625Y-128732981D01*
X137558856Y-128541762D01*
X137396238Y-128379144D01*
X137205019Y-128251375D01*
X136992547Y-128163366D01*
X136766989Y-128118500D01*
X136537011Y-128118500D01*
X136311453Y-128163366D01*
X136098981Y-128251375D01*
X135907762Y-128379144D01*
X135745144Y-128541762D01*
X135617375Y-128732981D01*
X135529366Y-128945453D01*
X135484500Y-129171011D01*
X130201036Y-129171011D01*
X130201036Y-128436000D01*
X130194906Y-128373759D01*
X130176751Y-128313910D01*
X130147269Y-128258753D01*
X130107593Y-128210407D01*
X130059247Y-128170731D01*
X130004090Y-128141249D01*
X129944241Y-128123094D01*
X129882000Y-128116964D01*
X128182000Y-128116964D01*
X128119759Y-128123094D01*
X128059910Y-128141249D01*
X128004753Y-128170731D01*
X127956407Y-128210407D01*
X127916731Y-128258753D01*
X127887249Y-128313910D01*
X127869094Y-128373759D01*
X127862964Y-128436000D01*
X127293094Y-128436000D01*
X127236238Y-128379144D01*
X127045019Y-128251375D01*
X126832547Y-128163366D01*
X126606989Y-128118500D01*
X126377011Y-128118500D01*
X126151453Y-128163366D01*
X125938981Y-128251375D01*
X125747762Y-128379144D01*
X125585144Y-128541762D01*
X125457375Y-128732981D01*
X125369366Y-128945453D01*
X125324500Y-129171011D01*
X125054020Y-129171011D01*
X125093489Y-129040914D01*
X125023742Y-128822930D01*
X124912808Y-128622741D01*
X124764951Y-128448041D01*
X124585853Y-128305543D01*
X124382396Y-128200724D01*
X124197085Y-128144514D01*
X124015500Y-128199729D01*
X123888500Y-128199729D01*
X123706915Y-128144514D01*
X123521604Y-128200724D01*
X123318147Y-128305543D01*
X123139049Y-128448041D01*
X122991192Y-128622741D01*
X122880258Y-128822930D01*
X122810511Y-129040914D01*
X122553489Y-129040914D01*
X122483742Y-128822930D01*
X122372808Y-128622741D01*
X122224951Y-128448041D01*
X122045853Y-128305543D01*
X121842396Y-128200724D01*
X121657085Y-128144514D01*
X121475500Y-128199729D01*
X121348500Y-128199729D01*
X121166915Y-128144514D01*
X120981604Y-128200724D01*
X120778147Y-128305543D01*
X120599049Y-128448041D01*
X120451192Y-128622741D01*
X120340258Y-128822930D01*
X120270511Y-129040914D01*
X120013623Y-129040914D01*
X119994634Y-128945453D01*
X119906625Y-128732981D01*
X119778856Y-128541762D01*
X119616238Y-128379144D01*
X119425019Y-128251375D01*
X119212547Y-128163366D01*
X118986989Y-128118500D01*
X118757011Y-128118500D01*
X118531453Y-128163366D01*
X118318981Y-128251375D01*
X118127762Y-128379144D01*
X117965144Y-128541762D01*
X117837375Y-128732981D01*
X117749366Y-128945453D01*
X117704500Y-129171011D01*
X98342500Y-129171011D01*
X98342500Y-127183332D01*
X153714500Y-127183332D01*
X153714500Y-127324668D01*
X153742073Y-127463287D01*
X153796159Y-127593864D01*
X153874681Y-127711380D01*
X153974620Y-127811319D01*
X154092136Y-127889841D01*
X154222713Y-127943927D01*
X154361332Y-127971500D01*
X154502668Y-127971500D01*
X154641287Y-127943927D01*
X154771864Y-127889841D01*
X154889380Y-127811319D01*
X154989319Y-127711380D01*
X155067841Y-127593864D01*
X155121927Y-127463287D01*
X155149500Y-127324668D01*
X155149500Y-127183332D01*
X155121927Y-127044713D01*
X155067841Y-126914136D01*
X154989319Y-126796620D01*
X154889380Y-126696681D01*
X154771864Y-126618159D01*
X154641287Y-126564073D01*
X154502668Y-126536500D01*
X154361332Y-126536500D01*
X154222713Y-126564073D01*
X154092136Y-126618159D01*
X153974620Y-126696681D01*
X153874681Y-126796620D01*
X153796159Y-126914136D01*
X153742073Y-127044713D01*
X153714500Y-127183332D01*
X98342500Y-127183332D01*
X98342500Y-124091011D01*
X115164500Y-124091011D01*
X115164500Y-124320989D01*
X115209366Y-124546547D01*
X115297375Y-124759019D01*
X115425144Y-124950238D01*
X115587762Y-125112856D01*
X115778981Y-125240625D01*
X115991453Y-125328634D01*
X116217011Y-125373500D01*
X116446989Y-125373500D01*
X116672547Y-125328634D01*
X116885019Y-125240625D01*
X117076238Y-125112856D01*
X117238856Y-124950238D01*
X117366625Y-124759019D01*
X117454634Y-124546547D01*
X117499500Y-124320989D01*
X117499500Y-124091011D01*
X117704500Y-124091011D01*
X117704500Y-124320989D01*
X117749366Y-124546547D01*
X117837375Y-124759019D01*
X117965144Y-124950238D01*
X118127762Y-125112856D01*
X118318981Y-125240625D01*
X118531453Y-125328634D01*
X118757011Y-125373500D01*
X118986989Y-125373500D01*
X119212547Y-125328634D01*
X119425019Y-125240625D01*
X119616238Y-125112856D01*
X119778856Y-124950238D01*
X119906625Y-124759019D01*
X119994634Y-124546547D01*
X120039500Y-124320989D01*
X120039500Y-124091011D01*
X120244500Y-124091011D01*
X120244500Y-124320989D01*
X120289366Y-124546547D01*
X120377375Y-124759019D01*
X120505144Y-124950238D01*
X120667762Y-125112856D01*
X120858981Y-125240625D01*
X121071453Y-125328634D01*
X121297011Y-125373500D01*
X121526989Y-125373500D01*
X121752547Y-125328634D01*
X121965019Y-125240625D01*
X122156238Y-125112856D01*
X122318856Y-124950238D01*
X122446625Y-124759019D01*
X122534634Y-124546547D01*
X122579500Y-124320989D01*
X122579500Y-124118000D01*
X129894964Y-124118000D01*
X129894964Y-125818000D01*
X129901094Y-125880241D01*
X129919249Y-125940090D01*
X129948731Y-125995247D01*
X129988407Y-126043593D01*
X130036753Y-126083269D01*
X130091910Y-126112751D01*
X130151759Y-126130906D01*
X130214000Y-126137036D01*
X131914000Y-126137036D01*
X131976241Y-126130906D01*
X132036090Y-126112751D01*
X132091247Y-126083269D01*
X132139593Y-126043593D01*
X132179269Y-125995247D01*
X132208751Y-125940090D01*
X132226906Y-125880241D01*
X132233036Y-125818000D01*
X132233036Y-125659332D01*
X155746500Y-125659332D01*
X155746500Y-125800668D01*
X155774073Y-125939287D01*
X155828159Y-126069864D01*
X155906681Y-126187380D01*
X156006620Y-126287319D01*
X156124136Y-126365841D01*
X156254713Y-126419927D01*
X156393332Y-126447500D01*
X156534668Y-126447500D01*
X156673287Y-126419927D01*
X156803864Y-126365841D01*
X156921380Y-126287319D01*
X157021319Y-126187380D01*
X157099841Y-126069864D01*
X157153927Y-125939287D01*
X157181500Y-125800668D01*
X157181500Y-125659332D01*
X157153927Y-125520713D01*
X157099841Y-125390136D01*
X157021319Y-125272620D01*
X156921380Y-125172681D01*
X156803864Y-125094159D01*
X156673287Y-125040073D01*
X156534668Y-125012500D01*
X156393332Y-125012500D01*
X156254713Y-125040073D01*
X156124136Y-125094159D01*
X156006620Y-125172681D01*
X155906681Y-125272620D01*
X155828159Y-125390136D01*
X155774073Y-125520713D01*
X155746500Y-125659332D01*
X132233036Y-125659332D01*
X132233036Y-124118000D01*
X132226906Y-124055759D01*
X132208751Y-123995910D01*
X132179269Y-123940753D01*
X132139593Y-123892407D01*
X132091247Y-123852731D01*
X132036090Y-123823249D01*
X131976241Y-123805094D01*
X131914000Y-123798964D01*
X130214000Y-123798964D01*
X130151759Y-123805094D01*
X130091910Y-123823249D01*
X130036753Y-123852731D01*
X129988407Y-123892407D01*
X129948731Y-123940753D01*
X129919249Y-123995910D01*
X129901094Y-124055759D01*
X129894964Y-124118000D01*
X122579500Y-124118000D01*
X122579500Y-124091011D01*
X122534634Y-123865453D01*
X122446625Y-123652981D01*
X122318856Y-123461762D01*
X122156238Y-123299144D01*
X121965019Y-123171375D01*
X121752547Y-123083366D01*
X121526989Y-123038500D01*
X121297011Y-123038500D01*
X121071453Y-123083366D01*
X120858981Y-123171375D01*
X120667762Y-123299144D01*
X120505144Y-123461762D01*
X120377375Y-123652981D01*
X120289366Y-123865453D01*
X120244500Y-124091011D01*
X120039500Y-124091011D01*
X119994634Y-123865453D01*
X119906625Y-123652981D01*
X119778856Y-123461762D01*
X119616238Y-123299144D01*
X119425019Y-123171375D01*
X119212547Y-123083366D01*
X118986989Y-123038500D01*
X118757011Y-123038500D01*
X118531453Y-123083366D01*
X118318981Y-123171375D01*
X118127762Y-123299144D01*
X117965144Y-123461762D01*
X117837375Y-123652981D01*
X117749366Y-123865453D01*
X117704500Y-124091011D01*
X117499500Y-124091011D01*
X117454634Y-123865453D01*
X117366625Y-123652981D01*
X117238856Y-123461762D01*
X117076238Y-123299144D01*
X116885019Y-123171375D01*
X116672547Y-123083366D01*
X116446989Y-123038500D01*
X116217011Y-123038500D01*
X115991453Y-123083366D01*
X115778981Y-123171375D01*
X115587762Y-123299144D01*
X115425144Y-123461762D01*
X115297375Y-123652981D01*
X115209366Y-123865453D01*
X115164500Y-124091011D01*
X98342500Y-124091011D01*
X98342500Y-121087332D01*
X111550500Y-121087332D01*
X111550500Y-121228668D01*
X111578073Y-121367287D01*
X111632159Y-121497864D01*
X111710681Y-121615380D01*
X111810620Y-121715319D01*
X111928136Y-121793841D01*
X112058713Y-121847927D01*
X112197332Y-121875500D01*
X112338668Y-121875500D01*
X112477287Y-121847927D01*
X112607864Y-121793841D01*
X112725380Y-121715319D01*
X112825319Y-121615380D01*
X112868329Y-121551011D01*
X115164500Y-121551011D01*
X115164500Y-121780989D01*
X115209366Y-122006547D01*
X115297375Y-122219019D01*
X115425144Y-122410238D01*
X115587762Y-122572856D01*
X115778981Y-122700625D01*
X115991453Y-122788634D01*
X116217011Y-122833500D01*
X116446989Y-122833500D01*
X116672547Y-122788634D01*
X116885019Y-122700625D01*
X117076238Y-122572856D01*
X117238856Y-122410238D01*
X117366625Y-122219019D01*
X117454634Y-122006547D01*
X117499500Y-121780989D01*
X117499500Y-121551011D01*
X117704500Y-121551011D01*
X117704500Y-121780989D01*
X117749366Y-122006547D01*
X117837375Y-122219019D01*
X117965144Y-122410238D01*
X118127762Y-122572856D01*
X118318981Y-122700625D01*
X118531453Y-122788634D01*
X118757011Y-122833500D01*
X118986989Y-122833500D01*
X119212547Y-122788634D01*
X119425019Y-122700625D01*
X119616238Y-122572856D01*
X119778856Y-122410238D01*
X119906625Y-122219019D01*
X119994634Y-122006547D01*
X120039500Y-121780989D01*
X120039500Y-121551011D01*
X119994634Y-121325453D01*
X119906625Y-121112981D01*
X119778856Y-120921762D01*
X119673094Y-120816000D01*
X120242964Y-120816000D01*
X120242964Y-122516000D01*
X120249094Y-122578241D01*
X120267249Y-122638090D01*
X120296731Y-122693247D01*
X120336407Y-122741593D01*
X120384753Y-122781269D01*
X120439910Y-122810751D01*
X120499759Y-122828906D01*
X120562000Y-122835036D01*
X122262000Y-122835036D01*
X122324241Y-122828906D01*
X122384090Y-122810751D01*
X122439247Y-122781269D01*
X122487593Y-122741593D01*
X122527269Y-122693247D01*
X122556751Y-122638090D01*
X122574906Y-122578241D01*
X122581036Y-122516000D01*
X122581036Y-122313011D01*
X129896500Y-122313011D01*
X129896500Y-122542989D01*
X129941366Y-122768547D01*
X130029375Y-122981019D01*
X130157144Y-123172238D01*
X130319762Y-123334856D01*
X130510981Y-123462625D01*
X130723453Y-123550634D01*
X130949011Y-123595500D01*
X131178989Y-123595500D01*
X131404547Y-123550634D01*
X131617019Y-123462625D01*
X131808238Y-123334856D01*
X131970856Y-123172238D01*
X132098625Y-122981019D01*
X132186634Y-122768547D01*
X132217905Y-122611332D01*
X147618500Y-122611332D01*
X147618500Y-122752668D01*
X147646073Y-122891287D01*
X147700159Y-123021864D01*
X147778681Y-123139380D01*
X147878620Y-123239319D01*
X147996136Y-123317841D01*
X148126713Y-123371927D01*
X148265332Y-123399500D01*
X148406668Y-123399500D01*
X148538223Y-123373332D01*
X166287500Y-123373332D01*
X166287500Y-123514668D01*
X166315073Y-123653287D01*
X166369159Y-123783864D01*
X166447681Y-123901380D01*
X166547620Y-124001319D01*
X166568843Y-124015500D01*
X166547620Y-124029681D01*
X166447681Y-124129620D01*
X166369159Y-124247136D01*
X166315073Y-124377713D01*
X166287500Y-124516332D01*
X166287500Y-124657668D01*
X166315073Y-124796287D01*
X166369159Y-124926864D01*
X166447681Y-125044380D01*
X166547620Y-125144319D01*
X166665136Y-125222841D01*
X166795713Y-125276927D01*
X166934332Y-125304500D01*
X167075668Y-125304500D01*
X167214287Y-125276927D01*
X167344864Y-125222841D01*
X167462380Y-125144319D01*
X167562319Y-125044380D01*
X167572262Y-125029500D01*
X170250711Y-125029500D01*
X173783991Y-128562781D01*
X173780500Y-128580332D01*
X173780500Y-128721668D01*
X173808073Y-128860287D01*
X173862159Y-128990864D01*
X173940681Y-129108380D01*
X174040620Y-129208319D01*
X174158136Y-129286841D01*
X174288713Y-129340927D01*
X174427332Y-129368500D01*
X174568668Y-129368500D01*
X174707287Y-129340927D01*
X174837864Y-129286841D01*
X174955380Y-129208319D01*
X175055319Y-129108380D01*
X175133841Y-128990864D01*
X175187927Y-128860287D01*
X175215500Y-128721668D01*
X175215500Y-128580332D01*
X175187927Y-128441713D01*
X175133841Y-128311136D01*
X175055319Y-128193620D01*
X174955380Y-128093681D01*
X174837864Y-128015159D01*
X174707287Y-127961073D01*
X174568668Y-127933500D01*
X174427332Y-127933500D01*
X174409781Y-127936991D01*
X172694042Y-126221252D01*
X174675972Y-126221252D01*
X174743241Y-126429737D01*
X174849890Y-126621093D01*
X174991822Y-126787966D01*
X175163582Y-126923943D01*
X175358570Y-127023798D01*
X175530749Y-127076024D01*
X175704500Y-127020181D01*
X175704500Y-126047500D01*
X174731677Y-126047500D01*
X174675972Y-126221252D01*
X172694042Y-126221252D01*
X172219538Y-125746748D01*
X174675972Y-125746748D01*
X174731677Y-125920500D01*
X175704500Y-125920500D01*
X175704500Y-124947819D01*
X175530749Y-124891976D01*
X175358570Y-124944202D01*
X175163582Y-125044057D01*
X174991822Y-125180034D01*
X174849890Y-125346907D01*
X174743241Y-125538263D01*
X174675972Y-125746748D01*
X172219538Y-125746748D01*
X170762270Y-124289481D01*
X170748409Y-124272591D01*
X170681029Y-124217295D01*
X170604157Y-124176205D01*
X170520745Y-124150903D01*
X170455737Y-124144500D01*
X170455734Y-124144500D01*
X170434000Y-124142359D01*
X170412266Y-124144500D01*
X167572262Y-124144500D01*
X167562319Y-124129620D01*
X167462380Y-124029681D01*
X167441157Y-124015500D01*
X167462380Y-124001319D01*
X167562319Y-123901380D01*
X167572262Y-123886500D01*
X175203711Y-123886500D01*
X176349563Y-125032353D01*
X176177430Y-124944202D01*
X176005251Y-124891976D01*
X175831500Y-124947819D01*
X175831500Y-125920500D01*
X175851500Y-125920500D01*
X175851500Y-126047500D01*
X175831500Y-126047500D01*
X175831500Y-127020181D01*
X176005251Y-127076024D01*
X176177430Y-127023798D01*
X176372418Y-126923943D01*
X176544178Y-126787966D01*
X176595500Y-126727625D01*
X176595501Y-128083738D01*
X176580620Y-128093681D01*
X176480681Y-128193620D01*
X176402159Y-128311136D01*
X176348073Y-128441713D01*
X176320500Y-128580332D01*
X176320500Y-128721668D01*
X176348073Y-128860287D01*
X176402159Y-128990864D01*
X176480681Y-129108380D01*
X176580620Y-129208319D01*
X176698136Y-129286841D01*
X176828713Y-129340927D01*
X176967332Y-129368500D01*
X177108668Y-129368500D01*
X177247287Y-129340927D01*
X177377864Y-129286841D01*
X177495380Y-129208319D01*
X177595319Y-129108380D01*
X177673841Y-128990864D01*
X177727927Y-128860287D01*
X177755500Y-128721668D01*
X177755500Y-128580332D01*
X177727927Y-128441713D01*
X177673841Y-128311136D01*
X177595319Y-128193620D01*
X177495380Y-128093681D01*
X177480500Y-128083738D01*
X177480500Y-126727625D01*
X177531822Y-126787966D01*
X177703582Y-126923943D01*
X177898570Y-127023798D01*
X178070749Y-127076024D01*
X178244500Y-127020181D01*
X178244500Y-126047500D01*
X178224500Y-126047500D01*
X178224500Y-125920500D01*
X178244500Y-125920500D01*
X178244500Y-124947819D01*
X178070749Y-124891976D01*
X177898570Y-124944202D01*
X177703582Y-125044057D01*
X177531822Y-125180034D01*
X177480500Y-125240375D01*
X177480500Y-125116737D01*
X177482641Y-125095000D01*
X177474097Y-125008255D01*
X177448795Y-124924843D01*
X177407705Y-124847971D01*
X177366265Y-124797475D01*
X177352409Y-124780591D01*
X177335526Y-124766736D01*
X175715270Y-123146481D01*
X175701409Y-123129591D01*
X175634029Y-123074295D01*
X175557157Y-123033205D01*
X175473745Y-123007903D01*
X175408737Y-123001500D01*
X175408734Y-123001500D01*
X175387000Y-122999359D01*
X175365266Y-123001500D01*
X168204589Y-123001500D01*
X168207262Y-122997500D01*
X176854711Y-122997500D01*
X178889565Y-125032354D01*
X178717430Y-124944202D01*
X178545251Y-124891976D01*
X178371500Y-124947819D01*
X178371500Y-125920500D01*
X178391500Y-125920500D01*
X178391500Y-126047500D01*
X178371500Y-126047500D01*
X178371500Y-127020181D01*
X178545251Y-127076024D01*
X178717430Y-127023798D01*
X178912418Y-126923943D01*
X179084178Y-126787966D01*
X179135500Y-126727625D01*
X179135501Y-128083738D01*
X179120620Y-128093681D01*
X179020681Y-128193620D01*
X178942159Y-128311136D01*
X178888073Y-128441713D01*
X178860500Y-128580332D01*
X178860500Y-128721668D01*
X178888073Y-128860287D01*
X178942159Y-128990864D01*
X179020681Y-129108380D01*
X179120620Y-129208319D01*
X179238136Y-129286841D01*
X179368713Y-129340927D01*
X179507332Y-129368500D01*
X179648668Y-129368500D01*
X179787287Y-129340927D01*
X179917864Y-129286841D01*
X180035380Y-129208319D01*
X180135319Y-129108380D01*
X180213841Y-128990864D01*
X180267927Y-128860287D01*
X180295500Y-128721668D01*
X180295500Y-128580332D01*
X180267927Y-128441713D01*
X180213841Y-128311136D01*
X180135319Y-128193620D01*
X180035380Y-128093681D01*
X180020500Y-128083738D01*
X180020500Y-126727625D01*
X180071822Y-126787966D01*
X180243582Y-126923943D01*
X180438570Y-127023798D01*
X180610749Y-127076024D01*
X180784500Y-127020181D01*
X180784500Y-126047500D01*
X180764500Y-126047500D01*
X180764500Y-125920500D01*
X180784500Y-125920500D01*
X180784500Y-124947819D01*
X180610749Y-124891976D01*
X180438570Y-124944202D01*
X180243582Y-125044057D01*
X180071822Y-125180034D01*
X180020500Y-125240375D01*
X180020500Y-125116733D01*
X180022641Y-125094999D01*
X180017623Y-125044057D01*
X180014097Y-125008255D01*
X179988795Y-124924843D01*
X179947705Y-124847971D01*
X179892409Y-124780591D01*
X179875521Y-124766732D01*
X177598289Y-122489500D01*
X178886711Y-122489500D01*
X181429563Y-125032353D01*
X181257430Y-124944202D01*
X181085251Y-124891976D01*
X180911500Y-124947819D01*
X180911500Y-125920500D01*
X180931500Y-125920500D01*
X180931500Y-126047500D01*
X180911500Y-126047500D01*
X180911500Y-127020181D01*
X181085251Y-127076024D01*
X181257430Y-127023798D01*
X181452418Y-126923943D01*
X181624178Y-126787966D01*
X181675500Y-126727625D01*
X181675501Y-128083738D01*
X181660620Y-128093681D01*
X181560681Y-128193620D01*
X181482159Y-128311136D01*
X181428073Y-128441713D01*
X181400500Y-128580332D01*
X181400500Y-128721668D01*
X181428073Y-128860287D01*
X181482159Y-128990864D01*
X181560681Y-129108380D01*
X181660620Y-129208319D01*
X181778136Y-129286841D01*
X181908713Y-129340927D01*
X182047332Y-129368500D01*
X182188668Y-129368500D01*
X182327287Y-129340927D01*
X182457864Y-129286841D01*
X182575380Y-129208319D01*
X182675319Y-129108380D01*
X182753841Y-128990864D01*
X182807927Y-128860287D01*
X182835500Y-128721668D01*
X182835500Y-128580332D01*
X182807927Y-128441713D01*
X182753841Y-128311136D01*
X182675319Y-128193620D01*
X182575380Y-128093681D01*
X182560500Y-128083738D01*
X182560500Y-126727625D01*
X182611822Y-126787966D01*
X182783582Y-126923943D01*
X182978570Y-127023798D01*
X183150749Y-127076024D01*
X183324500Y-127020181D01*
X183324500Y-126047500D01*
X183304500Y-126047500D01*
X183304500Y-125920500D01*
X183324500Y-125920500D01*
X183324500Y-124947819D01*
X183150749Y-124891976D01*
X182978570Y-124944202D01*
X182783582Y-125044057D01*
X182611822Y-125180034D01*
X182560500Y-125240375D01*
X182560500Y-125116734D01*
X182562641Y-125095000D01*
X182557623Y-125044057D01*
X182554097Y-125008255D01*
X182528795Y-124924843D01*
X182511227Y-124891976D01*
X182487705Y-124847970D01*
X182446265Y-124797475D01*
X182432409Y-124780591D01*
X182415526Y-124766736D01*
X179630289Y-121981500D01*
X180918711Y-121981500D01*
X183969565Y-125032354D01*
X183797430Y-124944202D01*
X183625251Y-124891976D01*
X183451500Y-124947819D01*
X183451500Y-125920500D01*
X183471500Y-125920500D01*
X183471500Y-126047500D01*
X183451500Y-126047500D01*
X183451500Y-127020181D01*
X183625251Y-127076024D01*
X183797430Y-127023798D01*
X183992418Y-126923943D01*
X184164178Y-126787966D01*
X184215500Y-126727625D01*
X184215501Y-128083738D01*
X184200620Y-128093681D01*
X184100681Y-128193620D01*
X184022159Y-128311136D01*
X183968073Y-128441713D01*
X183940500Y-128580332D01*
X183940500Y-128721668D01*
X183968073Y-128860287D01*
X184022159Y-128990864D01*
X184100681Y-129108380D01*
X184200620Y-129208319D01*
X184318136Y-129286841D01*
X184448713Y-129340927D01*
X184587332Y-129368500D01*
X184728668Y-129368500D01*
X184867287Y-129340927D01*
X184997864Y-129286841D01*
X185115380Y-129208319D01*
X185215319Y-129108380D01*
X185293841Y-128990864D01*
X185347927Y-128860287D01*
X185375500Y-128721668D01*
X185375500Y-128580332D01*
X185347927Y-128441713D01*
X185293841Y-128311136D01*
X185215319Y-128193620D01*
X185115380Y-128093681D01*
X185100500Y-128083738D01*
X185100500Y-126727625D01*
X185151822Y-126787966D01*
X185323582Y-126923943D01*
X185518570Y-127023798D01*
X185690749Y-127076024D01*
X185864500Y-127020181D01*
X185864500Y-126047500D01*
X185991500Y-126047500D01*
X185991500Y-127020181D01*
X186165251Y-127076024D01*
X186337430Y-127023798D01*
X186532418Y-126923943D01*
X186704178Y-126787966D01*
X186846110Y-126621093D01*
X186952759Y-126429737D01*
X187020028Y-126221252D01*
X186964323Y-126047500D01*
X185991500Y-126047500D01*
X185864500Y-126047500D01*
X185844500Y-126047500D01*
X185844500Y-125920500D01*
X185864500Y-125920500D01*
X185864500Y-124947819D01*
X185991500Y-124947819D01*
X185991500Y-125920500D01*
X186964323Y-125920500D01*
X187020028Y-125746748D01*
X186952759Y-125538263D01*
X186846110Y-125346907D01*
X186704178Y-125180034D01*
X186532418Y-125044057D01*
X186337430Y-124944202D01*
X186165251Y-124891976D01*
X185991500Y-124947819D01*
X185864500Y-124947819D01*
X185690749Y-124891976D01*
X185518570Y-124944202D01*
X185323582Y-125044057D01*
X185151822Y-125180034D01*
X185100500Y-125240375D01*
X185100500Y-125116733D01*
X185102641Y-125094999D01*
X185097623Y-125044057D01*
X185094097Y-125008255D01*
X185068795Y-124924843D01*
X185027705Y-124847971D01*
X184972409Y-124780591D01*
X184955521Y-124766732D01*
X181430270Y-121241481D01*
X181416409Y-121224591D01*
X181349029Y-121169295D01*
X181272157Y-121128205D01*
X181188745Y-121102903D01*
X181123737Y-121096500D01*
X181123734Y-121096500D01*
X181102000Y-121094359D01*
X181080266Y-121096500D01*
X179734133Y-121096500D01*
X179787287Y-121085927D01*
X179917864Y-121031841D01*
X180035380Y-120953319D01*
X180135319Y-120853380D01*
X180213841Y-120735864D01*
X180267927Y-120605287D01*
X180295500Y-120466668D01*
X180295500Y-120325332D01*
X180267927Y-120186713D01*
X180213841Y-120056136D01*
X180135319Y-119938620D01*
X180035380Y-119838681D01*
X179917864Y-119760159D01*
X179787287Y-119706073D01*
X179648668Y-119678500D01*
X179507332Y-119678500D01*
X179368713Y-119706073D01*
X179238136Y-119760159D01*
X179120620Y-119838681D01*
X179020681Y-119938620D01*
X178942159Y-120056136D01*
X178888073Y-120186713D01*
X178860500Y-120325332D01*
X178860500Y-120466668D01*
X178888073Y-120605287D01*
X178942159Y-120735864D01*
X179020681Y-120853380D01*
X179120620Y-120953319D01*
X179238136Y-121031841D01*
X179368713Y-121085927D01*
X179421867Y-121096500D01*
X169404292Y-121096500D01*
X168787271Y-120479480D01*
X168773411Y-120462591D01*
X168706031Y-120407295D01*
X168629159Y-120366205D01*
X168545747Y-120340903D01*
X168480739Y-120334500D01*
X168480736Y-120334500D01*
X168459002Y-120332359D01*
X168437268Y-120334500D01*
X168207262Y-120334500D01*
X168197319Y-120319620D01*
X168097380Y-120219681D01*
X167979864Y-120141159D01*
X167849287Y-120087073D01*
X167710668Y-120059500D01*
X167569332Y-120059500D01*
X167430713Y-120087073D01*
X167300136Y-120141159D01*
X167182620Y-120219681D01*
X167082681Y-120319620D01*
X167004159Y-120437136D01*
X166950073Y-120567713D01*
X166922500Y-120706332D01*
X166922500Y-120847668D01*
X166950073Y-120986287D01*
X167004159Y-121116864D01*
X167082681Y-121234380D01*
X167182620Y-121334319D01*
X167300136Y-121412841D01*
X167430713Y-121466927D01*
X167569332Y-121494500D01*
X167577557Y-121494500D01*
X167557500Y-121595332D01*
X167557500Y-121736668D01*
X167577557Y-121837500D01*
X167569332Y-121837500D01*
X167430713Y-121865073D01*
X167300136Y-121919159D01*
X167182620Y-121997681D01*
X167082681Y-122097620D01*
X167004159Y-122215136D01*
X166950073Y-122345713D01*
X166922500Y-122484332D01*
X166922500Y-122625668D01*
X166942557Y-122726500D01*
X166934332Y-122726500D01*
X166795713Y-122754073D01*
X166665136Y-122808159D01*
X166547620Y-122886681D01*
X166447681Y-122986620D01*
X166369159Y-123104136D01*
X166315073Y-123234713D01*
X166287500Y-123373332D01*
X148538223Y-123373332D01*
X148545287Y-123371927D01*
X148675864Y-123317841D01*
X148793380Y-123239319D01*
X148893319Y-123139380D01*
X148971841Y-123021864D01*
X149025927Y-122891287D01*
X149053500Y-122752668D01*
X149053500Y-122611332D01*
X149025927Y-122472713D01*
X148978136Y-122357332D01*
X159810500Y-122357332D01*
X159810500Y-122498668D01*
X159838073Y-122637287D01*
X159892159Y-122767864D01*
X159970681Y-122885380D01*
X160070620Y-122985319D01*
X160188136Y-123063841D01*
X160318713Y-123117927D01*
X160457332Y-123145500D01*
X160598668Y-123145500D01*
X160737287Y-123117927D01*
X160867864Y-123063841D01*
X160985380Y-122985319D01*
X161085319Y-122885380D01*
X161163841Y-122767864D01*
X161217927Y-122637287D01*
X161245500Y-122498668D01*
X161245500Y-122357332D01*
X161217927Y-122218713D01*
X161163841Y-122088136D01*
X161085319Y-121970620D01*
X160985380Y-121870681D01*
X160867864Y-121792159D01*
X160737287Y-121738073D01*
X160598668Y-121710500D01*
X160457332Y-121710500D01*
X160318713Y-121738073D01*
X160188136Y-121792159D01*
X160070620Y-121870681D01*
X159970681Y-121970620D01*
X159892159Y-122088136D01*
X159838073Y-122218713D01*
X159810500Y-122357332D01*
X148978136Y-122357332D01*
X148971841Y-122342136D01*
X148893319Y-122224620D01*
X148793380Y-122124681D01*
X148675864Y-122046159D01*
X148545287Y-121992073D01*
X148406668Y-121964500D01*
X148265332Y-121964500D01*
X148126713Y-121992073D01*
X147996136Y-122046159D01*
X147878620Y-122124681D01*
X147778681Y-122224620D01*
X147700159Y-122342136D01*
X147646073Y-122472713D01*
X147618500Y-122611332D01*
X132217905Y-122611332D01*
X132231500Y-122542989D01*
X132231500Y-122313011D01*
X132186634Y-122087453D01*
X132098625Y-121874981D01*
X131970856Y-121683762D01*
X131808238Y-121521144D01*
X131617019Y-121393375D01*
X131404547Y-121305366D01*
X131178989Y-121260500D01*
X130949011Y-121260500D01*
X130723453Y-121305366D01*
X130510981Y-121393375D01*
X130319762Y-121521144D01*
X130157144Y-121683762D01*
X130029375Y-121874981D01*
X129941366Y-122087453D01*
X129896500Y-122313011D01*
X122581036Y-122313011D01*
X122581036Y-120816000D01*
X122574906Y-120753759D01*
X122560520Y-120706332D01*
X161207500Y-120706332D01*
X161207500Y-120847668D01*
X161235073Y-120986287D01*
X161289159Y-121116864D01*
X161367681Y-121234380D01*
X161467620Y-121334319D01*
X161585136Y-121412841D01*
X161715713Y-121466927D01*
X161854332Y-121494500D01*
X161995668Y-121494500D01*
X162134287Y-121466927D01*
X162264864Y-121412841D01*
X162382380Y-121334319D01*
X162482319Y-121234380D01*
X162560841Y-121116864D01*
X162614927Y-120986287D01*
X162640753Y-120856452D01*
X162737620Y-120953319D01*
X162855136Y-121031841D01*
X162985713Y-121085927D01*
X163124332Y-121113500D01*
X163265668Y-121113500D01*
X163404287Y-121085927D01*
X163534864Y-121031841D01*
X163652380Y-120953319D01*
X163752319Y-120853380D01*
X163830841Y-120735864D01*
X163884927Y-120605287D01*
X163912500Y-120466668D01*
X163912500Y-120325332D01*
X163884927Y-120186713D01*
X163830841Y-120056136D01*
X163752319Y-119938620D01*
X163652380Y-119838681D01*
X163534864Y-119760159D01*
X163404287Y-119706073D01*
X163265668Y-119678500D01*
X163124332Y-119678500D01*
X162985713Y-119706073D01*
X162855136Y-119760159D01*
X162737620Y-119838681D01*
X162637681Y-119938620D01*
X162559159Y-120056136D01*
X162505073Y-120186713D01*
X162479247Y-120316548D01*
X162382380Y-120219681D01*
X162264864Y-120141159D01*
X162134287Y-120087073D01*
X161995668Y-120059500D01*
X161854332Y-120059500D01*
X161715713Y-120087073D01*
X161585136Y-120141159D01*
X161467620Y-120219681D01*
X161367681Y-120319620D01*
X161289159Y-120437136D01*
X161235073Y-120567713D01*
X161207500Y-120706332D01*
X122560520Y-120706332D01*
X122556751Y-120693910D01*
X122527269Y-120638753D01*
X122487593Y-120590407D01*
X122439247Y-120550731D01*
X122384090Y-120521249D01*
X122324241Y-120503094D01*
X122262000Y-120496964D01*
X120562000Y-120496964D01*
X120499759Y-120503094D01*
X120439910Y-120521249D01*
X120384753Y-120550731D01*
X120336407Y-120590407D01*
X120296731Y-120638753D01*
X120267249Y-120693910D01*
X120249094Y-120753759D01*
X120242964Y-120816000D01*
X119673094Y-120816000D01*
X119616238Y-120759144D01*
X119425019Y-120631375D01*
X119212547Y-120543366D01*
X118986989Y-120498500D01*
X118757011Y-120498500D01*
X118531453Y-120543366D01*
X118318981Y-120631375D01*
X118127762Y-120759144D01*
X117965144Y-120921762D01*
X117837375Y-121112981D01*
X117749366Y-121325453D01*
X117704500Y-121551011D01*
X117499500Y-121551011D01*
X117454634Y-121325453D01*
X117366625Y-121112981D01*
X117238856Y-120921762D01*
X117076238Y-120759144D01*
X116885019Y-120631375D01*
X116672547Y-120543366D01*
X116446989Y-120498500D01*
X116217011Y-120498500D01*
X115991453Y-120543366D01*
X115778981Y-120631375D01*
X115587762Y-120759144D01*
X115425144Y-120921762D01*
X115297375Y-121112981D01*
X115209366Y-121325453D01*
X115164500Y-121551011D01*
X112868329Y-121551011D01*
X112903841Y-121497864D01*
X112957927Y-121367287D01*
X112985500Y-121228668D01*
X112985500Y-121087332D01*
X112957927Y-120948713D01*
X112903841Y-120818136D01*
X112825319Y-120700620D01*
X112725380Y-120600681D01*
X112607864Y-120522159D01*
X112477287Y-120468073D01*
X112338668Y-120440500D01*
X112197332Y-120440500D01*
X112058713Y-120468073D01*
X111928136Y-120522159D01*
X111810620Y-120600681D01*
X111710681Y-120700620D01*
X111632159Y-120818136D01*
X111578073Y-120948713D01*
X111550500Y-121087332D01*
X98342500Y-121087332D01*
X98342500Y-119563332D01*
X107994500Y-119563332D01*
X107994500Y-119704668D01*
X108022073Y-119843287D01*
X108076159Y-119973864D01*
X108154681Y-120091380D01*
X108254620Y-120191319D01*
X108372136Y-120269841D01*
X108502713Y-120323927D01*
X108641332Y-120351500D01*
X108782668Y-120351500D01*
X108921287Y-120323927D01*
X109051864Y-120269841D01*
X109169380Y-120191319D01*
X109269319Y-120091380D01*
X109347841Y-119973864D01*
X109401927Y-119843287D01*
X109429500Y-119704668D01*
X109429500Y-119563332D01*
X109401927Y-119424713D01*
X109354136Y-119309332D01*
X136950500Y-119309332D01*
X136950500Y-119450668D01*
X136978073Y-119589287D01*
X137032159Y-119719864D01*
X137110681Y-119837380D01*
X137210620Y-119937319D01*
X137328136Y-120015841D01*
X137458713Y-120069927D01*
X137597332Y-120097500D01*
X137738668Y-120097500D01*
X137877287Y-120069927D01*
X138007864Y-120015841D01*
X138125380Y-119937319D01*
X138225319Y-119837380D01*
X138303841Y-119719864D01*
X138357927Y-119589287D01*
X138385500Y-119450668D01*
X138385500Y-119309332D01*
X138357927Y-119170713D01*
X138303841Y-119040136D01*
X138225319Y-118922620D01*
X138125380Y-118822681D01*
X138007864Y-118744159D01*
X137877287Y-118690073D01*
X137738668Y-118662500D01*
X137597332Y-118662500D01*
X137458713Y-118690073D01*
X137328136Y-118744159D01*
X137210620Y-118822681D01*
X137110681Y-118922620D01*
X137032159Y-119040136D01*
X136978073Y-119170713D01*
X136950500Y-119309332D01*
X109354136Y-119309332D01*
X109347841Y-119294136D01*
X109269319Y-119176620D01*
X109169380Y-119076681D01*
X109051864Y-118998159D01*
X108921287Y-118944073D01*
X108782668Y-118916500D01*
X108641332Y-118916500D01*
X108502713Y-118944073D01*
X108372136Y-118998159D01*
X108254620Y-119076681D01*
X108154681Y-119176620D01*
X108076159Y-119294136D01*
X108022073Y-119424713D01*
X107994500Y-119563332D01*
X98342500Y-119563332D01*
X98342500Y-115990000D01*
X129894964Y-115990000D01*
X129894964Y-117690000D01*
X129901094Y-117752241D01*
X129919249Y-117812090D01*
X129948731Y-117867247D01*
X129988407Y-117915593D01*
X130036753Y-117955269D01*
X130091910Y-117984751D01*
X130151759Y-118002906D01*
X130214000Y-118009036D01*
X131914000Y-118009036D01*
X131976241Y-118002906D01*
X132036090Y-117984751D01*
X132091247Y-117955269D01*
X132139593Y-117915593D01*
X132179269Y-117867247D01*
X132208751Y-117812090D01*
X132226906Y-117752241D01*
X132233036Y-117690000D01*
X132233036Y-117277332D01*
X148888500Y-117277332D01*
X148888500Y-117418668D01*
X148916073Y-117557287D01*
X148970159Y-117687864D01*
X149048681Y-117805380D01*
X149148620Y-117905319D01*
X149266136Y-117983841D01*
X149396713Y-118037927D01*
X149535332Y-118065500D01*
X149676668Y-118065500D01*
X149815287Y-118037927D01*
X149945864Y-117983841D01*
X150063380Y-117905319D01*
X150163319Y-117805380D01*
X150176714Y-117785332D01*
X153460500Y-117785332D01*
X153460500Y-117926668D01*
X153488073Y-118065287D01*
X153542159Y-118195864D01*
X153620681Y-118313380D01*
X153720620Y-118413319D01*
X153838136Y-118491841D01*
X153968713Y-118545927D01*
X154107332Y-118573500D01*
X154248668Y-118573500D01*
X154387287Y-118545927D01*
X154517864Y-118491841D01*
X154635380Y-118413319D01*
X154735319Y-118313380D01*
X154813841Y-118195864D01*
X154867927Y-118065287D01*
X154895500Y-117926668D01*
X154895500Y-117785332D01*
X158032500Y-117785332D01*
X158032500Y-117926668D01*
X158060073Y-118065287D01*
X158114159Y-118195864D01*
X158192681Y-118313380D01*
X158292620Y-118413319D01*
X158410136Y-118491841D01*
X158540713Y-118545927D01*
X158679332Y-118573500D01*
X158820668Y-118573500D01*
X158959287Y-118545927D01*
X159089864Y-118491841D01*
X159207380Y-118413319D01*
X159307319Y-118313380D01*
X159385841Y-118195864D01*
X159439927Y-118065287D01*
X159467500Y-117926668D01*
X159467500Y-117785332D01*
X159439927Y-117646713D01*
X159385841Y-117516136D01*
X159307319Y-117398620D01*
X159207380Y-117298681D01*
X159089864Y-117220159D01*
X158959287Y-117166073D01*
X158820668Y-117138500D01*
X158679332Y-117138500D01*
X158540713Y-117166073D01*
X158410136Y-117220159D01*
X158292620Y-117298681D01*
X158192681Y-117398620D01*
X158114159Y-117516136D01*
X158060073Y-117646713D01*
X158032500Y-117785332D01*
X154895500Y-117785332D01*
X154867927Y-117646713D01*
X154813841Y-117516136D01*
X154735319Y-117398620D01*
X154635380Y-117298681D01*
X154517864Y-117220159D01*
X154387287Y-117166073D01*
X154248668Y-117138500D01*
X154107332Y-117138500D01*
X153968713Y-117166073D01*
X153838136Y-117220159D01*
X153720620Y-117298681D01*
X153620681Y-117398620D01*
X153542159Y-117516136D01*
X153488073Y-117646713D01*
X153460500Y-117785332D01*
X150176714Y-117785332D01*
X150241841Y-117687864D01*
X150295927Y-117557287D01*
X150323500Y-117418668D01*
X150323500Y-117277332D01*
X150295927Y-117138713D01*
X150248136Y-117023332D01*
X161334500Y-117023332D01*
X161334500Y-117164668D01*
X161362073Y-117303287D01*
X161416159Y-117433864D01*
X161494681Y-117551380D01*
X161594620Y-117651319D01*
X161712136Y-117729841D01*
X161842713Y-117783927D01*
X161981332Y-117811500D01*
X162122668Y-117811500D01*
X162254183Y-117785340D01*
X162863153Y-117785340D01*
X162863153Y-117926676D01*
X162890726Y-118065295D01*
X162944812Y-118195872D01*
X163023334Y-118313388D01*
X163123273Y-118413327D01*
X163240789Y-118491849D01*
X163371366Y-118545935D01*
X163509985Y-118573508D01*
X163651321Y-118573508D01*
X163789940Y-118545935D01*
X163920517Y-118491849D01*
X164038033Y-118413327D01*
X164137972Y-118313388D01*
X164216494Y-118195872D01*
X164255755Y-118101085D01*
X186564514Y-118101085D01*
X186620724Y-118286396D01*
X186725543Y-118489853D01*
X186868041Y-118668951D01*
X187042741Y-118816808D01*
X187242930Y-118927742D01*
X187460914Y-118997489D01*
X187642500Y-118942400D01*
X187642500Y-117919500D01*
X187769500Y-117919500D01*
X187769500Y-118942400D01*
X187951086Y-118997489D01*
X188169070Y-118927742D01*
X188369259Y-118816808D01*
X188543959Y-118668951D01*
X188686457Y-118489853D01*
X188791276Y-118286396D01*
X188847486Y-118101085D01*
X188792271Y-117919500D01*
X187769500Y-117919500D01*
X187642500Y-117919500D01*
X186619729Y-117919500D01*
X186564514Y-118101085D01*
X164255755Y-118101085D01*
X164270580Y-118065295D01*
X164298153Y-117926676D01*
X164298153Y-117785340D01*
X164270580Y-117646721D01*
X164255749Y-117610915D01*
X186564514Y-117610915D01*
X186619729Y-117792500D01*
X187642500Y-117792500D01*
X187642500Y-116769600D01*
X187769500Y-116769600D01*
X187769500Y-117792500D01*
X188792271Y-117792500D01*
X188847486Y-117610915D01*
X188791276Y-117425604D01*
X188686457Y-117222147D01*
X188543959Y-117043049D01*
X188369259Y-116895192D01*
X188169070Y-116784258D01*
X187951086Y-116714511D01*
X187769500Y-116769600D01*
X187642500Y-116769600D01*
X187460914Y-116714511D01*
X187242930Y-116784258D01*
X187042741Y-116895192D01*
X186868041Y-117043049D01*
X186725543Y-117222147D01*
X186620724Y-117425604D01*
X186564514Y-117610915D01*
X164255749Y-117610915D01*
X164216494Y-117516144D01*
X164137972Y-117398628D01*
X164038033Y-117298689D01*
X163920517Y-117220167D01*
X163789940Y-117166081D01*
X163651321Y-117138508D01*
X163509985Y-117138508D01*
X163371366Y-117166081D01*
X163240789Y-117220167D01*
X163123273Y-117298689D01*
X163023334Y-117398628D01*
X162944812Y-117516144D01*
X162890726Y-117646721D01*
X162863153Y-117785340D01*
X162254183Y-117785340D01*
X162261287Y-117783927D01*
X162391864Y-117729841D01*
X162509380Y-117651319D01*
X162609319Y-117551380D01*
X162687841Y-117433864D01*
X162741927Y-117303287D01*
X162769500Y-117164668D01*
X162769500Y-117023332D01*
X162741927Y-116884713D01*
X162687841Y-116754136D01*
X162609319Y-116636620D01*
X162509380Y-116536681D01*
X162391864Y-116458159D01*
X162261287Y-116404073D01*
X162122668Y-116376500D01*
X161981332Y-116376500D01*
X161842713Y-116404073D01*
X161712136Y-116458159D01*
X161594620Y-116536681D01*
X161494681Y-116636620D01*
X161416159Y-116754136D01*
X161362073Y-116884713D01*
X161334500Y-117023332D01*
X150248136Y-117023332D01*
X150241841Y-117008136D01*
X150163319Y-116890620D01*
X150063380Y-116790681D01*
X149945864Y-116712159D01*
X149815287Y-116658073D01*
X149676668Y-116630500D01*
X149535332Y-116630500D01*
X149396713Y-116658073D01*
X149266136Y-116712159D01*
X149148620Y-116790681D01*
X149048681Y-116890620D01*
X148970159Y-117008136D01*
X148916073Y-117138713D01*
X148888500Y-117277332D01*
X132233036Y-117277332D01*
X132233036Y-115990000D01*
X132226906Y-115927759D01*
X132208751Y-115867910D01*
X132179269Y-115812753D01*
X132139593Y-115764407D01*
X132091247Y-115724731D01*
X132036090Y-115695249D01*
X131976241Y-115677094D01*
X131914000Y-115670964D01*
X130214000Y-115670964D01*
X130151759Y-115677094D01*
X130091910Y-115695249D01*
X130036753Y-115724731D01*
X129988407Y-115764407D01*
X129948731Y-115812753D01*
X129919249Y-115867910D01*
X129901094Y-115927759D01*
X129894964Y-115990000D01*
X98342500Y-115990000D01*
X98342500Y-115499332D01*
X146348500Y-115499332D01*
X146348500Y-115640668D01*
X146376073Y-115779287D01*
X146430159Y-115909864D01*
X146508681Y-116027380D01*
X146608620Y-116127319D01*
X146726136Y-116205841D01*
X146856713Y-116259927D01*
X146995332Y-116287500D01*
X147136668Y-116287500D01*
X147275287Y-116259927D01*
X147405864Y-116205841D01*
X147523380Y-116127319D01*
X147623319Y-116027380D01*
X147701841Y-115909864D01*
X147755927Y-115779287D01*
X147783500Y-115640668D01*
X147783500Y-115499332D01*
X147755927Y-115360713D01*
X147701841Y-115230136D01*
X147682381Y-115201011D01*
X186538500Y-115201011D01*
X186538500Y-115430989D01*
X186583366Y-115656547D01*
X186671375Y-115869019D01*
X186799144Y-116060238D01*
X186961762Y-116222856D01*
X187152981Y-116350625D01*
X187365453Y-116438634D01*
X187591011Y-116483500D01*
X187820989Y-116483500D01*
X188046547Y-116438634D01*
X188259019Y-116350625D01*
X188450238Y-116222856D01*
X188612856Y-116060238D01*
X188740625Y-115869019D01*
X188828634Y-115656547D01*
X188873500Y-115430989D01*
X188873500Y-115201011D01*
X188828634Y-114975453D01*
X188740625Y-114762981D01*
X188612856Y-114571762D01*
X188450238Y-114409144D01*
X188259019Y-114281375D01*
X188046547Y-114193366D01*
X187820989Y-114148500D01*
X187591011Y-114148500D01*
X187365453Y-114193366D01*
X187152981Y-114281375D01*
X186961762Y-114409144D01*
X186799144Y-114571762D01*
X186671375Y-114762981D01*
X186583366Y-114975453D01*
X186538500Y-115201011D01*
X147682381Y-115201011D01*
X147623319Y-115112620D01*
X147523380Y-115012681D01*
X147405864Y-114934159D01*
X147275287Y-114880073D01*
X147136668Y-114852500D01*
X146995332Y-114852500D01*
X146856713Y-114880073D01*
X146726136Y-114934159D01*
X146608620Y-115012681D01*
X146508681Y-115112620D01*
X146430159Y-115230136D01*
X146376073Y-115360713D01*
X146348500Y-115499332D01*
X98342500Y-115499332D01*
X98342500Y-114185011D01*
X129896500Y-114185011D01*
X129896500Y-114414989D01*
X129941366Y-114640547D01*
X130029375Y-114853019D01*
X130157144Y-115044238D01*
X130319762Y-115206856D01*
X130510981Y-115334625D01*
X130723453Y-115422634D01*
X130949011Y-115467500D01*
X131178989Y-115467500D01*
X131404547Y-115422634D01*
X131617019Y-115334625D01*
X131808238Y-115206856D01*
X131970856Y-115044238D01*
X132098625Y-114853019D01*
X132186634Y-114640547D01*
X132231500Y-114414989D01*
X132231500Y-114185011D01*
X132186634Y-113959453D01*
X132098625Y-113746981D01*
X132081487Y-113721332D01*
X146348500Y-113721332D01*
X146348500Y-113862668D01*
X146376073Y-114001287D01*
X146430159Y-114131864D01*
X146508681Y-114249380D01*
X146608620Y-114349319D01*
X146726136Y-114427841D01*
X146856713Y-114481927D01*
X146995332Y-114509500D01*
X147136668Y-114509500D01*
X147275287Y-114481927D01*
X147405864Y-114427841D01*
X147523380Y-114349319D01*
X147623319Y-114249380D01*
X147701841Y-114131864D01*
X147755927Y-114001287D01*
X147761089Y-113975332D01*
X155746500Y-113975332D01*
X155746500Y-114116668D01*
X155774073Y-114255287D01*
X155828159Y-114385864D01*
X155906681Y-114503380D01*
X156006620Y-114603319D01*
X156124136Y-114681841D01*
X156254713Y-114735927D01*
X156393332Y-114763500D01*
X156534668Y-114763500D01*
X156673287Y-114735927D01*
X156803864Y-114681841D01*
X156921380Y-114603319D01*
X157021319Y-114503380D01*
X157099841Y-114385864D01*
X157153927Y-114255287D01*
X157181500Y-114116668D01*
X157181500Y-113975332D01*
X157153927Y-113836713D01*
X157099841Y-113706136D01*
X157021319Y-113588620D01*
X156921380Y-113488681D01*
X156803864Y-113410159D01*
X156673287Y-113356073D01*
X156534668Y-113328500D01*
X156393332Y-113328500D01*
X156254713Y-113356073D01*
X156124136Y-113410159D01*
X156006620Y-113488681D01*
X155906681Y-113588620D01*
X155828159Y-113706136D01*
X155774073Y-113836713D01*
X155746500Y-113975332D01*
X147761089Y-113975332D01*
X147783500Y-113862668D01*
X147783500Y-113721332D01*
X147755927Y-113582713D01*
X147701841Y-113452136D01*
X147623319Y-113334620D01*
X147523380Y-113234681D01*
X147405864Y-113156159D01*
X147275287Y-113102073D01*
X147136668Y-113074500D01*
X146995332Y-113074500D01*
X146856713Y-113102073D01*
X146726136Y-113156159D01*
X146608620Y-113234681D01*
X146508681Y-113334620D01*
X146430159Y-113452136D01*
X146376073Y-113582713D01*
X146348500Y-113721332D01*
X132081487Y-113721332D01*
X131970856Y-113555762D01*
X131808238Y-113393144D01*
X131617019Y-113265375D01*
X131404547Y-113177366D01*
X131178989Y-113132500D01*
X130949011Y-113132500D01*
X130723453Y-113177366D01*
X130510981Y-113265375D01*
X130319762Y-113393144D01*
X130157144Y-113555762D01*
X130029375Y-113746981D01*
X129941366Y-113959453D01*
X129896500Y-114185011D01*
X98342500Y-114185011D01*
X98342500Y-112959332D01*
X156762500Y-112959332D01*
X156762500Y-113100668D01*
X156790073Y-113239287D01*
X156844159Y-113369864D01*
X156922681Y-113487380D01*
X157022620Y-113587319D01*
X157140136Y-113665841D01*
X157270713Y-113719927D01*
X157409332Y-113747500D01*
X157550668Y-113747500D01*
X157682223Y-113721332D01*
X158032500Y-113721332D01*
X158032500Y-113862668D01*
X158060073Y-114001287D01*
X158114159Y-114131864D01*
X158192681Y-114249380D01*
X158292620Y-114349319D01*
X158410136Y-114427841D01*
X158540713Y-114481927D01*
X158679332Y-114509500D01*
X158820668Y-114509500D01*
X158959287Y-114481927D01*
X159089864Y-114427841D01*
X159207380Y-114349319D01*
X159307319Y-114249380D01*
X159385841Y-114131864D01*
X159439927Y-114001287D01*
X159445089Y-113975332D01*
X163112500Y-113975332D01*
X163112500Y-114116668D01*
X163140073Y-114255287D01*
X163194159Y-114385864D01*
X163272681Y-114503380D01*
X163372620Y-114603319D01*
X163490136Y-114681841D01*
X163620713Y-114735927D01*
X163759332Y-114763500D01*
X163900668Y-114763500D01*
X164039287Y-114735927D01*
X164169864Y-114681841D01*
X164287380Y-114603319D01*
X164387319Y-114503380D01*
X164465841Y-114385864D01*
X164519927Y-114255287D01*
X164547500Y-114116668D01*
X164547500Y-113975332D01*
X164890500Y-113975332D01*
X164890500Y-114116668D01*
X164918073Y-114255287D01*
X164972159Y-114385864D01*
X165050681Y-114503380D01*
X165150620Y-114603319D01*
X165268136Y-114681841D01*
X165398713Y-114735927D01*
X165537332Y-114763500D01*
X165678668Y-114763500D01*
X165817287Y-114735927D01*
X165947864Y-114681841D01*
X166065380Y-114603319D01*
X166165319Y-114503380D01*
X166243841Y-114385864D01*
X166297927Y-114255287D01*
X166325500Y-114116668D01*
X166325500Y-113975332D01*
X166297927Y-113836713D01*
X166243841Y-113706136D01*
X166165319Y-113588620D01*
X166065380Y-113488681D01*
X165947864Y-113410159D01*
X165817287Y-113356073D01*
X165678668Y-113328500D01*
X165537332Y-113328500D01*
X165398713Y-113356073D01*
X165268136Y-113410159D01*
X165150620Y-113488681D01*
X165050681Y-113588620D01*
X164972159Y-113706136D01*
X164918073Y-113836713D01*
X164890500Y-113975332D01*
X164547500Y-113975332D01*
X164519927Y-113836713D01*
X164465841Y-113706136D01*
X164387319Y-113588620D01*
X164287380Y-113488681D01*
X164169864Y-113410159D01*
X164039287Y-113356073D01*
X163900668Y-113328500D01*
X163759332Y-113328500D01*
X163620713Y-113356073D01*
X163490136Y-113410159D01*
X163372620Y-113488681D01*
X163272681Y-113588620D01*
X163194159Y-113706136D01*
X163140073Y-113836713D01*
X163112500Y-113975332D01*
X159445089Y-113975332D01*
X159467500Y-113862668D01*
X159467500Y-113721332D01*
X159439927Y-113582713D01*
X159385841Y-113452136D01*
X159307319Y-113334620D01*
X159207380Y-113234681D01*
X159089864Y-113156159D01*
X158959287Y-113102073D01*
X158820668Y-113074500D01*
X158679332Y-113074500D01*
X158540713Y-113102073D01*
X158410136Y-113156159D01*
X158292620Y-113234681D01*
X158192681Y-113334620D01*
X158114159Y-113452136D01*
X158060073Y-113582713D01*
X158032500Y-113721332D01*
X157682223Y-113721332D01*
X157689287Y-113719927D01*
X157819864Y-113665841D01*
X157937380Y-113587319D01*
X158037319Y-113487380D01*
X158115841Y-113369864D01*
X158169927Y-113239287D01*
X158197500Y-113100668D01*
X158197500Y-112959332D01*
X158169927Y-112820713D01*
X158115841Y-112690136D01*
X158096381Y-112661011D01*
X186538500Y-112661011D01*
X186538500Y-112890989D01*
X186583366Y-113116547D01*
X186671375Y-113329019D01*
X186799144Y-113520238D01*
X186961762Y-113682856D01*
X187152981Y-113810625D01*
X187365453Y-113898634D01*
X187591011Y-113943500D01*
X187820989Y-113943500D01*
X188046547Y-113898634D01*
X188259019Y-113810625D01*
X188450238Y-113682856D01*
X188612856Y-113520238D01*
X188740625Y-113329019D01*
X188828634Y-113116547D01*
X188873500Y-112890989D01*
X188873500Y-112661011D01*
X188828634Y-112435453D01*
X188740625Y-112222981D01*
X188612856Y-112031762D01*
X188450238Y-111869144D01*
X188259019Y-111741375D01*
X188046547Y-111653366D01*
X187820989Y-111608500D01*
X187591011Y-111608500D01*
X187365453Y-111653366D01*
X187152981Y-111741375D01*
X186961762Y-111869144D01*
X186799144Y-112031762D01*
X186671375Y-112222981D01*
X186583366Y-112435453D01*
X186538500Y-112661011D01*
X158096381Y-112661011D01*
X158037319Y-112572620D01*
X157937380Y-112472681D01*
X157819864Y-112394159D01*
X157689287Y-112340073D01*
X157550668Y-112312500D01*
X157409332Y-112312500D01*
X157270713Y-112340073D01*
X157140136Y-112394159D01*
X157022620Y-112472681D01*
X156922681Y-112572620D01*
X156844159Y-112690136D01*
X156790073Y-112820713D01*
X156762500Y-112959332D01*
X98342500Y-112959332D01*
X98342500Y-108641332D01*
X117265500Y-108641332D01*
X117265500Y-108782668D01*
X117293073Y-108921287D01*
X117347159Y-109051864D01*
X117425681Y-109169380D01*
X117525620Y-109269319D01*
X117643136Y-109347841D01*
X117773713Y-109401927D01*
X117912332Y-109429500D01*
X118053668Y-109429500D01*
X118071220Y-109426009D01*
X119051730Y-110406519D01*
X119065591Y-110423409D01*
X119132971Y-110478705D01*
X119209843Y-110519795D01*
X119293255Y-110545097D01*
X119358263Y-110551500D01*
X119358265Y-110551500D01*
X119379999Y-110553641D01*
X119401733Y-110551500D01*
X158255709Y-110551500D01*
X159272732Y-111568524D01*
X159286588Y-111585408D01*
X159353968Y-111640704D01*
X159430840Y-111681794D01*
X159514252Y-111707096D01*
X159579260Y-111713499D01*
X159579263Y-111713499D01*
X159600997Y-111715640D01*
X159622731Y-111713499D01*
X160995267Y-111713499D01*
X161017001Y-111715640D01*
X161038735Y-111713499D01*
X161038738Y-111713499D01*
X161103746Y-111707096D01*
X161187158Y-111681794D01*
X161264030Y-111640704D01*
X161331289Y-111585508D01*
X161346332Y-111588500D01*
X161487668Y-111588500D01*
X161626287Y-111560927D01*
X161756864Y-111506841D01*
X161874380Y-111428319D01*
X161974319Y-111328380D01*
X162052841Y-111210864D01*
X162106927Y-111080287D01*
X162134500Y-110941668D01*
X162134500Y-110800332D01*
X162106927Y-110661713D01*
X162052841Y-110531136D01*
X161974319Y-110413620D01*
X161874380Y-110313681D01*
X161756864Y-110235159D01*
X161626287Y-110181073D01*
X161487668Y-110153500D01*
X161346332Y-110153500D01*
X161207713Y-110181073D01*
X161077136Y-110235159D01*
X160959620Y-110313681D01*
X160859681Y-110413620D01*
X160781159Y-110531136D01*
X160727073Y-110661713D01*
X160699500Y-110800332D01*
X160699500Y-110828499D01*
X160529406Y-110828499D01*
X160582927Y-110699287D01*
X160610500Y-110560668D01*
X160610500Y-110419332D01*
X160582927Y-110280713D01*
X160528841Y-110150136D01*
X160450319Y-110032620D01*
X160350380Y-109932681D01*
X160232864Y-109854159D01*
X160102287Y-109800073D01*
X159963668Y-109772500D01*
X159822332Y-109772500D01*
X159804781Y-109775991D01*
X159414790Y-109386000D01*
X186536964Y-109386000D01*
X186536964Y-111086000D01*
X186543094Y-111148241D01*
X186561249Y-111208090D01*
X186590731Y-111263247D01*
X186630407Y-111311593D01*
X186678753Y-111351269D01*
X186733910Y-111380751D01*
X186793759Y-111398906D01*
X186856000Y-111405036D01*
X188556000Y-111405036D01*
X188618241Y-111398906D01*
X188678090Y-111380751D01*
X188733247Y-111351269D01*
X188781593Y-111311593D01*
X188821269Y-111263247D01*
X188850751Y-111208090D01*
X188868906Y-111148241D01*
X188875036Y-111086000D01*
X188875036Y-109386000D01*
X188868906Y-109323759D01*
X188850751Y-109263910D01*
X188821269Y-109208753D01*
X188781593Y-109160407D01*
X188733247Y-109120731D01*
X188678090Y-109091249D01*
X188618241Y-109073094D01*
X188556000Y-109066964D01*
X186856000Y-109066964D01*
X186793759Y-109073094D01*
X186733910Y-109091249D01*
X186678753Y-109120731D01*
X186630407Y-109160407D01*
X186590731Y-109208753D01*
X186561249Y-109263910D01*
X186543094Y-109323759D01*
X186536964Y-109386000D01*
X159414790Y-109386000D01*
X159332269Y-109303480D01*
X159318409Y-109286591D01*
X159251029Y-109231295D01*
X159174157Y-109190205D01*
X159090745Y-109164903D01*
X159025737Y-109158500D01*
X159025734Y-109158500D01*
X159004000Y-109156359D01*
X158982266Y-109158500D01*
X156874133Y-109158500D01*
X156927287Y-109147927D01*
X157057864Y-109093841D01*
X157175380Y-109015319D01*
X157275319Y-108915380D01*
X157353841Y-108797864D01*
X157407927Y-108667287D01*
X157435500Y-108528668D01*
X157435500Y-108387332D01*
X157407927Y-108248713D01*
X157353841Y-108118136D01*
X157275319Y-108000620D01*
X157175380Y-107900681D01*
X157057864Y-107822159D01*
X156927287Y-107768073D01*
X156788668Y-107740500D01*
X156647332Y-107740500D01*
X156508713Y-107768073D01*
X156378136Y-107822159D01*
X156260620Y-107900681D01*
X156160681Y-108000620D01*
X156082159Y-108118136D01*
X156028073Y-108248713D01*
X156000500Y-108387332D01*
X156000500Y-108528668D01*
X156028073Y-108667287D01*
X156082159Y-108797864D01*
X156160681Y-108915380D01*
X156260620Y-109015319D01*
X156378136Y-109093841D01*
X156508713Y-109147927D01*
X156561867Y-109158500D01*
X147122589Y-109158500D01*
X147193841Y-109051864D01*
X147247927Y-108921287D01*
X147275500Y-108782668D01*
X147275500Y-108641332D01*
X147247927Y-108502713D01*
X147193841Y-108372136D01*
X147115319Y-108254620D01*
X147015380Y-108154681D01*
X146897864Y-108076159D01*
X146767287Y-108022073D01*
X146628668Y-107994500D01*
X146487332Y-107994500D01*
X146348713Y-108022073D01*
X146218136Y-108076159D01*
X146100620Y-108154681D01*
X146000681Y-108254620D01*
X145922159Y-108372136D01*
X145868073Y-108502713D01*
X145840500Y-108641332D01*
X145840500Y-108782668D01*
X145868073Y-108921287D01*
X145922159Y-109051864D01*
X145993411Y-109158500D01*
X128733500Y-109158500D01*
X128733500Y-109022332D01*
X128705927Y-108883713D01*
X128651841Y-108753136D01*
X128573319Y-108635620D01*
X128473380Y-108535681D01*
X128355864Y-108457159D01*
X128225287Y-108403073D01*
X128086668Y-108375500D01*
X127945332Y-108375500D01*
X127806713Y-108403073D01*
X127676136Y-108457159D01*
X127558620Y-108535681D01*
X127458681Y-108635620D01*
X127380159Y-108753136D01*
X127326073Y-108883713D01*
X127298500Y-109022332D01*
X127298500Y-109163668D01*
X127326073Y-109302287D01*
X127380159Y-109432864D01*
X127458681Y-109550380D01*
X127558620Y-109650319D01*
X127582836Y-109666500D01*
X119563289Y-109666500D01*
X118697009Y-108800220D01*
X118700500Y-108782668D01*
X118700500Y-108641332D01*
X118672927Y-108502713D01*
X118618841Y-108372136D01*
X118540319Y-108254620D01*
X118440380Y-108154681D01*
X118322864Y-108076159D01*
X118192287Y-108022073D01*
X118053668Y-107994500D01*
X117912332Y-107994500D01*
X117773713Y-108022073D01*
X117643136Y-108076159D01*
X117525620Y-108154681D01*
X117425681Y-108254620D01*
X117347159Y-108372136D01*
X117293073Y-108502713D01*
X117265500Y-108641332D01*
X98342500Y-108641332D01*
X98342500Y-107371332D01*
X128822500Y-107371332D01*
X128822500Y-107512668D01*
X128850073Y-107651287D01*
X128904159Y-107781864D01*
X128982681Y-107899380D01*
X129082620Y-107999319D01*
X129200136Y-108077841D01*
X129330713Y-108131927D01*
X129469332Y-108159500D01*
X129610668Y-108159500D01*
X129749287Y-108131927D01*
X129879864Y-108077841D01*
X129997380Y-107999319D01*
X130097319Y-107899380D01*
X130175841Y-107781864D01*
X130229927Y-107651287D01*
X130257500Y-107512668D01*
X130257500Y-107371332D01*
X133394500Y-107371332D01*
X133394500Y-107512668D01*
X133422073Y-107651287D01*
X133476159Y-107781864D01*
X133554681Y-107899380D01*
X133654620Y-107999319D01*
X133772136Y-108077841D01*
X133902713Y-108131927D01*
X134041332Y-108159500D01*
X134182668Y-108159500D01*
X134321287Y-108131927D01*
X134451864Y-108077841D01*
X134569380Y-107999319D01*
X134669319Y-107899380D01*
X134747841Y-107781864D01*
X134801927Y-107651287D01*
X134829500Y-107512668D01*
X134829500Y-107371332D01*
X135172500Y-107371332D01*
X135172500Y-107512668D01*
X135200073Y-107651287D01*
X135254159Y-107781864D01*
X135332681Y-107899380D01*
X135432620Y-107999319D01*
X135550136Y-108077841D01*
X135680713Y-108131927D01*
X135819332Y-108159500D01*
X135960668Y-108159500D01*
X136099287Y-108131927D01*
X136229864Y-108077841D01*
X136347380Y-107999319D01*
X136447319Y-107899380D01*
X136525841Y-107781864D01*
X136579927Y-107651287D01*
X136607500Y-107512668D01*
X136607500Y-107371332D01*
X139998500Y-107371332D01*
X139998500Y-107512668D01*
X140026073Y-107651287D01*
X140080159Y-107781864D01*
X140158681Y-107899380D01*
X140258620Y-107999319D01*
X140376136Y-108077841D01*
X140506713Y-108131927D01*
X140645332Y-108159500D01*
X140786668Y-108159500D01*
X140925287Y-108131927D01*
X141055864Y-108077841D01*
X141173380Y-107999319D01*
X141273319Y-107899380D01*
X141351841Y-107781864D01*
X141405927Y-107651287D01*
X141433500Y-107512668D01*
X141433500Y-107371332D01*
X141405927Y-107232713D01*
X141351841Y-107102136D01*
X141273319Y-106984620D01*
X141173380Y-106884681D01*
X141055864Y-106806159D01*
X140925287Y-106752073D01*
X140786668Y-106724500D01*
X140645332Y-106724500D01*
X140506713Y-106752073D01*
X140376136Y-106806159D01*
X140258620Y-106884681D01*
X140158681Y-106984620D01*
X140080159Y-107102136D01*
X140026073Y-107232713D01*
X139998500Y-107371332D01*
X136607500Y-107371332D01*
X136579927Y-107232713D01*
X136525841Y-107102136D01*
X136447319Y-106984620D01*
X136347380Y-106884681D01*
X136229864Y-106806159D01*
X136099287Y-106752073D01*
X135960668Y-106724500D01*
X135819332Y-106724500D01*
X135680713Y-106752073D01*
X135550136Y-106806159D01*
X135432620Y-106884681D01*
X135332681Y-106984620D01*
X135254159Y-107102136D01*
X135200073Y-107232713D01*
X135172500Y-107371332D01*
X134829500Y-107371332D01*
X134801927Y-107232713D01*
X134747841Y-107102136D01*
X134669319Y-106984620D01*
X134569380Y-106884681D01*
X134451864Y-106806159D01*
X134321287Y-106752073D01*
X134182668Y-106724500D01*
X134041332Y-106724500D01*
X133902713Y-106752073D01*
X133772136Y-106806159D01*
X133654620Y-106884681D01*
X133554681Y-106984620D01*
X133476159Y-107102136D01*
X133422073Y-107232713D01*
X133394500Y-107371332D01*
X130257500Y-107371332D01*
X130229927Y-107232713D01*
X130175841Y-107102136D01*
X130097319Y-106984620D01*
X129997380Y-106884681D01*
X129879864Y-106806159D01*
X129749287Y-106752073D01*
X129610668Y-106724500D01*
X129469332Y-106724500D01*
X129330713Y-106752073D01*
X129200136Y-106806159D01*
X129082620Y-106884681D01*
X128982681Y-106984620D01*
X128904159Y-107102136D01*
X128850073Y-107232713D01*
X128822500Y-107371332D01*
X98342500Y-107371332D01*
X98342500Y-105847332D01*
X111042500Y-105847332D01*
X111042500Y-105988668D01*
X111070073Y-106127287D01*
X111124159Y-106257864D01*
X111202681Y-106375380D01*
X111302620Y-106475319D01*
X111420136Y-106553841D01*
X111550713Y-106607927D01*
X111689332Y-106635500D01*
X111830668Y-106635500D01*
X111969287Y-106607927D01*
X112099864Y-106553841D01*
X112217380Y-106475319D01*
X112317319Y-106375380D01*
X112395841Y-106257864D01*
X112449927Y-106127287D01*
X112477500Y-105988668D01*
X112477500Y-105847332D01*
X120948500Y-105847332D01*
X120948500Y-105988668D01*
X120976073Y-106127287D01*
X121030159Y-106257864D01*
X121108681Y-106375380D01*
X121208620Y-106475319D01*
X121326136Y-106553841D01*
X121456713Y-106607927D01*
X121595332Y-106635500D01*
X121736668Y-106635500D01*
X121875287Y-106607927D01*
X122005864Y-106553841D01*
X122123380Y-106475319D01*
X122223319Y-106375380D01*
X122301841Y-106257864D01*
X122355927Y-106127287D01*
X122383500Y-105988668D01*
X122383500Y-105847332D01*
X133394500Y-105847332D01*
X133394500Y-105988668D01*
X133422073Y-106127287D01*
X133476159Y-106257864D01*
X133554681Y-106375380D01*
X133654620Y-106475319D01*
X133772136Y-106553841D01*
X133902713Y-106607927D01*
X134041332Y-106635500D01*
X134182668Y-106635500D01*
X134321287Y-106607927D01*
X134451864Y-106553841D01*
X134569380Y-106475319D01*
X134669319Y-106375380D01*
X134747841Y-106257864D01*
X134801927Y-106127287D01*
X134829500Y-105988668D01*
X134829500Y-105847332D01*
X139490500Y-105847332D01*
X139490500Y-105988668D01*
X139518073Y-106127287D01*
X139572159Y-106257864D01*
X139650681Y-106375380D01*
X139750620Y-106475319D01*
X139868136Y-106553841D01*
X139998713Y-106607927D01*
X140137332Y-106635500D01*
X140278668Y-106635500D01*
X140417287Y-106607927D01*
X140547864Y-106553841D01*
X140665380Y-106475319D01*
X140765319Y-106375380D01*
X140843841Y-106257864D01*
X140897927Y-106127287D01*
X140925500Y-105988668D01*
X140925500Y-105847332D01*
X148888500Y-105847332D01*
X148888500Y-105988668D01*
X148916073Y-106127287D01*
X148970159Y-106257864D01*
X149048681Y-106375380D01*
X149148620Y-106475319D01*
X149266136Y-106553841D01*
X149396713Y-106607927D01*
X149535332Y-106635500D01*
X149676668Y-106635500D01*
X149815287Y-106607927D01*
X149945864Y-106553841D01*
X150063380Y-106475319D01*
X150163319Y-106375380D01*
X150241841Y-106257864D01*
X150295927Y-106127287D01*
X150323500Y-105988668D01*
X150323500Y-105847332D01*
X150295927Y-105708713D01*
X150241841Y-105578136D01*
X150163319Y-105460620D01*
X150063380Y-105360681D01*
X149945864Y-105282159D01*
X149815287Y-105228073D01*
X149676668Y-105200500D01*
X149535332Y-105200500D01*
X149396713Y-105228073D01*
X149266136Y-105282159D01*
X149148620Y-105360681D01*
X149048681Y-105460620D01*
X148970159Y-105578136D01*
X148916073Y-105708713D01*
X148888500Y-105847332D01*
X140925500Y-105847332D01*
X140897927Y-105708713D01*
X140843841Y-105578136D01*
X140765319Y-105460620D01*
X140665380Y-105360681D01*
X140547864Y-105282159D01*
X140417287Y-105228073D01*
X140278668Y-105200500D01*
X140137332Y-105200500D01*
X139998713Y-105228073D01*
X139868136Y-105282159D01*
X139750620Y-105360681D01*
X139650681Y-105460620D01*
X139572159Y-105578136D01*
X139518073Y-105708713D01*
X139490500Y-105847332D01*
X134829500Y-105847332D01*
X134801927Y-105708713D01*
X134747841Y-105578136D01*
X134669319Y-105460620D01*
X134569380Y-105360681D01*
X134451864Y-105282159D01*
X134321287Y-105228073D01*
X134182668Y-105200500D01*
X134041332Y-105200500D01*
X133902713Y-105228073D01*
X133772136Y-105282159D01*
X133654620Y-105360681D01*
X133554681Y-105460620D01*
X133476159Y-105578136D01*
X133422073Y-105708713D01*
X133394500Y-105847332D01*
X122383500Y-105847332D01*
X122355927Y-105708713D01*
X122301841Y-105578136D01*
X122223319Y-105460620D01*
X122123380Y-105360681D01*
X122005864Y-105282159D01*
X121875287Y-105228073D01*
X121736668Y-105200500D01*
X121595332Y-105200500D01*
X121456713Y-105228073D01*
X121326136Y-105282159D01*
X121208620Y-105360681D01*
X121108681Y-105460620D01*
X121030159Y-105578136D01*
X120976073Y-105708713D01*
X120948500Y-105847332D01*
X112477500Y-105847332D01*
X112449927Y-105708713D01*
X112395841Y-105578136D01*
X112317319Y-105460620D01*
X112217380Y-105360681D01*
X112099864Y-105282159D01*
X111969287Y-105228073D01*
X111830668Y-105200500D01*
X111689332Y-105200500D01*
X111550713Y-105228073D01*
X111420136Y-105282159D01*
X111302620Y-105360681D01*
X111202681Y-105460620D01*
X111124159Y-105578136D01*
X111070073Y-105708713D01*
X111042500Y-105847332D01*
X98342500Y-105847332D01*
X98342500Y-98869500D01*
X197657501Y-98869500D01*
X197657501Y-135657500D01*
G37*
%TD.AperFunction*%
%TD*%
M02*
