%TF.GenerationSoftware,KiCad,Pcbnew,5.1.10-88a1d61d58~90~ubuntu20.04.1*%
%TF.CreationDate,2021-10-13T16:19:26+02:00*%
%TF.ProjectId,XT_V1,58545f56-312e-46b6-9963-61645f706362,rev?*%
%TF.SameCoordinates,Original*%
%TF.FileFunction,Soldermask,Bot*%
%TF.FilePolarity,Negative*%
%FSLAX46Y46*%
G04 Gerber Fmt 4.6, Leading zero omitted, Abs format (unit mm)*
G04 Created by KiCad (PCBNEW 5.1.10-88a1d61d58~90~ubuntu20.04.1) date 2021-10-13 16:19:26*
%MOMM*%
%LPD*%
G01*
G04 APERTURE LIST*
%ADD10O,2.000000X1.905000*%
%ADD11R,2.000000X1.905000*%
%ADD12C,1.950000*%
%ADD13O,1.600000X1.600000*%
%ADD14R,1.600000X1.600000*%
%ADD15O,1.700000X1.700000*%
%ADD16R,1.700000X1.700000*%
G04 APERTURE END LIST*
D10*
%TO.C,Q10*%
X154686000Y-82296000D03*
X154686000Y-79756000D03*
D11*
X154686000Y-77216000D03*
%TD*%
D10*
%TO.C,Q9*%
X144780000Y-82296000D03*
X144780000Y-79756000D03*
D11*
X144780000Y-77216000D03*
%TD*%
D10*
%TO.C,Q8*%
X126746000Y-82296000D03*
X126746000Y-79756000D03*
D11*
X126746000Y-77216000D03*
%TD*%
D10*
%TO.C,Q6*%
X115316000Y-82296000D03*
X115316000Y-79756000D03*
D11*
X115316000Y-77216000D03*
%TD*%
D12*
%TO.C,J10*%
X154606000Y-63580000D03*
X154606000Y-68580000D03*
X149606000Y-63580000D03*
X149606000Y-68580000D03*
%TD*%
%TO.C,J9*%
X143176000Y-63580000D03*
X143176000Y-68580000D03*
X138176000Y-63580000D03*
X138176000Y-68580000D03*
%TD*%
%TO.C,J8*%
X120316000Y-63580000D03*
X120316000Y-68580000D03*
X115316000Y-63580000D03*
X115316000Y-68580000D03*
%TD*%
%TO.C,J7*%
X131746000Y-63580000D03*
X131746000Y-68580000D03*
X126746000Y-63580000D03*
X126746000Y-68580000D03*
%TD*%
D13*
%TO.C,SW1*%
X175768000Y-125984000D03*
X185928000Y-133604000D03*
X178308000Y-125984000D03*
X183388000Y-133604000D03*
X180848000Y-125984000D03*
X180848000Y-133604000D03*
X183388000Y-125984000D03*
X178308000Y-133604000D03*
X185928000Y-125984000D03*
D14*
X175768000Y-133604000D03*
%TD*%
D15*
%TO.C,J6*%
X136652000Y-131826000D03*
X136652000Y-129286000D03*
X139192000Y-131826000D03*
X139192000Y-129286000D03*
X141732000Y-131826000D03*
X141732000Y-129286000D03*
X144272000Y-131826000D03*
X144272000Y-129286000D03*
X146812000Y-131826000D03*
D16*
X146812000Y-129286000D03*
%TD*%
D15*
%TO.C,J5*%
X118872000Y-131826000D03*
X118872000Y-129286000D03*
X121412000Y-131826000D03*
X121412000Y-129286000D03*
X123952000Y-131826000D03*
X123952000Y-129286000D03*
X126492000Y-131826000D03*
X126492000Y-129286000D03*
X129032000Y-131826000D03*
D16*
X129032000Y-129286000D03*
%TD*%
D15*
%TO.C,J4*%
X116332000Y-124206000D03*
X116332000Y-121666000D03*
X118872000Y-124206000D03*
X118872000Y-121666000D03*
X121412000Y-124206000D03*
D16*
X121412000Y-121666000D03*
%TD*%
D15*
%TO.C,J3*%
X131064000Y-114300000D03*
D16*
X131064000Y-116840000D03*
%TD*%
D15*
%TO.C,J2*%
X131064000Y-122428000D03*
D16*
X131064000Y-124968000D03*
%TD*%
D15*
%TO.C,J1*%
X187706000Y-117856000D03*
X187706000Y-115316000D03*
X187706000Y-112776000D03*
D16*
X187706000Y-110236000D03*
%TD*%
M02*
