M48
; DRILL file {KiCad 5.1.10-88a1d61d58~90~ubuntu20.04.1} date Wed Oct 13 11:47:50 2021
; FORMAT={-:-/ absolute / inch / decimal}
; #@! TF.CreationDate,2021-10-13T11:47:50+02:00
; #@! TF.GenerationSoftware,Kicad,Pcbnew,5.1.10-88a1d61d58~90~ubuntu20.04.1
FMAT,2
INCH
T1C0.0157
T2C0.0315
T3C0.0394
T4C0.0433
T5C0.0512
%
G90
G05
T1
X3.9Y-3.92
X3.9Y-4.17
X3.9Y-4.48
X3.9Y-4.73
X3.9Y-5.32
X3.94Y-5.01
X4.0Y-4.95
X4.0Y-5.08
X4.23Y-4.9
X4.25Y-5.32
X4.28Y-4.71
X4.31Y-4.42
X4.36Y-5.12
X4.39Y-3.92
X4.4Y-4.17
X4.41Y-4.42
X4.41Y-4.9
X4.42Y-4.77
X4.59Y-5.32
X4.645Y-4.28
X4.75Y-3.92
X4.79Y-4.17
X5.04Y-4.295
X5.06Y-4.5
X5.06Y-4.58
X5.06Y-4.82
X5.06Y-4.9
X5.08Y-5.32
X5.1Y-4.23
X5.19Y-3.38
X5.19Y-3.43
X5.23Y-5.01
X5.23Y-5.09
X5.23Y-5.17
X5.28Y-4.17
X5.28Y-4.23
X5.32Y-3.92
X5.35Y-4.23
X5.38Y-5.32
X5.42Y-4.7
X5.44Y-3.39
X5.44Y-3.44
X5.52Y-4.17
X5.54Y-4.23
X5.55Y-4.47
X5.61Y-4.7
X5.61Y-4.89
X5.77Y-4.28
X5.78Y-5.32
X5.79Y-4.48
X5.79Y-4.55
X5.83Y-4.37
X5.84Y-4.83
X5.84Y-4.91
X5.86Y-5.01
X5.88Y-3.92
X5.89Y-4.17
X5.89Y-4.62
X5.91Y-5.15
X5.92Y-4.73
X5.92Y-4.95
X6.02Y-4.54
X6.03Y-4.89
X6.07Y-4.64
X6.08Y-4.49
X6.08Y-4.95
X6.08Y-5.01
X6.15Y-5.32
X6.16Y-4.49
X6.16Y-4.95
X6.17Y-4.27
X6.2Y-4.45
X6.225Y-4.395
X6.25Y-4.48
X6.25Y-4.64
X6.26Y-3.92
X6.28Y-5.13
X6.295Y-4.35
X6.32Y-4.82
X6.355Y-4.365
X6.355Y-4.79
X6.36Y-4.28
X6.36Y-5.13
X6.375Y-4.755
X6.38Y-4.61
X6.425Y-4.74
X6.4402Y-4.64
X6.45Y-4.49
X6.49Y-3.92
X6.49Y-5.32
X6.52Y-4.49
X6.54Y-5.09
X6.575Y-4.86
X6.575Y-4.905
X6.6Y-4.4
X6.6Y-4.49
X6.6Y-4.61
X6.6Y-4.755
X6.6Y-4.825
X6.62Y-5.09
X6.625Y-4.79
X6.65Y-4.55
X6.67Y-5.03
X6.75Y-4.63
X6.75Y-4.75
X6.87Y-5.065
X6.92Y-5.32
X6.93Y-3.92
X6.97Y-5.065
X7.07Y-4.74
X7.07Y-5.065
X7.15Y-4.34
X7.17Y-5.065
X7.2Y-4.28
X7.2Y-4.4
X7.2Y-4.48
X7.27Y-5.065
X7.3Y-3.92
X7.32Y-5.32
X7.75Y-3.92
X7.75Y-4.13
X7.75Y-4.41
X7.75Y-4.69
X7.75Y-5.0
X7.75Y-5.32
T2
X6.92Y-4.96
X6.92Y-5.26
X7.02Y-4.96
X7.02Y-5.26
X7.12Y-4.96
X7.12Y-5.26
X7.22Y-4.96
X7.22Y-5.26
X7.32Y-4.96
X7.32Y-5.26
T3
X4.58Y-4.79
X4.58Y-4.89
X4.68Y-4.79
X4.68Y-4.89
X4.68Y-5.09
X4.68Y-5.19
X4.78Y-4.79
X4.78Y-4.89
X4.78Y-5.09
X4.78Y-5.19
X4.88Y-5.09
X4.88Y-5.19
X4.98Y-5.09
X4.98Y-5.19
X5.08Y-5.09
X5.08Y-5.19
X5.16Y-4.5
X5.16Y-4.6
X5.16Y-4.82
X5.16Y-4.92
X5.38Y-5.09
X5.38Y-5.19
X5.48Y-5.09
X5.48Y-5.19
X5.58Y-5.09
X5.58Y-5.19
X5.68Y-5.09
X5.68Y-5.19
X5.78Y-5.09
X5.78Y-5.19
X7.39Y-4.34
X7.39Y-4.44
X7.39Y-4.54
X7.39Y-4.64
T4
X4.54Y-3.04
X4.54Y-3.14
X4.54Y-3.24
X4.99Y-3.04
X4.99Y-3.14
X4.99Y-3.24
X5.7Y-3.04
X5.7Y-3.14
X5.7Y-3.24
X6.09Y-3.04
X6.09Y-3.14
X6.09Y-3.24
T5
X4.54Y-2.5031
X4.54Y-2.7
X4.7369Y-2.5031
X4.7369Y-2.7
X4.99Y-2.5031
X4.99Y-2.7
X5.1869Y-2.5031
X5.1869Y-2.7
X5.44Y-2.5031
X5.44Y-2.7
X5.6369Y-2.5031
X5.6369Y-2.7
X5.89Y-2.5031
X5.89Y-2.7
X6.0869Y-2.5031
X6.0869Y-2.7
T0
M30
