M48
; DRILL file {KiCad 5.1.10-88a1d61d58~90~ubuntu20.04.1} date Wed Oct 13 12:17:38 2021
; FORMAT={-:-/ absolute / inch / decimal}
; #@! TF.CreationDate,2021-10-13T12:17:38+02:00
; #@! TF.GenerationSoftware,Kicad,Pcbnew,5.1.10-88a1d61d58~90~ubuntu20.04.1
FMAT,2
INCH
T1C0.0157
T2C0.0276
T3C0.0315
T4C0.0394
T5C0.0512
%
G90
G05
T1
X3.81Y-2.32
X3.81Y-4.09
X3.81Y-4.39
X3.81Y-4.99
X3.81Y-5.3
X3.84Y-3.66
X3.86Y-4.68
X3.89Y-3.43
X3.89Y-3.51
X3.89Y-3.81
X3.89Y-3.89
X3.93Y-4.61
X3.93Y-5.11
X3.93Y-5.16
X3.94Y-3.59
X3.94Y-3.73
X4.0Y-4.68
X4.05Y-4.9
X4.05Y-4.99
X4.05Y-5.08
X4.08Y-3.43
X4.08Y-3.66
X4.13Y-3.43
X4.14Y-3.81
X4.15Y-2.79
X4.17Y-5.09
X4.18Y-3.43
X4.18Y-3.81
X4.22Y-3.81
X4.23Y-2.32
X4.23Y-2.71
X4.23Y-2.88
X4.23Y-3.43
X4.23Y-5.03
X4.24Y-3.93
X4.25Y-4.21
X4.26Y-3.81
X4.26Y-4.09
X4.27Y-5.2
X4.27Y-5.3
X4.28Y-3.43
X4.31Y-2.79
X4.31Y-3.37
X4.34Y-4.08
X4.35Y-3.98
X4.37Y-3.45
X4.42Y-2.9
X4.495Y-3.865
X4.495Y-4.205
X4.545Y-3.865
X4.545Y-4.285
X4.64Y-3.98
X4.64Y-4.09
X4.67Y-3.9
X4.7Y-5.3
X4.72Y-3.05
X4.72Y-3.13
X4.78Y-3.46
X4.79Y-3.14
X4.79Y-3.53
X4.7918Y-3.94
X4.8Y-3.6
X4.8Y-5.3
X4.83Y-3.17
X4.83Y-3.63
X4.83Y-3.97
X4.86Y-3.8435
X4.89Y-4.3
X4.89Y-4.45
X4.89Y-4.59
X4.89Y-4.7
X4.89Y-4.83
X4.9Y-3.3
X4.92Y-3.89
X4.995Y-3.145
X5.0Y-5.3
X5.01Y-3.63
X5.05Y-3.15
X5.05Y-3.33
X5.12Y-3.9
X5.12Y-4.09
X5.13Y-3.53
X5.15Y-2.94
X5.15Y-5.05
X5.15Y-5.16
X5.15Y-5.3
X5.17Y-3.34
X5.17Y-3.41
X5.19Y-2.79
X5.19Y-3.3
X5.23Y-3.46
X5.23Y-3.53
X5.28Y-3.17
X5.32Y-3.14
X5.34Y-4.3
X5.34Y-4.57
X5.35Y-3.3
X5.35Y-3.9
X5.4Y-5.3
X5.42Y-3.9
X5.42Y-4.09
X5.44Y-3.6
X5.445Y-3.145
X5.47Y-4.81
X5.5Y-3.33
X5.5Y-5.3
X5.51Y-3.15
X5.54Y-4.57
X5.55Y-3.77
X5.55Y-4.09
X5.59Y-3.53
X5.59Y-3.6
X5.6Y-2.94
X5.63Y-3.41
X5.63Y-4.37
X5.64Y-2.79
X5.65Y-3.3
X5.66Y-3.77
X5.66Y-4.09
X5.68Y-3.5
X5.69Y-4.42
X5.7Y-4.74
X5.7Y-4.82
X5.7Y-5.3
X5.72Y-4.51
X5.73Y-3.17
X5.74Y-3.6
X5.76Y-3.77
X5.76Y-4.09
X5.77Y-3.14
X5.8Y-3.3
X5.81Y-4.37
X5.84Y-4.93
X5.85Y-4.74
X5.86Y-3.77
X5.87Y-4.09
X5.895Y-3.145
X5.9Y-3.6
X5.91Y-4.78
X5.96Y-3.15
X5.96Y-3.33
X5.97Y-4.47
X5.97Y-4.53
X5.97Y-4.59
X5.97Y-4.85
X5.97Y-4.99
X6.03Y-3.53
X6.05Y-2.94
X6.05Y-3.93
X6.07Y-3.61
X6.08Y-3.41
X6.09Y-2.79
X6.1Y-3.3
X6.1Y-4.91
X6.11Y-3.47
X6.14Y-4.47
X6.16Y-4.27
X6.16Y-4.35
X6.16Y-4.43
X6.16Y-4.77
X6.17Y-4.59
X6.18Y-3.17
X6.18Y-4.67
X6.2Y-4.46
X6.21Y-3.97
X6.21Y-4.08
X6.21Y-4.71
X6.22Y-3.14
X6.24Y-4.64
X6.25Y-3.3
X6.25Y-5.12
X6.25Y-5.3
X6.27Y-4.27
X6.28Y-4.71
X6.29Y-4.35
X6.29Y-4.91
X6.3Y-4.58
X6.31Y-4.43
X6.31Y-4.79
X6.33Y-4.61
X6.345Y-3.145
X6.35Y-3.6
X6.41Y-3.15
X6.41Y-3.33
X6.43Y-3.75
X6.43Y-4.91
X6.44Y-4.43
X6.46Y-4.85
X6.48Y-3.53
X6.49Y-4.9
X6.51Y-4.8185
X6.5292Y-3.4108
X6.535Y-4.755
X6.54Y-2.79
X6.55Y-3.3
X6.56Y-4.79
X6.59Y-2.91
X6.59Y-2.97
X6.62Y-2.32
X6.62Y-2.67
X6.62Y-3.3
X6.62Y-3.56
X6.63Y-4.08
X6.65Y-4.89
X6.68Y-4.43
X6.68Y-4.51
X6.79Y-4.89
X6.84Y-5.3
X6.89Y-4.89
X6.99Y-4.71
X6.99Y-4.89
X7.07Y-4.08
X7.09Y-4.32
X7.09Y-4.89
X7.14Y-4.26
X7.14Y-4.38
X7.19Y-4.89
X7.24Y-5.3
X7.46Y-4.08
X7.69Y-4.08
X7.69Y-4.32
X7.69Y-4.62
X7.69Y-4.96
X7.69Y-5.3
T2
X4.03Y-2.49
X4.23Y-2.49
T3
X6.84Y-4.94
X6.84Y-5.24
X6.94Y-4.94
X6.94Y-5.24
X7.04Y-4.94
X7.04Y-5.24
X7.14Y-4.94
X7.14Y-5.24
X7.24Y-4.94
X7.24Y-5.24
T4
X4.5Y-4.73
X4.5Y-4.83
X4.6Y-4.73
X4.6Y-4.83
X4.6Y-5.06
X4.6Y-5.16
X4.7Y-4.73
X4.7Y-4.83
X4.7Y-5.06
X4.7Y-5.16
X4.8Y-5.06
X4.8Y-5.16
X4.9Y-5.06
X4.9Y-5.16
X5.0Y-5.06
X5.0Y-5.16
X5.08Y-4.37
X5.08Y-4.47
X5.08Y-4.73
X5.08Y-4.83
X5.3Y-5.06
X5.3Y-5.16
X5.4Y-5.06
X5.4Y-5.16
X5.5Y-5.06
X5.5Y-5.16
X5.6Y-5.06
X5.6Y-5.16
X5.7Y-5.06
X5.7Y-5.16
X7.31Y-4.32
X7.31Y-4.42
X7.31Y-4.52
X7.31Y-4.62
T5
X4.46Y-2.4731
X4.46Y-2.67
X4.6569Y-2.4731
X4.6569Y-2.67
X4.91Y-2.4731
X4.91Y-2.67
X5.1069Y-2.4731
X5.1069Y-2.67
X5.36Y-2.4731
X5.36Y-2.67
X5.5569Y-2.4731
X5.5569Y-2.67
X5.81Y-2.4731
X5.81Y-2.67
X6.0069Y-2.4731
X6.0069Y-2.67
X6.26Y-2.4731
X6.26Y-2.67
X6.4569Y-2.4731
X6.4569Y-2.67
T0
M30
