M48
; DRILL file {KiCad 5.1.10-88a1d61d58~90~ubuntu20.04.1} date Wed Oct 13 12:07:43 2021
; FORMAT={-:-/ absolute / inch / decimal}
; #@! TF.CreationDate,2021-10-13T12:07:43+02:00
; #@! TF.GenerationSoftware,Kicad,Pcbnew,5.1.10-88a1d61d58~90~ubuntu20.04.1
FMAT,2
INCH
T1C0.0157
T2C0.0315
T3C0.0354
T4C0.0394
T5C0.0433
T6C0.0512
%
G90
G05
T1
X2.7959Y-2.9055
X2.7959Y-3.1855
X2.7959Y-5.8155
X2.7959Y-5.8755
X2.8059Y-3.4955
X2.8059Y-3.7855
X2.8059Y-4.4555
X2.8059Y-4.5955
X2.8059Y-4.7155
X2.8059Y-4.9655
X2.8059Y-5.2455
X2.8059Y-5.4655
X2.8359Y-2.9855
X2.8359Y-3.1855
X2.8559Y-5.7455
X2.8759Y-4.9555
X2.8859Y-5.0855
X2.8859Y-5.2455
X2.9259Y-5.0355
X2.9659Y-3.9255
X2.9659Y-4.0055
X2.9659Y-4.0855
X2.9659Y-4.1655
X2.9659Y-4.2455
X2.9659Y-4.3255
X2.9659Y-4.4055
X3.0159Y-4.7255
X3.0159Y-5.3055
X3.0259Y-5.0855
X3.0359Y-5.2455
X3.0409Y-3.8805
X3.0459Y-3.9255
X3.0509Y-3.7255
X3.0559Y-5.3855
X3.0609Y-4.4655
X3.0659Y-5.0355
X3.0859Y-3.9355
X3.0859Y-5.6855
X3.0909Y-3.9805
X3.1109Y-3.7805
X3.1159Y-4.7255
X3.1259Y-4.3305
X3.1359Y-5.5055
X3.1459Y-5.2855
X3.1659Y-5.0855
X3.1759Y-3.1655
X3.1759Y-3.3255
X3.1859Y-5.2455
X3.1984Y-4.328
X3.2059Y-5.0355
X3.2159Y-5.5055
X3.2259Y-4.7255
X3.2459Y-3.2455
X3.2609Y-4.4655
X3.2659Y-5.6855
X3.2684Y-4.323
X3.2859Y-5.2755
X3.2859Y-5.5655
X3.3059Y-5.0855
X3.3159Y-2.9055
X3.3159Y-5.8155
X3.3259Y-4.7255
X3.3359Y-5.2455
X3.3459Y-5.0355
X3.3459Y-5.8755
X3.3609Y-4.4555
X3.4259Y-5.2555
X3.4459Y-4.7255
X3.4459Y-5.0855
X3.4609Y-4.4405
X3.4859Y-5.0355
X3.4859Y-5.2455
X3.5459Y-4.4255
X3.5459Y-4.7255
X3.5459Y-5.0355
X3.5659Y-5.2455
X3.5859Y-4.5855
X3.5859Y-5.0855
X3.5868Y-4.3064
X3.6359Y-5.2455
X3.6459Y-4.7255
X3.6859Y-5.0355
X3.7059Y-5.3855
X3.7157Y-3.661
X3.7259Y-5.0855
X3.7459Y-4.5955
X3.7459Y-4.7255
X3.7659Y-2.9055
X3.7709Y-4.1555
X3.7959Y-5.0755
X3.8059Y-5.8755
X3.8159Y-3.6555
X3.8159Y-4.7155
X3.8259Y-5.0355
X3.8659Y-5.0855
X3.8959Y-3.5755
X3.8959Y-3.7255
X3.9522Y-3.7692
X3.9859Y-5.1855
X4.0959Y-3.5755
X4.0959Y-3.7255
X4.1159Y-4.7155
X4.1259Y-4.7855
X4.1511Y-3.8204
X4.1659Y-3.6555
X4.1659Y-4.5955
X4.2159Y-2.9055
X4.2159Y-4.1955
X4.2559Y-5.0755
X4.2759Y-4.8555
X4.2999Y-3.8715
X4.3059Y-3.7255
X4.3059Y-5.0155
X4.3159Y-4.1955
X4.3459Y-3.5755
X4.3659Y-5.0755
X4.3759Y-4.8555
X4.3859Y-3.7255
X4.4159Y-4.1955
X4.4359Y-5.2955
X4.4659Y-5.8755
X4.4759Y-4.5955
X4.4759Y-4.8555
X4.4987Y-3.9227
X4.5159Y-4.1955
X4.5359Y-5.0055
X4.5359Y-5.0755
X4.5359Y-5.3755
X4.5459Y-3.5755
X4.5459Y-3.7255
X4.5659Y-5.1155
X4.5659Y-5.4755
X4.6059Y-4.8955
X4.6159Y-3.6555
X4.6259Y-5.2955
X4.6459Y-4.1955
X4.6475Y-3.9739
X4.6659Y-2.9055
X4.7059Y-4.5955
X4.7059Y-4.9255
X4.7059Y-5.0755
X4.7459Y-4.1955
X4.7559Y-3.7255
X4.7661Y-5.0953
X4.7959Y-3.5755
X4.7959Y-5.4055
X4.7959Y-5.4655
X4.8059Y-4.9555
X4.8359Y-3.7255
X4.8459Y-4.1955
X4.8463Y-4.0251
X4.8559Y-5.2155
X4.8659Y-5.0055
X4.9053Y-5.0061
X4.9059Y-4.5955
X4.9559Y-5.0055
X4.9559Y-5.2555
X4.9859Y-4.7855
X4.9959Y-3.5755
X4.9959Y-3.7255
X4.9959Y-5.0055
X5.0359Y-5.0055
X5.0659Y-3.6555
X5.0659Y-4.7855
X5.0759Y-5.0055
X5.0959Y-5.3455
X5.1159Y-2.9055
X5.1159Y-5.6555
X5.1359Y-5.8755
X5.1459Y-4.9455
X5.1459Y-5.0655
X5.1559Y-4.5955
X5.1959Y-5.0655
X5.2059Y-3.7255
X5.2059Y-5.4055
X5.2261Y-4.9457
X5.2459Y-3.5755
X5.2459Y-5.5155
X5.2859Y-3.7255
X5.2909Y-4.9305
X5.3309Y-4.8955
X5.3459Y-5.4155
X5.3859Y-4.8755
X5.3959Y-5.6455
X5.4003Y-4.9127
X5.4059Y-4.3355
X5.4059Y-5.2755
X5.4109Y-4.6755
X5.4259Y-5.1355
X5.4359Y-5.4155
X5.4459Y-3.5755
X5.4459Y-3.7255
X5.4459Y-4.9055
X5.4759Y-4.9355
X5.4759Y-5.157
X5.4859Y-5.2755
X5.5159Y-3.6555
X5.5159Y-5.1855
X5.5259Y-4.9455
X5.5359Y-4.6755
X5.5559Y-5.4555
X5.5659Y-5.8755
X5.5759Y-5.3455
X5.5859Y-5.4255
X5.6059Y-4.9455
X5.6059Y-5.6455
X5.6159Y-5.3955
X5.6259Y-2.9055
X5.6259Y-3.1255
X5.6259Y-3.4955
X5.6259Y-3.7955
X5.6259Y-4.1155
X5.6259Y-5.4555
X5.6459Y-5.1755
X5.6459Y-5.2255
X5.6459Y-5.3655
X5.6659Y-5.5255
X5.6759Y-5.1455
X5.6759Y-5.3355
X5.6761Y-5.1053
X5.7359Y-5.0055
X5.7559Y-5.5955
X5.7659Y-2.9055
X5.7659Y-3.1255
X5.7659Y-3.4955
X5.7659Y-3.7955
X5.7659Y-4.1055
X5.7859Y-4.3855
X5.8559Y-4.5555
X5.8759Y-5.6755
X5.9759Y-5.6455
X6.0759Y-5.6155
X6.1759Y-5.5855
X6.2059Y-2.9055
X6.2259Y-5.8755
X6.2759Y-5.5555
X6.3359Y-5.2955
X6.4159Y-3.7655
X6.4159Y-4.0655
X6.4159Y-4.3655
X6.4159Y-4.6655
X6.4159Y-4.9655
X6.4159Y-5.2655
X6.4159Y-5.5655
X6.4759Y-3.5255
X6.6659Y-2.9055
X6.6659Y-5.8755
T2
X5.8259Y-5.4655
X5.8259Y-5.7655
X5.9259Y-5.4655
X5.9259Y-5.7655
X6.0259Y-5.4655
X6.0259Y-5.7655
X6.1259Y-5.4655
X6.1259Y-5.7655
X6.2259Y-5.4655
X6.2259Y-5.7655
T3
X6.6059Y-3.2855
X6.6059Y-3.3855
X6.6059Y-3.5855
X6.6059Y-3.6855
X6.6059Y-3.8855
X6.6059Y-3.9855
X6.6059Y-4.1855
X6.6059Y-4.2855
X6.6059Y-4.4855
X6.6059Y-4.5855
X6.6059Y-4.7855
X6.6059Y-4.8855
X6.6059Y-5.0855
X6.6059Y-5.1855
X6.6059Y-5.3855
X6.6059Y-5.4855
T4
X3.8059Y-5.3955
X3.8059Y-5.4955
X3.9059Y-5.3955
X3.9059Y-5.4955
X3.9059Y-5.6455
X3.9059Y-5.7455
X4.0059Y-5.3955
X4.0059Y-5.4955
X4.0059Y-5.6455
X4.0059Y-5.7455
X4.1059Y-5.6455
X4.1059Y-5.7455
X4.1559Y-5.0955
X4.1559Y-5.1955
X4.1559Y-5.3955
X4.1559Y-5.4955
X4.2059Y-5.6455
X4.2059Y-5.7455
X4.3059Y-5.6455
X4.3059Y-5.7455
X4.6059Y-5.6455
X4.6059Y-5.7455
X4.7059Y-5.6455
X4.7059Y-5.7455
X4.8059Y-5.6455
X4.8059Y-5.7455
X4.9059Y-5.6455
X4.9059Y-5.7455
X5.0059Y-5.6455
X5.0059Y-5.7455
X5.9759Y-4.3255
X5.9759Y-4.4255
X5.9759Y-4.5255
X5.9759Y-4.6255
T5
X2.9059Y-3.5055
X3.0059Y-3.5055
X3.1059Y-3.5055
T6
X3.4459Y-3.0487
X3.4459Y-3.2455
X3.6428Y-3.0487
X3.6428Y-3.2455
X3.8959Y-3.0487
X3.8959Y-3.2455
X4.0928Y-3.0487
X4.0928Y-3.2455
X4.3459Y-3.0487
X4.3459Y-3.2455
X4.5428Y-3.0487
X4.5428Y-3.2455
X4.7959Y-3.0487
X4.7959Y-3.2455
X4.9928Y-3.0487
X4.9928Y-3.2455
X5.2459Y-3.0487
X5.2459Y-3.2455
X5.4428Y-3.0487
X5.4428Y-3.2455
T0
M30
