%TF.GenerationSoftware,KiCad,Pcbnew,5.1.10-88a1d61d58~90~ubuntu20.04.1*%
%TF.CreationDate,2021-10-13T16:20:15+02:00*%
%TF.ProjectId,DO8_V1.2,444f385f-5631-42e3-922e-6b696361645f,rev?*%
%TF.SameCoordinates,Original*%
%TF.FileFunction,Soldermask,Bot*%
%TF.FilePolarity,Negative*%
%FSLAX46Y46*%
G04 Gerber Fmt 4.6, Leading zero omitted, Abs format (unit mm)*
G04 Created by KiCad (PCBNEW 5.1.10-88a1d61d58~90~ubuntu20.04.1) date 2021-10-13 16:20:15*
%MOMM*%
%LPD*%
G01*
G04 APERTURE LIST*
%ADD10O,1.700000X1.700000*%
%ADD11R,1.700000X1.700000*%
%ADD12O,1.600000X1.600000*%
%ADD13R,1.600000X1.600000*%
%ADD14O,1.905000X2.000000*%
%ADD15R,1.905000X2.000000*%
%ADD16C,1.950000*%
%ADD17C,1.800000*%
%ADD18R,1.800000X1.800000*%
G04 APERTURE END LIST*
D10*
%TO.C,J1*%
X151788000Y-117488000D03*
X151788000Y-114948000D03*
X151788000Y-112408000D03*
D11*
X151788000Y-109868000D03*
%TD*%
D12*
%TO.C,SW1*%
X147978000Y-138824000D03*
X158138000Y-146444000D03*
X150518000Y-138824000D03*
X155598000Y-146444000D03*
X153058000Y-138824000D03*
X153058000Y-146444000D03*
X155598000Y-138824000D03*
X150518000Y-146444000D03*
X158138000Y-138824000D03*
D13*
X147978000Y-146444000D03*
%TD*%
D14*
%TO.C,Q9*%
X73810000Y-89040000D03*
X76350000Y-89040000D03*
D15*
X78890000Y-89040000D03*
%TD*%
D16*
%TO.C,J11*%
X92526000Y-77436000D03*
X92526000Y-82436000D03*
X87526000Y-77436000D03*
X87526000Y-82436000D03*
%TD*%
%TO.C,J10*%
X138246000Y-77436000D03*
X138246000Y-82436000D03*
X133246000Y-77436000D03*
X133246000Y-82436000D03*
%TD*%
%TO.C,J9*%
X126816000Y-77436000D03*
X126816000Y-82436000D03*
X121816000Y-77436000D03*
X121816000Y-82436000D03*
%TD*%
%TO.C,J8*%
X115386000Y-77436000D03*
X115386000Y-82436000D03*
X110386000Y-77436000D03*
X110386000Y-82436000D03*
%TD*%
%TO.C,J7*%
X103956000Y-77436000D03*
X103956000Y-82436000D03*
X98956000Y-77436000D03*
X98956000Y-82436000D03*
%TD*%
D10*
%TO.C,J6*%
X116990000Y-145936000D03*
X116990000Y-143396000D03*
X119530000Y-145936000D03*
X119530000Y-143396000D03*
X122070000Y-145936000D03*
X122070000Y-143396000D03*
X124610000Y-145936000D03*
X124610000Y-143396000D03*
X127150000Y-145936000D03*
D11*
X127150000Y-143396000D03*
%TD*%
D10*
%TO.C,J5*%
X99210000Y-145936000D03*
X99210000Y-143396000D03*
X101750000Y-145936000D03*
X101750000Y-143396000D03*
X104290000Y-145936000D03*
X104290000Y-143396000D03*
X106830000Y-145936000D03*
X106830000Y-143396000D03*
X109370000Y-145936000D03*
D11*
X109370000Y-143396000D03*
%TD*%
D10*
%TO.C,J4*%
X96670000Y-139586000D03*
X96670000Y-137046000D03*
X99210000Y-139586000D03*
X99210000Y-137046000D03*
X101750000Y-139586000D03*
D11*
X101750000Y-137046000D03*
%TD*%
D10*
%TO.C,J3*%
X105560000Y-129426000D03*
D11*
X105560000Y-131966000D03*
%TD*%
D10*
%TO.C,J2*%
X105560000Y-137046000D03*
D11*
X105560000Y-139586000D03*
%TD*%
D17*
%TO.C,D15*%
X167790000Y-139332000D03*
D18*
X167790000Y-136792000D03*
%TD*%
D17*
%TO.C,D12*%
X167790000Y-131712000D03*
D18*
X167790000Y-129172000D03*
%TD*%
D17*
%TO.C,D10*%
X167790000Y-124092000D03*
D18*
X167790000Y-121552000D03*
%TD*%
D17*
%TO.C,D7*%
X167790000Y-116472000D03*
D18*
X167790000Y-113932000D03*
%TD*%
D17*
%TO.C,D4*%
X167790000Y-108852000D03*
D18*
X167790000Y-106312000D03*
%TD*%
D17*
%TO.C,D3*%
X167790000Y-101232000D03*
D18*
X167790000Y-98692000D03*
%TD*%
D17*
%TO.C,D2*%
X167790000Y-93612000D03*
D18*
X167790000Y-91072000D03*
%TD*%
D17*
%TO.C,D1*%
X167790000Y-85992000D03*
D18*
X167790000Y-83452000D03*
%TD*%
M02*
